if (_typeface_js && _typeface_js.loadFace) _typeface_js.loadFace({"glyphs":{"ⴟ":{"x_min":55.609375,"x_max":1201.71875,"ha":1183,"o":"m 925 443 l 1003 594 l 644 533 l 722 293 l 925 443 m 835 -74 l 952 -103 l 925 -225 l 741 -183 l 650 116 l 193 -192 l 177 -306 l 55 -306 l 76 -158 l 620 218 l 525 518 l 343 490 l 326 439 l 189 439 l 244 597 l 164 597 l 172 647 l 263 647 l 276 687 l 420 687 l 371 553 l 1037 659 l 1062 716 l 1201 716 l 1048 404 l 750 191 l 835 -74 "},"ᴴ":{"x_min":-13.5625,"x_max":776.5,"ha":763,"o":"m -13 453 l -4 493 l 75 493 l 182 979 l 101 979 l 110 1020 l 359 1020 l 350 979 l 269 979 l 226 783 l 557 783 l 600 979 l 518 979 l 527 1020 l 776 1020 l 767 979 l 686 979 l 580 493 l 661 493 l 653 453 l 403 453 l 412 493 l 493 493 l 547 737 l 216 737 l 162 493 l 244 493 l 235 453 l -13 453 "},"":{"x_min":35,"x_max":1017,"ha":970,"o":"m 197 972 q 239 1058 210 1017 q 309 1132 268 1100 q 397 1183 349 1164 q 495 1202 446 1202 q 551 1194 525 1202 q 598 1171 577 1186 q 632 1135 619 1157 q 652 1085 646 1113 q 696 1140 671 1118 q 749 1176 721 1162 q 809 1196 777 1190 q 873 1203 841 1203 q 928 1190 902 1203 q 973 1155 953 1178 q 1005 1097 993 1131 q 1017 1021 1017 1064 q 1004 928 1017 982 l 841 928 q 881 1007 866 975 q 897 1057 897 1040 q 881 1083 897 1074 q 833 1092 866 1092 q 780 1084 805 1092 q 733 1060 754 1076 q 696 1019 712 1044 q 671 960 680 994 l 657 906 l 564 906 l 580 967 q 589 1022 589 1000 q 568 1076 589 1059 q 511 1093 547 1093 q 467 1087 489 1093 q 425 1072 445 1082 q 391 1045 405 1061 q 371 1006 376 1028 l 293 693 q 348 738 316 716 q 416 778 381 760 q 485 807 451 796 q 546 818 519 818 q 661 798 607 818 q 754 742 714 779 q 816 652 793 706 q 839 529 839 598 q 834 476 839 505 q 824 421 830 446 q 751 244 798 322 q 641 112 704 166 q 502 28 578 57 q 346 0 427 0 q 219 18 277 0 q 121 71 162 36 q 57 157 80 106 q 35 272 35 207 q 38 321 35 297 q 47 371 41 346 l 197 972 m 232 416 q 214 332 219 370 q 210 265 210 294 q 222 188 210 218 q 257 141 235 158 q 308 117 279 123 q 371 111 337 111 q 462 129 421 111 q 534 186 502 147 q 593 285 566 224 q 641 430 619 345 l 641 429 q 655 508 650 473 q 661 570 661 544 q 623 677 661 646 q 514 708 585 708 q 430 686 473 708 q 348 626 387 665 q 278 534 309 587 q 232 417 247 481 l 232 416 "},"⟆":{"x_min":-50.453125,"x_max":566,"ha":542,"o":"m -50 -227 l -41 -178 q -6 -176 -28 -180 q 74 -159 16 -173 q 309 80 285 -106 q 272 499 322 182 q 242 929 220 820 q 420 1068 269 1068 q 566 920 566 1068 l 480 885 q 414 1017 462 1022 q 342 926 355 1011 q 386 527 332 856 q 420 66 443 184 q 64 -219 374 -163 q -9 -227 26 -227 q -50 -227 -44 -227 "},"ₑ":{"x_min":43,"x_max":486,"ha":538,"o":"m 140 195 q 132 130 132 160 q 146 68 132 92 q 239 26 171 26 q 329 50 291 26 q 391 122 367 74 l 455 122 q 363 22 421 55 q 223 -11 306 -11 q 76 47 123 -11 q 43 146 43 87 q 49 202 43 172 q 142 356 70 297 q 311 415 214 415 q 457 358 414 415 q 486 260 486 320 q 478 195 486 230 l 140 195 m 394 235 q 399 280 399 260 q 384 341 399 318 q 303 377 361 377 q 209 341 249 377 q 148 235 170 305 l 394 235 "},"ȋ":{"x_min":66.609375,"x_max":510.078125,"ha":444,"o":"m 204 72 l 322 72 l 309 0 l 66 0 l 192 649 l 73 649 l 86 722 l 331 722 l 204 72 m 507 857 l 443 857 q 412 934 443 910 q 314 959 382 959 q 206 934 246 959 q 148 857 166 910 l 82 857 q 171 1003 108 954 q 333 1052 234 1052 q 475 1003 431 1052 q 507 857 519 954 "},"‥":{"x_min":139.765625,"x_max":786.578125,"ha":926,"o":"m 617 6 q 604 70 596 32 q 642 134 611 108 q 712 161 674 161 q 770 134 749 161 q 784 70 792 108 q 745 6 777 32 q 676 -20 714 -20 q 617 6 638 -20 m 154 6 q 141 70 134 32 q 180 134 149 108 q 249 161 211 161 q 308 134 286 161 q 322 70 329 108 q 283 6 314 32 q 214 -20 251 -20 q 154 6 175 -20 "},"⇜":{"x_min":52,"x_max":1085,"ha":1164,"o":"m 378 394 l 211 394 l 342 165 l 334 165 l 52 445 l 52 452 l 334 732 l 342 732 l 211 504 l 340 504 l 421 644 l 545 429 l 669 644 l 794 429 l 918 644 l 999 504 l 1085 504 l 1085 394 l 960 394 l 918 468 l 794 252 l 669 468 l 545 252 l 421 468 l 378 394 "},"⣌":{"x_min":193,"x_max":824,"ha":1017,"o":"m 193 215 q 224 295 193 262 q 304 328 256 328 q 384 295 351 328 q 417 215 417 262 q 384 135 417 168 q 304 103 351 103 q 224 135 256 103 q 193 215 193 168 m 600 983 q 631 1063 600 1030 q 712 1096 663 1096 q 791 1063 758 1096 q 824 983 824 1030 q 791 903 824 936 q 712 871 758 871 q 631 903 663 871 q 600 983 600 936 m 193 -169 q 224 -89 193 -122 q 304 -57 256 -57 q 384 -89 351 -57 q 417 -169 417 -122 q 384 -249 417 -216 q 304 -282 351 -282 q 224 -249 256 -282 q 193 -169 193 -216 m 600 -169 q 631 -89 600 -122 q 712 -57 663 -57 q 791 -89 758 -57 q 824 -169 824 -122 q 791 -249 824 -216 q 712 -282 758 -282 q 631 -249 663 -282 q 600 -169 600 -216 "},"⡡":{"x_min":193,"x_max":824,"ha":1017,"o":"m 193 983 q 224 1063 193 1030 q 304 1096 256 1096 q 384 1063 351 1096 q 417 983 417 1030 q 384 903 417 936 q 304 871 351 871 q 224 903 256 871 q 193 983 193 936 m 600 215 q 631 295 600 262 q 712 328 663 328 q 791 295 758 328 q 824 215 824 262 q 791 135 824 168 q 712 103 758 103 q 631 135 663 103 q 600 215 600 168 m 193 -169 q 224 -89 193 -122 q 304 -57 256 -57 q 384 -89 351 -57 q 417 -169 417 -122 q 384 -249 417 -216 q 304 -282 351 -282 q 224 -249 256 -282 q 193 -169 193 -216 "},"Ⅲ":{"x_min":-21.015625,"x_max":1113.546875,"ha":1091,"o":"m 802 72 l 931 72 l 916 0 l -21 0 l -7 72 l 121 72 l 290 940 l 161 940 l 175 1013 l 1113 1013 l 1099 940 l 970 940 l 802 72 m 561 940 l 427 940 l 259 72 l 392 72 l 561 940 m 832 940 l 699 940 l 530 72 l 663 72 l 832 940 "},"⤒":{"x_min":298.453125,"x_max":865.546875,"ha":1164,"o":"m 527 0 l 527 779 l 298 649 l 298 656 l 535 896 l 315 896 l 315 1006 l 848 1006 l 848 896 l 628 896 l 865 656 l 865 649 l 637 779 l 637 0 l 527 0 "},"Ƹ":{"x_min":23.75,"x_max":827.359375,"ha":784,"o":"m 470 578 q 276 509 351 578 q 175 306 201 440 q 199 122 152 190 q 349 55 246 55 q 527 111 457 55 q 625 277 597 167 l 701 277 l 658 57 q 497 0 576 18 q 338 -20 417 -20 q 80 64 159 -20 q 32 308 1 149 q 142 520 57 438 q 356 621 227 602 l 410 626 l 219 928 l 235 1013 l 827 1013 l 781 778 l 698 778 l 727 930 l 370 930 l 548 647 l 535 578 l 470 578 "},"ˌ":{"x_min":99.015625,"x_max":292.96875,"ha":392,"o":"m 99 -125 l 165 217 l 292 217 l 226 -125 l 99 -125 "},"დ":{"x_min":49.296875,"x_max":1115,"ha":1171,"o":"m 670 -306 l 573 -306 q 578 -272 578 -289 q 568 -224 578 -249 q 539 -178 559 -200 q 486 -139 519 -157 q 409 -112 454 -122 q 349 -101 376 -105 q 300 -98 322 -98 q 254 -101 275 -98 q 211 -115 233 -105 q 165 -145 189 -126 q 109 -193 140 -163 l 49 -104 q 95 -72 73 -86 q 142 -48 117 -58 q 195 -32 167 -38 q 258 -23 223 -26 q 193 27 226 1 q 132 88 159 54 q 88 167 105 122 q 71 272 71 211 q 83 382 71 326 q 121 490 96 438 q 181 587 145 541 q 265 665 218 632 q 369 718 312 699 q 493 738 426 738 q 556 731 532 738 q 598 713 581 725 q 627 683 614 701 q 652 643 639 666 q 771 713 712 688 q 892 738 829 738 q 1056 682 998 738 q 1115 523 1115 627 q 1094 390 1115 464 q 1034 255 1072 315 q 946 153 996 195 q 836 89 896 111 q 710 67 776 67 q 609 84 653 67 q 534 132 564 102 q 487 204 503 163 q 471 294 471 246 q 483 379 471 335 q 505 448 493 417 q 532 507 517 480 q 566 560 546 535 q 613 609 586 585 q 586 631 600 623 q 556 645 573 640 q 518 650 539 650 q 466 650 497 650 q 385 632 420 650 q 324 582 351 615 q 277 499 298 549 q 239 387 257 450 q 223 274 223 326 q 271 119 223 184 q 410 8 320 55 q 475 -23 442 -8 q 538 -53 508 -38 q 594 -85 567 -68 q 639 -123 620 -102 q 669 -171 658 -144 q 681 -233 681 -199 q 678 -267 681 -249 q 670 -306 676 -285 m 929 374 l 945 436 q 962 504 956 472 q 969 561 969 535 q 946 627 969 603 q 869 652 924 652 q 786 639 820 652 q 724 597 751 627 q 676 514 698 566 q 632 385 654 463 q 613 306 619 341 q 607 246 607 272 q 635 171 607 193 q 727 150 663 150 q 802 160 772 150 q 854 196 832 171 q 893 265 876 221 q 929 374 910 308 "},"Ԓ":{"x_min":-56,"x_max":1189.109375,"ha":1159,"o":"m 523 929 l 485 732 q 309 114 404 315 q 110 -20 245 -20 q 36 -8 84 -20 q -56 26 -10 3 l -33 140 l 43 140 q 43 127 43 137 q 63 89 43 116 q 132 62 83 62 q 221 116 182 62 q 309 343 259 171 q 401 732 361 522 l 441 940 l 312 940 l 327 1013 l 1189 1013 l 1174 940 l 1046 940 l 869 27 q 754 -214 836 -139 q 523 -289 673 -289 q 428 -277 475 -289 q 335 -242 380 -265 l 366 -83 l 443 -83 q 456 -183 432 -150 q 539 -216 479 -216 q 661 -165 620 -216 q 732 33 703 -114 l 906 929 l 523 929 "},"ϼ":{"x_min":-27.125,"x_max":823.34375,"ha":817,"o":"m 180 -140 l 509 -140 l 495 -213 l 166 -213 l 151 -289 l 26 -289 l 41 -213 l -27 -213 l -12 -140 l 55 -140 l 151 355 q 260 608 185 526 q 390 709 341 686 q 544 741 457 741 q 781 635 718 741 q 812 360 845 530 q 674 85 779 191 q 437 -20 570 -20 q 303 12 354 -20 q 229 112 252 44 l 180 -140 m 284 396 l 270 324 q 282 126 245 194 q 413 58 318 58 q 573 134 509 58 q 666 360 637 211 q 661 587 696 516 q 532 670 619 670 q 373 594 442 670 q 284 396 309 526 "},"ȡ":{"x_min":35.296875,"x_max":1023.421875,"ha":1131,"o":"m 751 -34 q 946 37 932 -34 q 678 120 963 120 q 659 120 669 120 q 668 7 641 55 q 751 -34 691 -34 m 574 324 l 588 396 q 577 594 613 525 q 445 663 540 663 q 285 586 349 663 q 192 360 221 510 q 197 134 163 211 q 328 58 231 58 q 486 126 423 58 q 574 324 549 194 m 673 189 q 683 189 678 189 l 689 189 q 1020 32 1053 189 q 737 -102 991 -102 q 571 -38 627 -102 q 528 50 535 2 q 487 -55 499 9 l 478 -98 l 410 -98 l 420 -55 q 444 26 429 -10 q 420 11 432 18 q 274 -20 358 -20 q 77 85 141 -20 q 46 360 13 191 q 184 635 79 530 q 422 741 288 741 q 556 708 505 741 q 630 608 606 676 l 702 984 l 584 984 l 598 1056 l 841 1056 l 673 189 "},"◦":{"x_min":208,"x_max":611,"ha":819,"o":"m 248 517 q 294 402 248 449 q 409 356 341 356 q 524 402 477 356 q 571 517 571 449 q 524 631 571 584 q 410 678 478 678 q 295 631 342 678 q 248 517 248 584 m 208 517 q 266 659 208 601 q 410 718 325 718 q 552 659 494 718 q 611 517 611 601 q 552 374 611 432 q 409 316 494 316 q 266 374 324 316 q 208 517 208 432 "},"ņ":{"x_min":97.53125,"x_max":797.421875,"ha":894,"o":"m 359 -258 q 435 -192 411 -230 q 459 -99 459 -154 l 459 -85 l 563 -85 q 523 -204 563 -154 q 403 -291 483 -254 l 359 -258 m 97 0 l 223 649 l 104 649 l 117 722 l 362 722 l 337 593 q 448 703 386 666 q 584 741 511 741 q 747 672 703 741 q 773 562 773 631 q 761 458 773 516 l 686 72 l 797 72 l 783 0 l 546 0 l 628 419 q 642 536 642 489 q 631 601 642 577 q 526 650 608 650 q 381 586 439 650 q 300 401 324 523 l 222 0 l 97 0 "},"Ⅽ":{"x_min":64.421875,"x_max":1036.078125,"ha":1063,"o":"m 932 268 q 740 53 860 126 q 459 -20 621 -20 q 282 13 360 -20 q 151 113 204 47 q 72 286 90 189 q 77 505 54 383 q 288 886 123 741 q 675 1031 452 1031 q 847 1009 758 1031 q 1036 943 937 987 l 991 710 l 914 710 q 850 897 914 837 q 650 958 786 958 q 382 843 488 958 q 233 505 276 728 q 250 167 189 282 q 473 53 311 53 q 670 106 587 53 q 808 268 754 160 l 932 268 "},"ỳ":{"x_min":-51.53125,"x_max":798.90625,"ha":785,"o":"m 798 715 q 613 121 731 326 q 301 -268 440 -178 q 77 -309 240 -309 q 13 -303 45 -309 q -51 -287 -18 -298 l -24 -150 l 39 -150 q 38 -171 38 -160 q 50 -215 38 -199 q 111 -239 67 -239 q 334 -135 230 -239 l 164 648 l 82 648 l 96 721 l 282 721 l 442 5 q 578 235 552 168 q 680 642 663 446 l 598 642 l 613 715 l 798 715 m 419 1079 l 545 824 l 466 824 l 286 1079 l 419 1079 "},"қ":{"x_min":97.875,"x_max":829.4375,"ha":840,"o":"m 104 648 l 118 721 l 363 721 l 299 397 q 337 427 302 397 q 389 475 372 458 l 559 648 q 704 741 649 741 q 829 716 759 741 l 806 602 l 726 602 q 677 655 726 655 q 603 606 651 655 l 436 435 q 382 384 412 410 l 411 375 q 526 337 502 350 q 597 235 586 304 l 617 111 q 670 63 625 63 q 746 160 714 63 l 805 148 l 781 54 q 765 -39 765 -3 q 765 -146 765 -76 q 709 -243 765 -216 q 557 -289 654 -271 l 557 -241 q 640 -205 606 -234 q 674 -125 674 -177 q 699 -39 674 -64 q 724 -4 724 -14 q 720 0 724 0 q 696 -9 717 0 q 644 -20 674 -20 q 519 26 555 -20 q 488 122 499 52 l 474 213 q 396 312 461 295 l 321 331 l 282 303 l 222 0 l 97 0 l 224 648 l 104 648 "},"":{"x_min":23,"x_max":936,"ha":960,"o":"m 601 376 q 622 479 616 434 q 629 559 629 524 q 619 628 629 600 q 593 674 610 656 q 552 700 576 692 q 496 708 527 708 q 419 696 458 708 q 344 652 380 684 q 276 561 308 619 q 221 409 245 503 q 201 271 201 328 q 236 152 201 193 q 343 111 272 111 q 430 129 390 111 q 504 182 471 148 q 561 266 536 216 q 601 376 585 315 m 781 346 q 718 208 763 272 q 610 99 673 145 q 475 26 548 52 q 324 0 401 0 q 193 26 250 0 q 99 98 137 53 q 42 200 61 142 q 23 320 23 258 q 26 370 23 346 q 34 417 29 394 q 80 540 51 484 q 147 640 109 596 q 229 718 185 685 q 321 773 274 751 q 416 806 368 795 q 510 818 464 818 q 573 808 544 818 q 627 780 603 798 q 670 739 652 763 q 700 687 688 716 q 735 828 717 756 q 770 969 753 900 q 776 997 774 985 q 778 1019 778 1009 q 737 1078 778 1063 q 613 1093 696 1093 l 641 1202 q 763 1188 708 1202 q 856 1148 818 1174 q 915 1083 894 1122 q 936 995 936 1045 q 933 961 936 977 q 927 929 931 945 l 781 346 "},"⥍":{"x_min":298.453125,"x_max":865.546875,"ha":1164,"o":"m 628 1037 l 637 1037 l 637 178 l 865 309 l 865 302 l 535 -32 l 527 -32 l 527 826 l 298 695 l 298 702 l 628 1037 "},"ѕ":{"x_min":15.09375,"x_max":664.859375,"ha":712,"o":"m 47 208 l 119 208 q 117 170 117 188 q 284 47 117 47 q 476 170 452 47 q 479 204 479 182 q 455 251 479 225 q 336 309 432 276 l 251 340 q 136 408 164 370 q 108 491 108 446 q 111 529 108 508 q 214 684 131 628 q 418 741 297 741 q 664 682 538 741 l 634 525 l 562 525 q 565 554 565 540 q 530 638 565 603 q 417 673 496 673 q 236 562 258 673 q 234 530 234 550 q 255 485 234 509 q 363 433 277 461 l 456 402 q 588 322 552 370 q 614 255 614 288 q 500 39 614 113 q 273 -20 410 -20 q 15 39 136 -20 l 47 208 "},"Ḏ":{"x_min":-21.015625,"x_max":1047.296875,"ha":1114,"o":"m 259 72 l 385 72 q 710 184 582 72 q 878 507 837 297 q 835 828 919 717 q 554 940 752 940 l 427 940 l 259 72 m -21 0 l -7 72 l 121 72 l 290 940 l 161 940 l 175 1013 l 578 1013 q 960 879 840 1013 q 1034 507 1081 745 q 815 134 988 268 q 381 0 642 0 l -21 0 m 182 -105 l 587 -105 l 568 -205 l 163 -205 l 182 -105 "},"ŭ":{"x_min":94.546875,"x_max":796.21875,"ha":894,"o":"m 325 1091 l 390 1091 q 420 1013 390 1037 q 518 989 450 989 q 626 1013 586 989 q 685 1091 666 1037 l 750 1091 q 661 944 724 993 q 499 896 598 896 q 357 944 401 896 q 325 1091 313 993 m 671 721 l 796 721 l 670 72 l 788 72 l 774 0 l 531 0 l 556 127 q 445 17 507 55 q 310 -20 383 -20 q 147 48 190 -20 q 121 159 121 89 q 132 262 121 204 l 207 648 l 94 648 l 108 721 l 346 721 l 265 301 q 252 185 252 231 q 262 120 252 143 q 367 72 285 72 q 512 135 454 72 q 593 320 570 199 l 671 721 "},"╲":{"x_min":-73.921875,"x_max":910.109375,"ha":836,"o":"m 910 -419 l 789 -419 l -73 1352 l 46 1352 l 910 -419 "},"◴":{"x_min":76,"x_max":1136,"ha":1212,"o":"m 146 94 q 76 359 76 217 q 146 624 76 501 q 340 819 217 748 q 606 890 463 890 q 871 819 748 890 q 1065 624 994 748 q 1136 359 1136 501 q 1065 94 1136 217 q 871 -99 994 -28 q 606 -171 748 -171 q 340 -99 463 -171 q 146 94 217 -28 m 567 814 q 377 751 472 805 q 164 400 164 630 l 567 400 l 567 814 m 164 323 q 374 -28 164 92 q 601 -94 488 -94 q 828 -28 715 -94 q 1057 361 1057 102 q 830 751 1057 620 q 644 814 737 805 l 644 323 l 164 323 "},"┗":{"x_min":309,"x_max":849.484375,"ha":836,"o":"m 309 278 l 309 1351 l 526 1351 l 526 511 l 849 511 l 849 278 l 309 278 "},"ɭ":{"x_min":66.984375,"x_max":492.34375,"ha":504,"o":"m 278 984 l 158 984 l 172 1056 l 417 1056 l 198 -71 q 202 -199 181 -159 q 285 -241 223 -241 q 376 -211 341 -241 q 427 -116 410 -180 l 492 -116 l 463 -264 q 370 -297 417 -286 q 275 -309 324 -309 q 105 -245 159 -309 q 73 -71 51 -182 q 278 984 175 456 "},"⁍":{"x_min":146,"x_max":548,"ha":695,"o":"m 265 305 l 146 305 l 146 707 l 265 707 l 265 305 m 345 707 q 489 648 430 707 q 548 506 548 590 q 489 363 548 421 q 346 305 431 305 l 345 305 l 345 707 "},"ἣ":{"x_min":125.515625,"x_max":801.390625,"ha":832,"o":"m 360 1153 q 410 1135 390 1153 q 432 1061 442 1109 q 394 996 425 1022 q 331 973 366 973 q 373 863 331 915 l 318 842 q 314 846 317 844 q 250 1050 222 940 l 252 1061 q 279 1114 258 1091 q 360 1153 314 1153 m 611 1110 l 737 855 l 658 855 l 478 1110 l 611 1110 m 250 0 l 125 0 l 251 649 l 132 649 l 146 722 l 390 722 l 365 593 q 477 703 414 666 q 613 741 539 741 q 775 672 730 741 q 790 458 818 605 l 644 -289 l 518 -289 l 656 419 q 659 600 682 551 q 554 650 636 650 q 409 586 467 650 q 328 402 352 523 l 250 0 "},"╋":{"x_min":-13,"x_max":850,"ha":837,"o":"m 310 -419 l 310 279 l -13 279 l -13 512 l 310 512 l 310 1352 l 527 1352 l 527 512 l 850 512 l 850 279 l 527 279 l 527 -419 l 310 -419 "},"⊓":{"x_min":146,"x_max":1017,"ha":1163,"o":"m 146 882 l 1017 882 l 1017 0 l 908 0 l 908 772 l 255 772 l 255 0 l 146 0 l 146 882 "},"Ɲ":{"x_min":-255.671875,"x_max":1281.734375,"ha":1215,"o":"m -255 -242 l -225 -83 l -147 -83 q -134 -182 -160 -150 q -52 -216 -111 -216 q 70 -165 28 -216 q 141 33 111 -114 l 317 940 l 181 940 l 195 1013 l 455 1013 l 906 213 l 1047 940 l 912 940 l 926 1013 l 1281 1013 l 1267 940 l 1131 940 l 944 -19 l 862 -19 l 380 832 l 223 27 q 109 -214 191 -139 q -102 -289 27 -289 q -162 -277 -115 -289 q -255 -242 -210 -265 "},"⇱":{"x_min":113,"x_max":1064.640625,"ha":1164,"o":"m 1010 132 l 932 54 l 314 673 l 245 418 l 239 424 l 239 822 l 243 826 l 641 826 l 646 819 l 392 750 l 1010 132 m 113 0 l 113 958 l 1064 958 l 1064 890 l 181 890 l 181 0 l 113 0 "},"⁸":{"x_min":16.171875,"x_max":537.203125,"ha":557,"o":"m 336 513 q 394 606 380 546 q 380 698 408 665 q 286 732 351 732 q 176 698 220 732 q 117 606 131 665 q 131 513 103 546 q 225 480 160 480 q 336 513 291 480 m 389 807 q 440 886 427 835 q 427 965 452 937 q 345 994 402 994 q 251 965 289 994 q 200 886 212 937 q 213 807 188 835 q 295 779 238 779 q 389 807 351 779 m 360 750 q 470 703 435 742 q 491 605 505 665 q 401 485 472 527 q 217 443 330 443 q 53 485 104 443 q 21 605 2 527 q 87 703 35 665 q 220 750 140 742 q 124 803 163 760 q 107 886 95 835 q 189 992 124 953 q 354 1031 255 1031 q 501 992 454 1031 q 533 886 549 953 q 476 803 518 827 q 360 750 414 769 "},"k":{"x_min":57.640625,"x_max":762.265625,"ha":842,"o":"m 458 450 l 658 72 l 762 72 l 748 0 l 548 0 l 351 368 l 236 277 l 182 0 l 57 0 l 248 984 l 128 984 l 142 1056 l 387 1056 l 253 368 l 612 649 l 508 649 l 522 722 l 724 722 l 711 649 l 458 450 "},"ȇ":{"x_min":58,"x_max":758,"ha":821,"o":"m 731 896 l 668 896 q 637 973 668 949 q 539 998 607 998 q 431 973 471 998 q 372 896 391 949 l 307 896 q 396 1042 333 993 q 557 1091 459 1091 q 699 1042 655 1091 q 731 896 744 993 m 202 278 q 200 228 200 251 q 223 122 200 164 q 370 47 262 47 q 487 71 448 47 q 572 169 556 113 l 664 169 q 536 22 637 82 q 326 -20 465 -20 q 110 83 186 -20 q 58 261 58 156 q 68 360 58 307 q 215 636 101 531 q 493 741 330 741 q 758 552 758 741 q 619 346 758 414 q 202 278 477 278 m 550 424 q 626 555 626 469 q 472 673 626 673 q 318 605 381 673 q 216 353 255 537 q 550 424 434 353 "},"⠽":{"x_min":193,"x_max":824,"ha":1017,"o":"m 193 984 q 224 1064 193 1031 q 304 1097 256 1097 q 384 1064 351 1097 q 417 984 417 1031 q 384 904 417 937 q 304 872 351 872 q 224 904 256 872 q 193 984 193 937 m 193 215 q 224 295 193 262 q 304 328 256 328 q 384 295 351 328 q 417 215 417 262 q 384 135 417 168 q 304 103 351 103 q 224 135 256 103 q 193 215 193 168 m 600 984 q 631 1064 600 1031 q 712 1097 663 1097 q 791 1064 758 1097 q 824 984 824 1031 q 791 904 824 937 q 712 872 758 872 q 631 904 663 872 q 600 984 600 937 m 600 599 q 631 679 600 646 q 712 712 663 712 q 791 679 758 712 q 824 599 824 646 q 791 519 824 552 q 712 487 758 487 q 631 519 663 487 q 600 599 600 552 m 600 215 q 631 295 600 262 q 712 328 663 328 q 791 295 758 328 q 824 215 824 262 q 791 135 824 168 q 712 103 758 103 q 631 135 663 103 q 600 215 600 168 "},"ί":{"x_min":107.15625,"x_max":592.046875,"ha":545,"o":"m 457 1112 l 592 1112 l 311 857 l 231 857 l 457 1112 m 137 197 l 226 649 l 107 649 l 121 722 l 365 722 l 263 197 q 290 79 244 102 q 419 112 325 62 l 403 30 q 169 34 249 -48 q 137 197 116 88 "},"Ù":{"x_min":151.234375,"x_max":1208.5,"ha":1171,"o":"m 280 940 l 151 940 l 165 1013 l 561 1013 l 547 940 l 417 940 l 316 416 q 326 145 278 222 q 531 69 375 69 q 764 145 686 69 q 880 416 842 222 l 981 940 l 852 940 l 866 1013 l 1208 1013 l 1194 940 l 1065 940 l 960 402 q 808 75 916 171 q 488 -20 701 -20 q 203 76 275 -20 q 176 402 131 172 l 280 940 m 747 1288 l 836 1109 l 756 1109 l 614 1288 l 747 1288 "},"╾":{"x_min":-13,"x_max":850.4375,"ha":837,"o":"m -13 278 l -13 511 l 432 511 l 432 453 l 850 453 l 850 336 l 432 336 l 432 278 l -13 278 "},"ᵗ":{"x_min":25.546875,"x_max":330.71875,"ha":343,"o":"m 94 816 l 25 816 l 34 857 l 103 857 l 131 982 l 210 982 l 182 857 l 330 857 l 321 816 l 174 816 l 117 559 q 111 511 111 529 q 114 493 111 499 q 152 479 122 479 q 200 495 182 479 q 226 548 218 511 l 286 548 q 235 466 271 492 q 137 442 199 442 q 47 468 69 442 q 33 515 33 484 q 38 559 33 535 l 94 816 "},"ὓ":{"x_min":106.765625,"x_max":789.375,"ha":844,"o":"m 346 1152 q 396 1134 376 1152 q 418 1060 428 1108 q 380 995 411 1021 q 317 972 352 972 q 359 863 317 914 l 304 842 q 300 846 303 844 q 236 1050 208 940 l 238 1061 q 265 1114 244 1090 q 346 1152 300 1152 m 597 1110 l 723 855 l 644 855 l 464 1110 l 597 1110 m 570 721 l 646 721 q 776 588 751 667 q 773 345 803 500 q 717 205 759 270 q 611 88 675 137 q 485 19 553 43 q 344 -3 416 -3 q 175 63 233 -3 q 146 237 123 119 l 226 648 l 106 648 l 121 721 l 365 721 l 271 237 q 274 108 253 148 q 358 66 295 66 q 536 155 442 66 q 637 356 612 227 q 655 579 672 539 q 563 680 622 648 l 570 721 "},"𝛹":{"x_min":149.203125,"x_max":1262.75,"ha":1218,"o":"m 919 618 l 958 815 l 958 815 q 1126 1013 995 1013 l 1262 1013 l 1248 940 l 1179 940 q 1095 815 1118 940 l 1054 607 q 910 333 1017 413 q 634 256 817 256 l 598 72 l 728 72 l 714 0 l 318 0 l 332 72 l 461 72 l 496 256 q 251 333 312 256 q 214 607 177 418 l 254 815 q 218 940 280 940 l 149 940 l 163 1013 l 299 1013 q 391 815 431 1013 l 391 815 l 353 618 q 372 391 321 455 q 511 329 408 346 l 630 940 l 501 940 l 515 1013 l 910 1013 l 896 940 l 767 940 l 649 329 q 811 391 758 346 q 919 618 887 455 "},"Ҷ":{"x_min":97.8125,"x_max":1098.796875,"ha":1040,"o":"m 508 0 l 522 72 l 649 72 l 721 443 l 509 443 q 234 520 308 443 q 185 728 160 598 l 226 940 l 97 940 l 112 1013 l 502 1013 l 487 940 l 362 940 l 320 728 q 343 570 301 625 q 556 516 385 516 l 735 516 l 819 940 l 690 940 l 704 1013 l 1098 1013 l 1084 940 l 955 940 l 786 72 l 915 72 l 859 -218 l 787 -218 q 797 -107 797 -215 q 738 0 797 0 l 508 0 "},"Ⴣ":{"x_min":163.6875,"x_max":1095.609375,"ha":1033,"o":"m 520 69 l 606 69 l 694 479 l 461 479 q 346 485 395 479 q 265 508 297 492 q 216 552 232 525 q 201 619 201 578 q 203 651 201 634 q 209 686 205 667 l 250 886 l 163 886 l 178 957 l 515 957 l 500 886 l 416 886 l 378 707 q 372 650 372 678 q 476 552 372 552 l 709 552 l 827 1107 l 740 1107 l 755 1178 l 1095 1178 l 1080 1107 l 991 1107 l 771 69 l 860 69 l 846 0 l 506 0 l 520 69 "},"┢":{"x_min":309,"x_max":849.484375,"ha":836,"o":"m 309 -419 l 309 512 l 363 512 l 363 1352 l 472 1352 l 472 512 l 849 512 l 849 279 l 526 279 l 526 -419 l 309 -419 "},"⤤":{"x_min":263,"x_max":957,"ha":1163,"o":"m 394 185 q 374 132 374 163 q 395 80 374 102 q 447 59 416 59 q 499 80 478 59 l 577 2 q 447 -52 522 -52 q 317 2 371 -52 q 263 132 263 56 q 317 263 263 208 l 804 750 l 550 818 l 556 825 l 953 825 l 957 821 l 957 423 l 950 418 l 882 672 l 394 185 "},"ჳ":{"x_min":-41,"x_max":828.140625,"ha":808,"o":"m 393 344 q 457 355 424 344 q 524 387 491 367 q 587 433 557 407 q 643 490 617 460 q 687 553 668 521 q 714 618 706 586 l 685 618 q 645 590 668 603 q 594 565 621 577 q 538 544 567 554 q 482 528 509 534 q 431 517 455 521 q 390 514 407 514 q 302 519 344 514 q 228 537 259 524 q 179 574 197 551 q 161 632 161 597 q 163 656 161 644 q 168 681 165 668 q 184 725 175 706 q 203 760 192 745 q 225 788 213 775 q 252 813 237 800 l 382 769 q 323 708 343 739 q 303 642 303 676 q 307 619 303 630 q 323 598 311 607 q 354 583 334 589 q 405 578 374 578 q 501 588 456 578 q 587 618 546 598 q 665 668 628 638 q 739 737 702 697 l 828 737 q 781 604 807 661 q 727 504 755 547 q 668 432 699 462 q 606 381 637 402 q 543 345 575 360 q 482 317 512 330 q 603 238 563 288 q 643 119 643 188 q 640 83 643 102 q 632 44 638 64 l 612 -22 q 554 -143 594 -89 q 461 -234 514 -197 q 344 -292 408 -272 q 211 -313 279 -313 q 107 -295 153 -313 q 27 -246 60 -277 q -23 -175 -5 -216 q -41 -89 -41 -134 q -32 -27 -41 -57 q 63 123 -4 67 q 235 196 131 178 l 239 153 q 206 124 224 144 q 172 78 188 104 q 142 24 155 52 q 122 -27 129 -3 q 111 -76 115 -53 q 107 -120 107 -100 q 113 -165 107 -145 q 134 -199 119 -185 q 173 -221 149 -214 q 230 -229 196 -229 q 295 -221 262 -229 q 356 -194 327 -213 q 408 -144 385 -176 q 445 -66 431 -113 l 485 75 q 496 123 492 100 q 500 165 500 145 q 472 243 500 214 q 382 273 445 273 l 318 273 l 337 344 l 393 344 "},"∝":{"x_min":150,"x_max":790,"ha":940,"o":"m 538 451 q 459 541 504 511 q 357 571 414 571 q 245 525 288 571 q 202 409 202 480 q 241 295 202 340 q 342 250 281 250 q 441 294 397 250 q 538 451 485 339 m 790 153 q 690 192 739 153 q 586 328 640 231 q 485 192 538 235 q 368 150 432 150 q 213 225 276 150 q 150 413 150 301 q 206 605 150 532 q 354 679 263 679 q 469 637 418 679 q 571 499 520 595 q 670 638 617 593 q 790 683 724 683 l 790 581 q 717 535 761 581 q 620 379 672 490 q 699 289 654 319 q 790 259 744 259 l 790 153 "},"Ẹ":{"x_min":-21.015625,"x_max":990.8125,"ha":1014,"o":"m -21 0 l -7 72 l 121 72 l 290 940 l 161 940 l 175 1013 l 990 1013 l 947 787 l 863 787 l 891 929 l 425 929 l 360 590 l 691 590 l 716 716 l 799 716 l 734 380 l 651 380 l 675 507 l 343 507 l 261 83 l 737 83 l 764 225 l 848 225 l 804 0 l -21 0 m 345 -130 q 405 -107 373 -107 q 457 -130 438 -107 q 469 -186 475 -153 q 436 -243 462 -221 q 374 -266 408 -266 q 322 -243 339 -266 q 310 -186 303 -221 q 345 -130 316 -153 "},"⬇":{"x_min":298,"x_max":865,"ha":1163,"o":"m 402 1005 l 761 1005 l 761 296 l 865 296 l 865 254 l 584 -28 l 578 -28 l 298 254 l 298 296 l 402 296 l 402 1005 "},"▎":{"x_min":-13,"x_max":260,"ha":1068,"o":"m -13 -347 l -13 1070 l 260 1070 l 260 -347 l -13 -347 "},"≠":{"x_min":147,"x_max":1016,"ha":1163,"o":"m 147 629 l 670 629 l 843 845 l 928 776 l 810 629 l 1016 629 l 1016 520 l 717 520 l 585 352 l 1016 352 l 1016 243 l 491 243 l 316 26 l 231 95 l 349 243 l 147 243 l 147 352 l 443 352 l 576 520 l 147 520 l 147 629 "},"ƀ":{"x_min":59.984375,"x_max":801,"ha":890,"o":"m 250 984 l 131 984 l 145 1056 l 389 1056 l 360 904 l 574 904 l 558 821 l 344 821 l 302 608 q 415 708 352 676 q 562 741 478 741 q 758 635 695 741 q 801 469 801 566 q 789 360 801 418 q 651 85 756 191 q 414 -20 547 -20 q 280 12 330 -20 q 206 112 229 44 l 184 0 l 59 0 l 219 821 l 100 821 l 116 904 l 235 904 l 250 984 m 247 324 q 237 228 237 271 q 258 125 237 166 q 390 58 295 58 q 550 134 486 58 q 643 360 614 211 q 657 483 657 429 q 638 586 657 545 q 507 663 604 663 q 349 594 412 663 q 261 396 286 525 l 247 324 "},"ɼ":{"x_min":69.84375,"x_max":760.234375,"ha":664,"o":"m 760 722 l 724 542 l 653 542 q 639 622 660 596 q 566 649 617 649 q 413 585 474 649 q 328 401 351 521 l 194 -287 l 69 -287 l 251 650 l 132 650 l 146 721 l 390 721 l 365 593 q 481 704 417 668 q 628 741 545 741 q 691 736 659 741 q 760 722 724 731 "},"╤":{"x_min":-13,"x_max":850,"ha":837,"o":"m 364 -419 l 364 220 l -13 220 l -13 337 l 850 337 l 850 220 l 473 220 l 473 -419 l 364 -419 m -13 453 l -13 570 l 850 570 l 850 453 l -13 453 "},"ᵸ":{"x_min":-13.5625,"x_max":776.5,"ha":763,"o":"m -13 453 l -4 493 l 75 493 l 182 979 l 101 979 l 110 1020 l 359 1020 l 350 979 l 269 979 l 226 783 l 557 783 l 600 979 l 518 979 l 527 1020 l 776 1020 l 767 979 l 686 979 l 580 493 l 661 493 l 653 453 l 403 453 l 412 493 l 493 493 l 547 737 l 216 737 l 162 493 l 244 493 l 235 453 l -13 453 "},"ϴ":{"x_min":64.59375,"x_max":1075.171875,"ha":1139,"o":"m 906 507 l 233 507 q 252 167 189 281 q 481 53 314 53 q 755 167 648 53 q 906 507 862 281 m 918 590 q 887 843 936 752 q 657 958 824 958 q 383 843 491 958 q 252 590 298 752 l 918 590 m 467 -20 q 284 13 364 -20 q 151 113 204 47 q 72 286 90 189 q 77 505 54 382 q 157 724 101 627 q 303 897 212 821 q 475 997 383 963 q 672 1031 567 1031 q 999 886 892 1031 q 1061 505 1107 741 q 981 286 1037 383 q 834 113 925 188 q 663 13 755 47 q 467 -20 571 -20 "},"ʔ":{"x_min":56.28125,"x_max":661.234375,"ha":745,"o":"m 189 72 l 284 565 l 363 565 q 462 606 424 565 q 524 778 499 647 q 528 948 550 907 q 446 990 507 990 q 355 959 390 990 q 303 865 320 929 l 238 865 l 267 1011 q 360 1046 314 1035 q 456 1057 407 1057 q 625 993 571 1057 q 651 779 680 930 q 541 560 620 624 q 398 506 476 506 l 314 72 l 432 72 l 418 0 l 300 0 l 175 0 l 56 0 l 69 72 l 189 72 "},"𝑠":{"x_min":15.09375,"x_max":664.859375,"ha":712,"o":"m 47 208 l 119 208 q 117 170 117 188 q 284 47 117 47 q 476 170 452 47 q 479 204 479 182 q 455 251 479 225 q 336 309 432 276 l 251 340 q 136 408 164 370 q 108 491 108 446 q 111 529 108 508 q 214 684 131 628 q 418 741 297 741 q 664 682 538 741 l 634 525 l 562 525 q 565 554 565 540 q 530 638 565 603 q 417 673 496 673 q 236 562 258 673 q 234 530 234 550 q 255 485 234 509 q 363 433 277 461 l 456 402 q 588 322 552 370 q 614 255 614 288 q 500 39 614 113 q 273 -20 410 -20 q 15 39 136 -20 l 47 208 "},"ᾞ":{"x_min":134.28125,"x_max":1546.21875,"ha":1525,"o":"m 345 1152 q 410 1114 391 1152 q 417 1061 423 1091 l 415 1050 q 271 846 400 940 q 266 842 267 844 l 219 863 q 301 970 284 914 q 250 997 269 973 q 237 1061 229 1023 q 288 1135 246 1108 q 345 1152 314 1152 m 362 1231 l 331 1268 q 307 1289 317 1284 q 284 1295 297 1295 q 233 1267 255 1295 q 199 1190 212 1241 l 134 1190 q 197 1331 153 1281 q 303 1381 241 1381 q 349 1371 328 1381 q 389 1339 368 1362 l 421 1302 q 444 1281 433 1286 q 468 1276 454 1276 q 519 1303 497 1276 q 553 1381 541 1330 l 618 1381 q 555 1239 599 1289 q 449 1190 511 1190 q 403 1199 423 1190 q 362 1231 383 1209 m 291 0 l 305 72 l 434 72 l 602 940 l 474 940 l 488 1013 l 883 1013 l 869 940 l 740 940 l 672 590 l 1197 590 l 1265 940 l 1136 940 l 1150 1013 l 1546 1013 l 1531 940 l 1403 940 l 1234 72 l 1363 72 l 1349 0 l 954 0 l 967 72 l 1097 72 l 1181 507 l 656 507 l 571 72 l 700 72 l 686 0 l 291 0 m 888 -277 l 837 -288 q 739 -171 710 -315 l 756 -83 l 857 -83 l 838 -180 q 862 -234 826 -243 l 898 -225 l 888 -277 "},"∸":{"x_min":147,"x_max":1016,"ha":1163,"o":"m 492 687 q 518 751 492 725 q 582 778 544 778 q 645 751 619 778 q 672 687 672 724 q 645 623 672 649 q 582 597 619 597 q 517 622 543 597 q 492 687 492 648 m 147 491 l 1016 491 l 1016 381 l 147 381 l 147 491 "},"⇶":{"x_min":79,"x_max":1112,"ha":1164,"o":"m 79 945 l 952 945 l 869 1092 l 876 1092 l 1112 893 l 1112 886 l 876 687 l 869 687 l 952 835 l 79 835 l 79 945 m 79 63 l 952 63 l 869 210 l 876 210 l 1112 11 l 1112 4 l 876 -194 l 869 -194 l 952 -47 l 79 -47 l 79 63 m 79 504 l 952 504 l 869 651 l 876 651 l 1112 452 l 1112 445 l 876 246 l 869 246 l 952 394 l 79 394 l 79 504 "},"∕":{"x_min":-110.546875,"x_max":579.828125,"ha":468,"o":"m 471 1013 l 579 1013 l -2 -129 l -110 -129 l 471 1013 "},"Ᾰ":{"x_min":-105.3125,"x_max":932.96875,"ha":1003,"o":"m 438 1287 l 503 1287 q 533 1209 503 1233 q 631 1185 563 1185 q 739 1209 699 1185 q 798 1287 779 1233 l 863 1287 q 774 1141 837 1190 q 612 1092 711 1092 q 470 1140 514 1092 q 438 1287 426 1189 m 252 367 l 623 367 l 531 848 l 252 367 m -105 0 l -91 72 l -2 72 l 540 1013 l 654 1013 l 833 72 l 932 72 l 919 0 l 551 0 l 564 72 l 677 72 l 635 294 l 210 294 l 81 72 l 193 72 l 179 0 l -105 0 "},"∺":{"x_min":147,"x_max":1016,"ha":1163,"o":"m 147 686 q 173 750 147 724 q 237 777 199 777 q 300 750 274 777 q 327 686 327 723 q 300 622 327 648 q 237 596 274 596 q 172 621 198 596 q 147 686 147 647 m 172 120 q 147 184 147 146 q 173 248 147 222 q 237 275 199 275 q 300 248 274 275 q 327 184 327 222 q 300 120 327 146 q 237 94 274 94 q 172 120 198 94 m 836 686 q 862 750 836 724 q 926 777 888 777 q 989 750 963 777 q 1016 686 1016 723 q 989 622 1016 648 q 926 596 963 596 q 861 621 887 596 q 836 686 836 647 m 861 120 q 836 184 836 146 q 862 248 836 222 q 926 275 888 275 q 989 248 963 275 q 1016 184 1016 222 q 989 120 1016 146 q 926 94 963 94 q 861 120 887 94 m 147 490 l 1016 490 l 1016 380 l 147 380 l 147 490 "},"⇿":{"x_min":51.515625,"x_max":1112.5,"ha":1164,"o":"m 788 505 l 788 733 l 829 733 l 1112 453 l 1112 446 l 829 166 l 788 166 l 788 395 l 376 395 l 376 166 l 334 166 l 51 446 l 51 453 l 334 733 l 376 733 l 376 505 l 788 505 m 856 608 l 856 291 l 1016 450 l 856 608 m 308 291 l 308 608 l 147 450 l 308 291 "},"Ϋ":{"x_min":68.5,"x_max":1027.421875,"ha":917,"o":"m 514 1278 q 564 1254 546 1278 q 577 1199 583 1230 q 543 1143 571 1165 q 482 1120 516 1120 q 431 1143 449 1120 q 419 1199 413 1165 q 453 1254 425 1230 q 514 1278 482 1278 m 778 1278 q 828 1254 810 1278 q 841 1199 847 1230 q 807 1143 834 1165 q 747 1120 780 1120 q 695 1143 713 1120 q 683 1199 676 1165 q 717 1254 689 1230 q 778 1278 745 1278 m 164 0 l 177 72 l 307 72 l 378 436 l 163 940 l 68 940 l 82 1013 l 459 1013 l 444 940 l 326 940 l 500 530 l 832 940 l 718 940 l 733 1013 l 1027 1013 l 1013 940 l 917 940 l 518 449 l 444 72 l 573 72 l 560 0 l 164 0 "},"ː":{"x_min":88.15625,"x_max":379.78125,"ha":468,"o":"m 263 0 l 88 0 l 190 182 l 231 182 l 263 0 m 204 603 l 379 603 l 277 421 l 236 421 l 204 603 "},"𝑀":{"x_min":-21.015625,"x_max":1450.609375,"ha":1422,"o":"m -21 0 l -7 72 l 121 72 l 290 940 l 153 940 l 168 1013 l 463 1013 l 678 292 l 1173 1013 l 1450 1013 l 1436 940 l 1301 940 l 1133 72 l 1262 72 l 1248 0 l 852 0 l 866 72 l 994 72 l 1147 854 l 662 149 l 566 149 l 357 854 l 204 72 l 333 72 l 320 0 l -21 0 "},"ö":{"x_min":59,"x_max":776.421875,"ha":836,"o":"m 356 47 q 523 126 457 47 q 620 360 590 206 q 634 486 634 431 q 615 594 634 551 q 478 673 579 673 q 311 594 378 673 q 214 360 244 515 q 201 235 201 290 q 221 126 201 170 q 356 47 257 47 m 343 -20 q 111 83 186 -20 q 59 261 59 156 q 69 360 59 307 q 218 637 102 533 q 491 741 333 741 q 724 637 649 741 q 776 460 776 565 q 766 360 776 413 q 617 84 733 188 q 343 -20 501 -20 m 432 1064 q 484 1040 465 1064 q 496 984 502 1017 q 463 927 489 949 q 401 905 436 905 q 349 927 367 905 q 338 984 331 949 q 372 1040 344 1017 q 432 1064 400 1064 m 697 1064 q 747 1040 728 1064 q 760 984 766 1017 q 726 927 753 949 q 665 905 699 905 q 613 927 631 905 q 602 984 595 949 q 636 1040 608 1017 q 697 1064 664 1064 "},"↲":{"x_min":322.703125,"x_max":824,"ha":1164,"o":"m 482 201 l 612 -27 l 605 -27 l 322 252 l 322 259 l 605 539 l 612 539 l 482 311 l 714 311 l 714 1005 l 824 1005 l 824 201 l 482 201 "},"▥":{"x_min":126,"x_max":1185,"ha":1311,"o":"m 126 -171 l 126 893 l 1185 893 l 1185 -171 l 126 -171 m 990 -92 l 1111 -92 l 1111 814 l 990 814 l 990 -92 m 793 -92 l 912 -92 l 912 814 l 793 814 l 793 -92 m 596 -92 l 716 -92 l 716 814 l 596 814 l 596 -92 m 398 -92 l 519 -92 l 519 814 l 398 814 l 398 -92 m 202 -92 l 321 -92 l 321 814 l 202 814 l 202 -92 "},"╧":{"x_min":-13,"x_max":850,"ha":837,"o":"m -13 220 l -13 337 l 850 337 l 850 220 l -13 220 m -13 453 l -13 570 l 364 570 l 364 1351 l 473 1351 l 473 570 l 850 570 l 850 453 l -13 453 "},"ẉ":{"x_min":77.3125,"x_max":1159.671875,"ha":1189,"o":"m 811 158 q 921 291 901 255 q 1069 648 996 427 l 964 648 l 978 721 l 1159 721 l 1145 648 l 1144 648 q 1009 274 1075 396 q 806 0 912 101 l 702 0 l 628 539 l 345 0 l 246 0 l 158 648 l 77 648 l 91 721 l 277 721 l 353 158 l 648 721 l 735 721 l 811 158 m 430 -130 q 490 -107 458 -107 q 542 -130 523 -107 q 554 -186 560 -153 q 521 -243 547 -221 q 459 -266 494 -266 q 407 -243 425 -266 q 396 -186 389 -221 q 430 -130 402 -153 "},"Ȧ":{"x_min":-105.796875,"x_max":932.484375,"ha":1003,"o":"m 611 1256 q 671 1280 639 1280 q 722 1256 703 1280 q 735 1201 741 1232 q 701 1145 728 1167 q 640 1122 674 1122 q 587 1145 606 1122 q 576 1201 569 1167 q 611 1256 582 1232 m 251 367 l 623 367 l 531 848 l 251 367 m -105 0 l -92 72 l -3 72 l 540 1013 l 654 1013 l 833 72 l 932 72 l 918 0 l 550 0 l 564 72 l 676 72 l 635 294 l 209 294 l 81 72 l 192 72 l 179 0 l -105 0 "},"Ḽ":{"x_min":-21.015625,"x_max":840.25,"ha":922,"o":"m -21 0 l -7 72 l 121 72 l 290 940 l 161 940 l 175 1013 l 571 1013 l 556 940 l 427 940 l 261 83 l 724 83 l 756 253 l 840 253 l 791 0 l -21 0 m 313 -79 l 427 -79 l 536 -334 l 457 -334 l 354 -157 l 182 -333 l 103 -333 l 313 -79 "},"8":{"x_min":40.96875,"x_max":813.703125,"ha":884,"o":"m 602 276 q 581 444 623 384 q 441 505 539 505 q 278 444 343 505 q 191 276 212 384 q 212 107 170 167 q 352 47 254 47 q 515 107 450 47 q 602 276 581 167 m 670 768 q 651 912 688 860 q 530 964 614 964 q 389 912 446 964 q 314 768 332 860 q 333 623 297 675 q 454 572 370 572 q 595 623 538 572 q 670 768 652 675 m 552 538 q 715 453 664 523 q 745 276 766 384 q 612 56 718 133 q 339 -20 507 -20 q 96 56 171 -20 q 48 276 21 133 q 147 453 69 384 q 344 538 225 523 q 202 616 245 557 q 177 768 159 676 q 298 960 200 890 q 543 1031 396 1031 q 761 960 691 1031 q 807 768 831 890 q 723 616 790 676 q 552 538 657 557 "},"⁆":{"x_min":-12.890625,"x_max":542.53125,"ha":542,"o":"m 130 412 l 139 462 l 297 462 l 399 984 l 213 984 l 227 1056 l 542 1056 l 302 -183 l -12 -183 l 0 -111 l 186 -111 l 288 412 l 130 412 "},"ↂ":{"x_min":64,"x_max":1608,"ha":1675,"o":"m 843 187 q 1059 496 1006 221 q 1074 623 1074 568 q 962 804 1074 779 l 843 187 m 829 118 l 819 72 l 946 72 q 1271 184 1143 72 q 1439 507 1398 297 q 1453 635 1453 576 q 1397 828 1453 754 q 1114 940 1313 940 l 988 940 l 975 874 q 1163 773 1099 860 q 1216 596 1216 701 q 1205 496 1216 550 q 1056 219 1172 324 q 829 118 958 131 m 824 804 q 607 496 661 770 q 594 369 594 425 q 705 187 594 213 l 824 804 m 838 874 l 851 939 l 722 939 q 400 828 526 939 q 232 507 273 717 q 219 379 219 437 q 275 183 219 260 q 553 72 358 72 l 682 72 l 691 118 q 504 219 568 131 q 452 397 452 292 q 462 496 452 443 q 611 773 496 669 q 838 874 710 860 m 942 0 l 532 0 q 150 134 271 0 q 64 383 64 231 q 76 507 64 441 q 295 879 123 745 q 729 1013 467 1013 l 1139 1013 q 1521 879 1401 1013 q 1608 632 1608 782 q 1595 507 1608 574 q 1376 134 1549 268 q 942 0 1203 0 "},"ħ":{"x_min":67.4375,"x_max":767.421875,"ha":895,"o":"m 67 0 l 226 821 l 107 821 l 123 904 l 243 904 l 258 984 l 139 984 l 152 1056 l 397 1056 l 367 904 l 582 904 l 565 821 l 351 821 l 307 593 q 418 703 356 666 q 554 741 481 741 q 716 672 673 741 q 743 562 743 631 q 731 458 743 516 l 656 72 l 767 72 l 753 0 l 517 0 l 598 419 q 612 536 612 489 q 601 600 612 577 q 496 649 578 649 q 351 585 409 649 q 270 401 293 522 l 192 0 l 67 0 "},"◉":{"x_min":76,"x_max":1136,"ha":1212,"o":"m 434 63 q 262 361 262 162 q 434 658 262 559 q 605 709 519 709 q 777 658 692 709 q 950 361 950 559 q 777 63 950 162 q 605 13 692 13 q 434 63 519 13 m 381 751 q 155 361 155 621 q 381 -28 155 101 q 605 -94 493 -94 q 830 -28 718 -94 q 1057 361 1057 101 q 830 751 1057 620 q 605 817 718 817 q 381 751 493 817 m 341 -97 q 76 361 76 56 q 341 820 76 666 q 605 897 473 897 q 870 820 738 897 q 1136 361 1136 666 q 870 -97 1136 56 q 605 -174 738 -174 q 341 -97 473 -174 "},"ᶜ":{"x_min":27,"x_max":462.828125,"ha":490,"o":"m 422 574 q 335 475 390 509 q 206 442 280 442 q 59 500 107 442 q 27 599 27 540 q 32 654 27 624 q 127 809 54 751 q 299 868 200 868 q 383 858 342 868 q 462 831 424 849 l 441 728 l 395 728 q 395 738 395 733 q 373 805 395 783 q 291 830 347 830 q 186 786 228 830 q 125 654 144 742 q 117 583 117 614 q 129 523 117 546 q 216 479 150 479 q 301 502 266 479 q 358 574 336 526 l 422 574 "},"ἵ":{"x_min":94.859375,"x_max":626.890625,"ha":545,"o":"m 211 1153 q 261 1135 241 1153 q 283 1061 293 1109 q 245 996 276 1022 q 182 973 217 973 q 224 863 182 915 l 169 843 q 165 847 168 844 q 101 1050 73 941 l 103 1061 q 130 1115 109 1091 q 211 1153 165 1153 m 491 1112 l 626 1112 l 346 857 l 266 857 l 491 1112 m 137 197 l 226 649 l 106 649 l 120 722 l 365 722 l 262 197 q 289 79 244 102 q 418 112 325 62 l 403 30 q 169 34 249 -48 q 137 197 116 88 "},"⥖":{"x_min":79,"x_max":1084.1875,"ha":1164,"o":"m 189 505 l 1084 505 l 1084 395 l 304 395 l 435 166 l 428 166 l 189 403 l 189 183 l 79 183 l 79 716 l 189 716 l 189 505 "},"˙":{"x_min":394.90625,"x_max":556.953125,"ha":694,"o":"m 431 1041 q 491 1065 459 1065 q 543 1041 524 1065 q 555 985 561 1018 q 522 928 548 950 q 460 906 495 906 q 408 928 425 906 q 396 985 389 950 q 431 1041 402 1018 "},"𝛦":{"x_min":-21.015625,"x_max":990.8125,"ha":1014,"o":"m -21 0 l -7 72 l 121 72 l 290 940 l 161 940 l 175 1013 l 990 1013 l 947 787 l 863 787 l 891 929 l 425 929 l 360 590 l 691 590 l 716 716 l 799 716 l 734 380 l 651 380 l 675 507 l 343 507 l 261 83 l 737 83 l 764 225 l 848 225 l 804 0 l -21 0 "},"„":{"x_min":37.984375,"x_max":619.171875,"ha":720,"o":"m 37 -135 q 153 -24 111 -88 q 212 128 195 38 l 217 154 l 351 154 q 258 -45 323 37 q 82 -189 192 -128 l 37 -135 m 305 -135 q 421 -24 379 -88 q 481 128 463 38 l 486 154 l 619 154 q 526 -45 592 37 q 349 -189 461 -128 l 305 -135 "},"ӷ":{"x_min":100,"x_max":683,"ha":702,"o":"m 100 144 q 192 319 100 242 q 341 404 253 370 l 420 434 q 552 577 552 484 q 531 641 552 608 q 446 674 510 674 q 141 504 282 674 l 108 545 q 198 643 145 600 q 280 699 252 685 q 464 741 359 741 q 627 690 572 741 q 683 577 683 640 q 620 423 683 491 q 452 317 557 355 q 314 261 347 279 q 230 141 230 216 q 249 84 230 110 q 346 46 278 46 q 607 178 483 46 l 638 210 l 672 168 q 623 111 659 149 q 600 -12 600 52 q 600 -140 600 -76 q 544 -243 600 -216 q 390 -289 488 -271 l 390 -241 q 473 -205 439 -234 q 508 -113 508 -177 q 534 -31 508 -57 q 561 34 561 -5 q 554 54 561 52 q 318 -20 453 -20 q 157 30 214 -20 q 100 144 100 81 "},"δ":{"x_min":28.09375,"x_max":772.046875,"ha":836,"o":"m 283 703 q 226 753 241 720 q 226 884 207 791 q 318 1017 243 971 q 526 1063 393 1063 q 631 1052 563 1063 q 772 1019 700 1040 l 745 885 l 671 869 q 628 960 671 929 q 522 991 586 991 q 406 957 459 991 q 343 877 350 922 q 351 791 333 813 q 460 741 394 741 q 693 637 618 741 q 735 360 768 533 q 586 84 702 188 q 312 -20 470 -20 q 80 84 155 -20 q 38 360 5 188 q 187 637 71 533 q 283 703 238 682 m 325 47 q 492 126 425 47 q 589 360 559 206 q 583 594 619 515 q 447 673 547 673 q 280 594 347 673 q 183 360 213 515 q 189 126 153 206 q 325 47 225 47 "},"ᶪ":{"x_min":4.0625,"x_max":360.78125,"ha":365,"o":"m 240 493 l 314 493 l 297 413 q 234 315 282 351 q 111 280 185 280 q 54 286 80 280 q 4 305 27 292 l 22 389 l 63 389 q 72 335 57 352 q 121 318 86 318 q 184 341 160 318 q 218 413 207 364 l 227 453 l 153 453 l 273 1004 l 198 1004 l 206 1044 l 360 1044 l 240 493 "},"˞":{"x_min":-9.5,"x_max":563.5625,"ha":580,"o":"m 6 588 l 232 706 l 309 706 l 301 664 q 321 535 284 575 q 415 493 359 493 q 523 523 486 493 l 563 470 q 503 437 526 443 q 404 426 463 426 q 274 488 326 426 q 238 633 229 544 l -9 505 l 6 588 "},"ǥ":{"x_min":48.96875,"x_max":884.28125,"ha":890,"o":"m 691 648 q 617 672 691 672 q 385 570 485 672 q 249 281 286 467 q 242 185 242 226 q 259 114 242 142 q 379 58 292 58 q 539 126 475 58 q 627 325 602 194 l 462 325 l 476 398 l 642 398 l 691 648 m 752 325 l 692 15 q 560 -224 661 -146 q 300 -309 451 -309 q 166 -296 228 -309 q 48 -257 103 -283 l 78 -106 l 143 -106 q 182 -209 143 -176 q 306 -241 221 -241 q 478 -179 415 -241 q 567 15 541 -117 l 586 112 q 473 12 537 44 q 329 -20 409 -20 q 148 60 209 -20 q 110 182 110 111 q 119 272 110 223 q 331 636 166 512 q 637 741 472 741 q 830 721 788 741 l 766 398 l 884 398 l 870 325 l 752 325 "},"‷":{"x_min":124.78125,"x_max":737.84375,"ha":722,"o":"m 330 760 l 271 760 l 124 1013 l 262 1013 l 330 760 m 737 760 l 678 760 l 531 1013 l 669 1013 l 737 760 m 534 760 l 475 760 l 328 1013 l 465 1013 l 534 760 "},"შ":{"x_min":77,"x_max":905,"ha":839,"o":"m 719 315 q 662 194 701 251 q 569 94 623 137 q 447 25 514 50 q 304 0 380 0 q 202 20 245 0 q 131 75 159 40 q 90 156 103 109 q 77 254 77 202 q 93 374 77 316 q 140 484 110 433 q 210 579 169 536 q 299 653 251 622 q 400 701 346 684 q 508 719 453 719 q 564 705 538 719 q 610 670 590 691 q 641 624 629 649 q 655 577 653 599 l 770 988 q 775 1013 775 1002 q 766 1040 775 1029 q 745 1056 758 1050 q 715 1064 732 1062 q 679 1067 697 1067 q 639 1057 655 1067 q 611 1030 623 1048 q 591 985 599 1012 q 572 922 582 958 l 549 840 l 446 840 l 469 922 q 479 967 475 947 q 484 1004 484 987 q 468 1051 484 1036 q 417 1067 452 1067 q 382 1062 401 1067 q 347 1049 364 1058 q 318 1026 331 1040 q 299 993 305 1012 q 288 949 292 967 q 285 918 285 931 q 291 892 285 901 q 309 879 297 884 l 274 827 q 233 850 249 836 q 206 879 216 863 q 192 913 196 895 q 188 947 188 930 q 193 987 188 967 q 229 1066 206 1034 q 283 1117 253 1098 q 345 1144 312 1136 q 408 1153 377 1153 q 508 1112 477 1153 q 540 1001 540 1072 q 582 1061 557 1033 q 637 1110 608 1089 q 696 1141 666 1130 q 753 1153 726 1153 q 815 1147 787 1153 q 863 1126 843 1141 q 894 1086 883 1111 q 905 1023 905 1062 q 883 894 905 971 l 719 315 m 595 377 q 608 435 604 407 q 613 485 613 462 q 577 595 613 558 q 481 633 541 633 q 397 614 433 633 q 333 563 361 596 q 287 484 306 530 q 251 381 267 437 q 229 291 237 333 q 222 215 222 250 q 228 161 222 185 q 249 121 234 138 q 285 96 263 105 q 340 88 308 88 q 419 96 384 88 q 484 135 454 105 q 541 223 515 165 q 595 377 568 280 "},"𝜗":{"x_min":71.203125,"x_max":948.078125,"ha":993,"o":"m 948 564 l 937 506 l 852 506 q 684 133 803 275 q 402 -15 560 -15 q 179 133 248 -15 q 183 648 101 301 l 71 648 l 84 721 l 322 721 q 287 164 249 303 q 414 41 322 41 q 589 164 514 41 q 703 492 656 275 q 462 541 546 492 q 385 811 345 611 q 674 1072 436 1072 q 851 924 797 1072 q 863 564 901 781 l 948 564 m 718 565 q 743 892 760 814 q 665 1016 716 1016 q 509 811 550 1016 q 535 627 484 678 q 718 565 596 565 "},"⇓":{"x_min":298.125,"x_max":864.859375,"ha":1163,"o":"m 864 262 l 864 254 l 584 -28 l 578 -28 l 298 254 l 298 262 l 408 201 l 408 1005 l 518 1005 l 518 141 l 581 106 l 645 141 l 645 1005 l 755 1005 l 755 201 l 864 262 "},"⤞":{"x_min":79,"x_max":1112,"ha":1164,"o":"m 482 165 l 613 394 l 79 394 l 79 404 l 79 493 l 79 504 l 613 504 l 482 732 l 490 732 l 764 459 l 934 628 l 1112 451 l 1112 446 l 934 269 l 764 438 l 490 165 l 482 165 "},"р":{"x_min":60.03125,"x_max":857,"ha":890,"o":"m 318 396 l 304 324 q 294 228 294 271 q 315 125 294 166 q 447 58 352 58 q 606 134 542 58 q 700 360 670 211 q 713 483 713 429 q 694 586 713 545 q 564 663 660 663 q 406 594 469 663 q 318 396 343 525 m 242 648 l 122 648 l 136 721 l 381 721 l 359 607 q 472 708 409 676 q 618 741 535 741 q 814 635 751 741 q 857 469 857 566 q 846 360 857 418 q 708 85 812 191 q 471 -20 604 -20 q 337 12 387 -20 q 263 112 286 44 l 184 -289 l 60 -289 l 242 648 "},"Ö":{"x_min":64.59375,"x_max":1075.171875,"ha":1139,"o":"m 481 53 q 754 167 647 53 q 905 505 861 281 q 886 843 948 729 q 657 958 823 958 q 383 843 491 958 q 233 505 276 729 q 252 167 189 281 q 481 53 314 53 m 467 -20 q 284 13 364 -20 q 151 113 204 47 q 72 286 90 189 q 77 505 54 382 q 157 724 101 627 q 303 897 212 821 q 475 997 383 963 q 672 1031 567 1031 q 999 886 892 1031 q 1061 505 1107 741 q 981 286 1037 383 q 834 113 925 188 q 663 13 755 47 q 467 -20 571 -20 m 613 1278 q 663 1254 645 1278 q 676 1199 682 1230 q 642 1143 670 1165 q 581 1120 615 1120 q 530 1143 548 1120 q 518 1199 512 1165 q 552 1254 524 1230 q 613 1278 581 1278 m 877 1278 q 927 1254 909 1278 q 940 1199 946 1230 q 906 1143 933 1165 q 846 1120 879 1120 q 794 1143 812 1120 q 782 1199 775 1165 q 816 1254 788 1230 q 877 1278 845 1278 "},"⊡":{"x_min":146,"x_max":1017,"ha":1163,"o":"m 146 0 l 146 871 l 1017 871 l 1017 0 l 146 0 m 491 435 q 517 499 491 473 q 581 526 543 526 q 645 499 619 526 q 672 435 672 472 q 645 371 672 397 q 581 345 619 345 q 517 370 543 345 q 491 435 491 396 m 907 110 l 907 761 l 256 761 l 256 110 l 907 110 "},"Θ":{"x_min":64.59375,"x_max":1075.171875,"ha":1139,"o":"m 401 507 l 377 380 l 293 380 l 359 716 l 442 716 l 417 590 l 754 590 l 779 716 l 862 716 l 796 380 l 713 380 l 737 507 l 401 507 m 481 53 q 754 167 647 53 q 905 505 861 281 q 886 843 948 729 q 657 958 823 958 q 383 843 491 958 q 233 505 276 729 q 252 167 189 281 q 481 53 314 53 m 467 -20 q 284 13 364 -20 q 151 113 204 47 q 72 286 90 189 q 77 505 54 382 q 157 724 101 627 q 303 897 212 821 q 475 997 383 963 q 672 1031 567 1031 q 999 886 892 1031 q 1061 505 1107 741 q 981 286 1037 383 q 834 113 925 188 q 663 13 755 47 q 467 -20 571 -20 "},"Ř":{"x_min":-21.015625,"x_max":994.875,"ha":1046,"o":"m 665 503 q 738 459 710 490 q 783 372 767 428 l 871 72 l 994 72 l 981 0 l 742 0 l 646 322 q 587 443 619 416 q 488 471 554 471 l 337 471 l 259 72 l 402 72 l 388 0 l -21 0 l -7 72 l 121 72 l 290 940 l 161 940 l 175 1013 l 689 1013 q 903 942 836 1013 q 945 742 970 871 q 854 578 925 638 q 665 503 783 517 m 351 544 l 551 544 q 711 592 653 544 q 789 742 769 640 q 770 892 809 844 q 627 940 730 940 l 427 940 l 351 544 m 576 1109 l 455 1288 l 533 1288 l 649 1178 l 809 1288 l 887 1288 l 695 1109 l 576 1109 "},"⡅":{"x_min":193,"x_max":417,"ha":1017,"o":"m 193 983 q 224 1063 193 1030 q 304 1096 256 1096 q 384 1063 351 1096 q 417 983 417 1030 q 384 903 417 936 q 304 871 351 871 q 224 903 256 871 q 193 983 193 936 m 193 215 q 224 295 193 262 q 304 328 256 328 q 384 295 351 328 q 417 215 417 262 q 384 135 417 168 q 304 103 351 103 q 224 135 256 103 q 193 215 193 168 m 193 -169 q 224 -89 193 -122 q 304 -57 256 -57 q 384 -89 351 -57 q 417 -169 417 -122 q 384 -249 417 -216 q 304 -282 351 -282 q 224 -249 256 -282 q 193 -169 193 -216 "},"ϙ":{"x_min":84.9375,"x_max":802.828125,"ha":836,"o":"m 383 48 q 549 127 483 48 q 646 361 616 206 q 640 594 676 515 q 504 673 604 673 q 337 594 404 673 q 241 361 271 515 q 247 127 210 206 q 383 48 283 48 m 433 -15 l 379 -289 l 254 -289 l 307 -15 q 136 84 198 1 q 95 361 61 188 q 244 637 128 533 q 518 741 360 741 q 751 637 676 741 q 792 361 826 533 q 643 84 758 188 q 433 -15 549 0 "},"⬐":{"x_min":51.46875,"x_max":1084.4375,"ha":1164,"o":"m 280 349 l 280 692 l 1084 692 l 1084 582 l 390 582 l 390 349 l 618 480 l 618 473 l 338 190 l 331 190 l 51 473 l 51 480 l 280 349 "},"𝑧":{"x_min":-13.5625,"x_max":738.53125,"ha":732,"o":"m 553 661 q 697 721 626 661 l 738 721 l 727 662 l 234 148 q 261 140 241 146 q 307 117 284 132 l 340 97 q 450 59 404 59 q 643 160 539 59 l 627 78 q 423 -35 511 -35 q 294 12 369 -35 q 171 59 219 59 q 27 0 98 59 l -13 0 l -2 58 l 491 571 q 463 580 483 574 q 417 603 440 588 l 384 623 q 274 662 320 662 q 81 560 185 662 l 97 642 q 301 756 213 756 q 430 708 355 756 q 553 661 505 661 "},"ᾝ":{"x_min":86.859375,"x_max":1663.9375,"ha":1643,"o":"m 203 1152 q 253 1134 233 1152 q 275 1060 285 1108 q 237 995 268 1021 q 174 972 209 972 q 216 862 174 914 l 161 842 q 157 846 160 843 q 93 1050 65 940 l 95 1061 q 122 1114 101 1091 q 203 1152 157 1152 m 483 1111 l 618 1111 l 338 856 l 258 856 l 483 1111 m 409 0 l 422 72 l 551 72 l 720 940 l 591 940 l 605 1013 l 1001 1013 l 987 940 l 858 940 l 790 590 l 1315 590 l 1383 940 l 1254 940 l 1268 1013 l 1663 1013 l 1649 940 l 1520 940 l 1351 72 l 1480 72 l 1467 0 l 1071 0 l 1085 72 l 1214 72 l 1299 507 l 774 507 l 689 72 l 818 72 l 804 0 l 409 0 m 1006 -277 l 955 -288 q 856 -171 828 -315 l 873 -83 l 974 -83 l 955 -180 q 980 -234 943 -243 l 1016 -225 l 1006 -277 "},"ṅ":{"x_min":97.4375,"x_max":797.421875,"ha":894,"o":"m 97 0 l 223 649 l 104 649 l 117 722 l 361 722 l 337 593 q 448 703 386 666 q 584 741 511 741 q 747 672 703 741 q 773 562 773 631 q 761 458 773 516 l 686 72 l 797 72 l 783 0 l 547 0 l 628 419 q 642 536 642 489 q 631 601 642 577 q 526 650 608 650 q 381 586 439 650 q 300 401 323 523 l 222 0 l 97 0 m 528 1041 q 588 1065 555 1065 q 639 1041 620 1065 q 652 985 658 1018 q 618 928 645 950 q 557 906 591 906 q 505 928 522 906 q 493 985 486 950 q 528 1041 499 1018 "},"ᶼ":{"x_min":5.421875,"x_max":575.765625,"ha":581,"o":"m 5 453 l 12 485 l 369 816 l 144 816 l 128 746 l 83 746 l 107 857 l 479 857 l 472 824 l 115 493 l 408 493 l 390 413 q 392 341 379 363 q 445 318 406 318 q 501 335 480 318 q 535 389 524 352 l 575 389 l 557 305 q 499 286 528 292 q 438 280 469 280 q 331 315 366 280 q 311 413 297 350 l 320 453 l 5 453 "},"и":{"x_min":94.546875,"x_max":796.5625,"ha":894,"o":"m 671 721 l 796 721 l 670 72 l 788 72 l 774 0 l 532 0 l 556 127 q 445 17 507 55 q 310 -20 383 -20 q 147 48 190 -20 q 121 159 121 89 q 132 262 121 204 l 207 648 l 94 648 l 108 721 l 346 721 l 265 301 q 252 185 252 231 q 262 120 252 143 q 367 72 285 72 q 512 135 454 72 q 593 320 570 199 l 671 721 "},"³":{"x_min":18.3125,"x_max":492.578125,"ha":557,"o":"m 134 995 q 234 1022 187 1013 q 322 1031 282 1031 q 459 994 415 1031 q 489 890 502 957 q 437 807 480 841 q 328 762 395 773 q 440 711 406 751 q 460 603 473 670 q 377 484 444 525 q 200 443 310 443 q 105 452 151 443 q 18 480 60 461 l 40 596 l 87 596 q 109 519 81 545 q 200 493 137 493 q 304 522 263 493 q 355 608 344 552 q 339 703 367 671 q 242 736 311 736 l 206 736 l 216 786 l 234 786 q 338 811 300 786 q 387 886 377 836 q 373 956 396 932 q 299 981 350 981 q 209 959 243 981 q 162 894 175 937 l 115 894 l 134 995 "},"⇀":{"x_min":79,"x_max":1116,"ha":1163,"o":"m 1116 402 l 1116 394 l 79 394 l 79 504 l 905 504 l 774 732 l 781 732 l 1116 402 "},"♬":{"x_min":127.453125,"x_max":1117,"ha":1245,"o":"m 1114 1013 l 1117 1010 l 1117 147 q 939 2 1117 2 q 769 106 781 2 q 927 205 769 205 q 1054 169 1001 205 l 1057 169 l 1057 618 l 472 618 l 472 157 q 305 -7 472 17 l 302 -7 q 127 116 127 -7 q 287 203 127 203 q 415 164 355 203 l 415 1013 l 1114 1013 m 474 873 l 474 767 l 1057 767 l 1057 873 l 474 873 "},"͘":{"x_min":31.40625,"x_max":193.453125,"ha":0,"o":"m 67 1041 q 128 1065 95 1065 q 179 1041 160 1065 q 191 985 198 1018 q 158 928 185 950 q 96 906 131 906 q 44 928 62 906 q 33 985 26 950 q 67 1041 39 1018 "},"⥸":{"x_min":79,"x_max":1112,"ha":1164,"o":"m 147 963 l 147 1079 l 1016 763 l 1016 651 l 147 335 l 147 450 l 850 706 l 147 963 m 79 233 l 952 233 l 821 461 l 828 461 l 1112 181 l 1112 174 l 828 -105 l 821 -105 l 952 123 l 79 123 l 79 233 "},"ᶣ":{"x_min":56.28125,"x_max":497.78125,"ha":554,"o":"m 230 332 l 304 332 l 346 525 q 276 464 316 485 q 191 443 238 443 q 88 480 116 443 q 79 600 61 518 l 126 816 l 56 816 l 65 857 l 214 857 l 163 622 q 162 521 147 548 q 227 494 175 494 q 319 529 282 494 q 370 633 355 565 l 410 816 l 342 816 l 351 857 l 497 857 l 383 332 l 457 332 l 448 292 l 295 292 l 221 292 l 230 332 "},"⢂":{"x_min":193,"x_max":824,"ha":1017,"o":"m 193 599 q 224 679 193 646 q 304 712 256 712 q 384 679 351 712 q 417 599 417 646 q 384 519 417 552 q 304 487 351 487 q 224 519 256 487 q 193 599 193 552 m 600 -169 q 631 -89 600 -122 q 712 -57 663 -57 q 791 -89 758 -57 q 824 -169 824 -122 q 791 -249 824 -216 q 712 -282 758 -282 q 631 -249 663 -282 q 600 -169 600 -216 "},"▱":{"x_min":4.0625,"x_max":1064.046875,"ha":1068,"o":"m 760 182 l 945 541 l 307 541 l 122 182 l 760 182 m 797 105 l 4 105 l 271 618 l 1064 618 l 797 105 "},"˨":{"x_min":95.625,"x_max":630.703125,"ha":685,"o":"m 416 301 l 538 928 l 630 928 l 450 0 l 358 0 l 398 209 l 95 209 l 113 301 l 416 301 "},"︍":{"x_min":0,"x_max":0,"ha":0},"⤶":{"x_min":221,"x_max":932,"ha":1164,"o":"m 932 585 q 856 401 932 477 q 672 326 781 326 l 379 326 l 511 96 l 503 96 l 221 377 l 221 384 l 503 663 l 511 663 l 379 436 l 672 436 q 778 479 735 436 q 822 585 822 523 l 822 874 l 932 874 l 932 585 "},"⣟":{"x_min":193,"x_max":824,"ha":1017,"o":"m 193 983 q 224 1063 193 1030 q 304 1096 256 1096 q 384 1063 351 1096 q 417 983 417 1030 q 384 903 417 936 q 304 871 351 871 q 224 903 256 871 q 193 983 193 936 m 193 599 q 224 679 193 646 q 304 712 256 712 q 384 679 351 712 q 417 599 417 646 q 384 519 417 552 q 304 487 351 487 q 224 519 256 487 q 193 599 193 552 m 193 215 q 224 295 193 262 q 304 328 256 328 q 384 295 351 328 q 417 215 417 262 q 384 135 417 168 q 304 103 351 103 q 224 135 256 103 q 193 215 193 168 m 600 983 q 631 1063 600 1030 q 712 1096 663 1096 q 791 1063 758 1096 q 824 983 824 1030 q 791 903 824 936 q 712 871 758 871 q 631 903 663 871 q 600 983 600 936 m 600 599 q 631 679 600 646 q 712 712 663 712 q 791 679 758 712 q 824 599 824 646 q 791 519 824 552 q 712 487 758 487 q 631 519 663 487 q 600 599 600 552 m 193 -169 q 224 -89 193 -122 q 304 -57 256 -57 q 384 -89 351 -57 q 417 -169 417 -122 q 384 -249 417 -216 q 304 -282 351 -282 q 224 -249 256 -282 q 193 -169 193 -216 m 600 -169 q 631 -89 600 -122 q 712 -57 663 -57 q 791 -89 758 -57 q 824 -169 824 -122 q 791 -249 824 -216 q 712 -282 758 -282 q 631 -249 663 -282 q 600 -169 600 -216 "},"⥄":{"x_min":52,"x_max":1112,"ha":1164,"o":"m 582 742 l 953 742 l 822 970 l 829 970 l 1112 690 l 1112 683 l 829 403 l 822 403 l 953 632 l 582 632 l 582 742 m 1085 267 l 1085 157 l 211 157 l 342 -71 l 334 -71 l 52 208 l 52 215 l 334 495 l 342 495 l 211 267 l 1085 267 "},"ḥ":{"x_min":67.4375,"x_max":767.421875,"ha":895,"o":"m 295 -130 q 356 -107 323 -107 q 407 -130 388 -107 q 420 -186 426 -153 q 386 -243 413 -221 q 325 -266 359 -266 q 272 -243 290 -266 q 261 -186 254 -221 q 295 -130 267 -153 m 67 0 l 258 984 l 139 984 l 152 1056 l 397 1056 l 307 593 q 418 703 356 666 q 554 741 481 741 q 716 672 673 741 q 743 562 743 631 q 731 458 743 516 l 656 72 l 767 72 l 753 0 l 517 0 l 598 419 q 612 536 612 489 q 601 600 612 577 q 496 649 578 649 q 351 585 409 649 q 270 401 293 522 l 192 0 l 67 0 "},"Ἅ":{"x_min":-48.796875,"x_max":989.484375,"ha":1060,"o":"m 204 1152 q 254 1134 234 1152 q 276 1060 286 1108 q 238 995 269 1021 q 175 972 210 972 q 217 862 175 914 l 162 842 q 158 846 161 843 q 94 1050 66 940 l 96 1061 q 123 1114 102 1091 q 204 1152 158 1152 m 484 1111 l 619 1111 l 339 856 l 259 856 l 484 1111 m 308 367 l 680 367 l 588 848 l 308 367 m -48 0 l -35 72 l 53 72 l 597 1013 l 711 1013 l 890 72 l 989 72 l 975 0 l 607 0 l 621 72 l 733 72 l 692 294 l 266 294 l 138 72 l 249 72 l 236 0 l -48 0 "},"Ρ":{"x_min":-21.015625,"x_max":935.078125,"ha":935,"o":"m 345 516 l 524 516 q 689 570 625 516 q 772 728 752 625 q 750 885 792 831 q 606 940 708 940 l 427 940 l 345 516 m -21 0 l -7 72 l 121 72 l 290 940 l 161 940 l 175 1013 l 654 1013 q 880 935 806 1013 q 928 728 954 858 q 799 520 903 597 q 543 443 695 443 l 331 443 l 259 72 l 415 72 l 402 0 l -21 0 "},"ῌ":{"x_min":-21.015625,"x_max":1233.59375,"ha":1211,"o":"m -21 0 l -7 72 l 121 72 l 290 940 l 161 940 l 175 1013 l 571 1013 l 556 940 l 427 940 l 360 590 l 885 590 l 952 940 l 823 940 l 838 1013 l 1233 1013 l 1219 940 l 1090 940 l 921 72 l 1050 72 l 1036 0 l 641 0 l 655 72 l 784 72 l 868 507 l 343 507 l 259 72 l 387 72 l 374 0 l -21 0 m 575 -277 l 524 -288 q 426 -171 398 -315 l 443 -83 l 544 -83 l 525 -180 q 550 -234 513 -243 l 585 -225 l 575 -277 "},"𝑋":{"x_min":-89.515625,"x_max":1034.890625,"ha":989,"o":"m 446 433 l 128 72 l 259 72 l 245 0 l -89 0 l -75 72 l 40 72 l 415 497 l 205 940 l 96 940 l 111 1013 l 512 1013 l 498 940 l 379 940 l 533 614 l 819 940 l 689 940 l 703 1013 l 1034 1013 l 1020 940 l 906 940 l 563 550 l 790 72 l 898 72 l 884 0 l 482 0 l 496 72 l 617 72 l 446 433 "},"⡽":{"x_min":193,"x_max":824,"ha":1017,"o":"m 193 983 q 224 1063 193 1030 q 304 1096 256 1096 q 384 1063 351 1096 q 417 983 417 1030 q 384 903 417 936 q 304 871 351 871 q 224 903 256 871 q 193 983 193 936 m 193 215 q 224 295 193 262 q 304 328 256 328 q 384 295 351 328 q 417 215 417 262 q 384 135 417 168 q 304 103 351 103 q 224 135 256 103 q 193 215 193 168 m 600 983 q 631 1063 600 1030 q 712 1096 663 1096 q 791 1063 758 1096 q 824 983 824 1030 q 791 903 824 936 q 712 871 758 871 q 631 903 663 871 q 600 983 600 936 m 600 599 q 631 679 600 646 q 712 712 663 712 q 791 679 758 712 q 824 599 824 646 q 791 519 824 552 q 712 487 758 487 q 631 519 663 487 q 600 599 600 552 m 600 215 q 631 295 600 262 q 712 328 663 328 q 791 295 758 328 q 824 215 824 262 q 791 135 824 168 q 712 103 758 103 q 631 135 663 103 q 600 215 600 168 m 193 -169 q 224 -89 193 -122 q 304 -57 256 -57 q 384 -89 351 -57 q 417 -169 417 -122 q 384 -249 417 -216 q 304 -282 351 -282 q 224 -249 256 -282 q 193 -169 193 -216 "},"⣥":{"x_min":193,"x_max":824,"ha":1017,"o":"m 193 983 q 224 1063 193 1030 q 304 1096 256 1096 q 384 1063 351 1096 q 417 983 417 1030 q 384 903 417 936 q 304 871 351 871 q 224 903 256 871 q 193 983 193 936 m 193 215 q 224 295 193 262 q 304 328 256 328 q 384 295 351 328 q 417 215 417 262 q 384 135 417 168 q 304 103 351 103 q 224 135 256 103 q 193 215 193 168 m 600 215 q 631 295 600 262 q 712 328 663 328 q 791 295 758 328 q 824 215 824 262 q 791 135 824 168 q 712 103 758 103 q 631 135 663 103 q 600 215 600 168 m 193 -169 q 224 -89 193 -122 q 304 -57 256 -57 q 384 -89 351 -57 q 417 -169 417 -122 q 384 -249 417 -216 q 304 -282 351 -282 q 224 -249 256 -282 q 193 -169 193 -216 m 600 -169 q 631 -89 600 -122 q 712 -57 663 -57 q 791 -89 758 -57 q 824 -169 824 -122 q 791 -249 824 -216 q 712 -282 758 -282 q 631 -249 663 -282 q 600 -169 600 -216 "},"┷":{"x_min":-13,"x_max":850,"ha":837,"o":"m -13 278 l -13 511 l 364 511 l 364 1351 l 473 1351 l 473 511 l 850 511 l 850 278 l -13 278 "},"Ṙ":{"x_min":-21.015625,"x_max":994.875,"ha":1046,"o":"m 609 1256 q 669 1280 637 1280 q 720 1256 701 1280 q 733 1201 739 1232 q 699 1145 726 1167 q 638 1122 672 1122 q 585 1145 604 1122 q 574 1201 567 1167 q 609 1256 580 1232 m 665 503 q 738 459 710 490 q 783 372 767 428 l 871 72 l 994 72 l 981 0 l 742 0 l 646 322 q 587 443 619 416 q 488 471 554 471 l 337 471 l 259 72 l 402 72 l 388 0 l -21 0 l -7 72 l 121 72 l 290 940 l 161 940 l 175 1013 l 689 1013 q 903 942 836 1013 q 945 742 970 871 q 854 578 925 638 q 665 503 783 517 m 351 544 l 551 544 q 711 592 653 544 q 789 742 769 640 q 770 892 809 844 q 627 940 730 940 l 427 940 l 351 544 "},"ª":{"x_min":48.625,"x_max":599.359375,"ha":660,"o":"m 415 513 l 438 634 q 354 551 397 582 q 260 513 309 522 q 218 509 237 509 q 120 554 155 509 q 90 657 90 593 q 96 725 90 689 q 191 919 119 838 q 357 1017 263 999 q 394 1021 377 1021 q 443 1012 421 1021 q 502 956 479 997 l 512 1014 l 598 1014 l 512 573 l 599 573 l 587 513 l 415 513 m 464 767 l 475 825 q 480 865 480 847 q 458 931 480 906 q 395 959 436 959 q 367 956 382 959 q 255 888 301 944 q 192 744 209 832 q 186 681 186 709 q 202 612 186 638 q 267 580 223 580 q 295 582 280 580 q 403 645 357 594 q 464 767 450 697 m 62 434 l 535 434 l 522 363 l 48 363 l 62 434 "},"Ἓ":{"x_min":84.859375,"x_max":1471.375,"ha":1495,"o":"m 201 1152 q 251 1134 231 1152 q 273 1060 283 1108 q 235 995 266 1021 q 172 972 207 972 q 214 863 172 914 l 159 842 q 155 846 158 844 q 91 1050 63 940 l 93 1061 q 120 1114 99 1091 q 201 1152 155 1152 m 452 1110 l 578 855 l 499 855 l 319 1110 l 452 1110 m 459 0 l 473 72 l 601 72 l 770 940 l 641 940 l 656 1013 l 1471 1013 l 1427 787 l 1344 787 l 1371 929 l 906 929 l 840 590 l 1172 590 l 1196 716 l 1280 716 l 1215 380 l 1131 380 l 1156 507 l 824 507 l 742 83 l 1218 83 l 1245 225 l 1328 225 l 1285 0 l 459 0 "},"š":{"x_min":15.09375,"x_max":726.578125,"ha":712,"o":"m 47 208 l 119 208 q 117 170 117 188 q 284 47 117 47 q 476 170 452 47 q 479 204 479 182 q 455 251 479 225 q 336 309 432 276 l 251 340 q 136 408 164 370 q 108 491 108 446 q 111 529 108 508 q 214 684 131 628 q 418 741 297 741 q 664 682 538 741 l 634 525 l 562 525 q 565 554 565 540 q 530 638 565 603 q 417 673 496 673 q 236 562 258 673 q 234 530 234 550 q 255 485 234 509 q 363 433 277 461 l 456 402 q 588 322 552 370 q 614 255 614 288 q 500 39 614 113 q 273 -20 410 -20 q 15 39 136 -20 l 47 208 m 403 856 l 294 1111 l 372 1111 l 475 934 l 647 1111 l 726 1111 l 516 856 l 403 856 "},"┭":{"x_min":-13,"x_max":850.75,"ha":837,"o":"m 364 -419 l 364 278 l -13 278 l -13 511 l 473 511 l 473 453 l 850 453 l 850 336 l 473 336 l 473 -419 l 364 -419 "},"┉":{"x_min":-13,"x_max":851,"ha":837,"o":"m -13 278 l -13 511 l 115 511 l 115 278 l -13 278 m 237 278 l 237 511 l 358 511 l 358 278 l 237 278 m 480 278 l 480 511 l 601 511 l 601 278 l 480 278 m 723 278 l 723 511 l 851 511 l 851 278 l 723 278 "},"ჟ":{"x_min":-53,"x_max":826.34375,"ha":820,"o":"m 626 26 q 558 -129 600 -64 q 461 -234 515 -193 q 342 -294 406 -275 q 210 -313 279 -313 q 104 -298 153 -313 q 21 -259 56 -284 q -33 -199 -13 -234 q -53 -124 -53 -165 q -46 -76 -53 -100 q -10 7 -32 -27 q 44 65 12 42 q 119 102 76 89 q 218 123 162 116 l 218 79 q 175 44 193 61 q 144 7 157 27 q 121 -36 131 -12 q 103 -91 112 -60 q 96 -121 98 -107 q 94 -146 94 -134 q 101 -181 94 -166 q 124 -207 108 -197 q 168 -223 141 -218 q 234 -229 195 -229 q 319 -214 281 -229 q 385 -172 357 -199 q 435 -106 414 -145 q 470 -17 456 -67 l 649 616 q 586 596 620 604 q 516 583 552 588 q 444 578 481 578 q 374 578 408 578 q 326 578 349 578 q 283 578 303 578 q 331 566 304 573 q 379 545 357 559 q 417 509 402 531 q 433 453 433 487 q 424 400 433 430 q 397 333 414 366 q 351 276 379 301 q 283 237 323 252 q 188 223 243 223 q 126 231 154 223 q 74 253 98 239 l 123 429 q 147 381 135 405 q 174 337 160 357 q 202 306 188 318 q 233 294 217 294 q 291 308 266 294 q 332 343 316 322 q 356 389 348 364 q 364 434 364 413 q 332 498 364 473 q 235 524 300 524 q 152 506 199 524 l 194 659 q 270 639 227 645 q 361 634 312 634 q 443 637 399 634 q 529 647 486 641 q 612 663 572 654 q 683 684 652 672 q 735 708 715 695 q 759 737 755 722 l 826 737 l 626 26 "},"⁪":{"x_min":0,"x_max":0,"ha":0},"ნ":{"x_min":66,"x_max":915.1875,"ha":828,"o":"m 747 379 q 674 217 721 288 q 569 98 628 146 q 441 25 510 50 q 303 0 373 0 q 204 12 248 0 q 129 50 160 25 q 82 113 99 76 q 66 201 66 151 q 82 311 66 252 l 251 909 q 297 1020 270 974 q 360 1096 324 1067 q 441 1140 397 1126 q 540 1154 486 1154 q 605 1145 579 1154 q 650 1127 630 1136 q 686 1108 670 1117 q 723 1100 703 1100 q 813 1119 770 1100 q 904 1168 856 1139 l 915 1148 q 867 1094 893 1122 q 811 1042 840 1066 q 751 1004 782 1019 q 692 989 721 989 q 654 995 670 989 q 624 1012 638 1002 q 599 1035 611 1022 q 574 1057 586 1047 q 548 1074 562 1067 q 519 1081 535 1081 q 477 1073 496 1081 q 443 1049 458 1066 q 415 1005 428 1032 q 391 936 402 977 l 298 610 q 358 657 325 636 q 423 692 390 678 q 485 714 456 706 q 534 722 515 722 q 627 708 584 722 q 700 668 669 695 q 748 600 731 641 q 766 504 766 559 q 747 379 766 447 m 570 306 l 591 378 q 608 454 603 420 q 614 516 614 488 q 586 607 614 578 q 506 636 559 636 q 426 620 467 636 q 349 571 386 605 q 282 483 313 537 q 229 351 251 429 q 208 260 215 299 q 201 193 201 222 q 210 139 201 160 q 236 107 219 119 q 277 92 253 96 q 333 88 302 88 q 410 102 373 88 q 477 143 446 116 q 531 212 508 171 q 570 306 555 253 "},"Ƕ":{"x_min":-18.984375,"x_max":1584.875,"ha":1603,"o":"m 850 402 l 870 507 l 345 507 l 261 72 l 389 72 l 376 0 l -18 0 l -5 72 l 123 72 l 292 940 l 163 940 l 177 1013 l 573 1013 l 558 940 l 429 940 l 362 590 l 887 590 l 954 940 l 826 940 l 840 1013 l 1235 1013 l 1221 940 l 1092 940 l 990 416 q 1001 145 952 222 q 1138 69 1050 69 q 1298 145 1236 69 q 1401 416 1363 225 l 1445 648 l 1327 648 l 1342 721 l 1584 721 l 1523 402 q 1369 76 1478 171 q 1127 -20 1263 -20 q 878 76 950 -20 q 850 402 805 172 "},"1":{"x_min":96.984375,"x_max":610.359375,"ha":884,"o":"m 96 0 l 111 72 l 287 72 l 450 914 l 221 782 l 238 871 l 516 1031 l 610 1031 l 423 72 l 600 72 l 585 0 l 96 0 "},"ҍ":{"x_min":48.53125,"x_max":662,"ha":757,"o":"m 219 154 q 241 84 219 122 q 341 47 263 47 q 472 98 419 47 q 546 244 526 149 q 552 302 552 269 q 527 374 552 335 q 427 414 502 414 q 299 373 352 414 q 238 283 246 332 l 223 210 q 219 154 219 185 m 48 649 l 62 721 l 197 721 l 248 984 l 129 984 l 142 1055 l 387 1055 l 322 721 l 458 721 l 444 649 l 308 649 l 262 409 q 437 483 352 483 q 623 423 585 483 q 662 298 662 364 q 654 229 662 265 q 553 46 632 113 q 336 -20 474 -20 q 150 41 205 -20 q 96 172 96 103 q 100 215 96 194 l 183 649 l 48 649 "},"⟻":{"x_min":51.65625,"x_max":1912,"ha":1991,"o":"m 1802 505 l 1802 716 l 1912 716 l 1912 183 l 1802 183 l 1802 395 l 211 395 l 341 166 l 334 166 l 51 446 l 51 453 l 334 733 l 341 733 l 211 505 l 1802 505 "},"ᵈ":{"x_min":43,"x_max":551.28125,"ha":555,"o":"m 551 1044 l 421 453 l 343 453 l 357 515 q 286 459 325 477 q 193 442 246 442 q 69 500 110 442 q 43 594 43 539 q 49 654 43 622 q 136 808 70 749 q 286 868 202 868 q 371 849 339 868 q 417 793 402 831 l 463 1004 l 389 1004 l 398 1044 l 551 1044 m 383 634 l 391 674 q 398 728 398 704 q 384 785 398 762 q 301 824 361 824 q 200 781 241 824 q 142 654 160 739 q 134 586 134 616 q 145 527 134 551 q 227 485 167 485 q 327 523 287 485 q 383 634 366 561 "},"ɩ":{"x_min":106.46875,"x_max":364.171875,"ha":545,"o":"m 145 238 l 225 649 l 106 649 l 120 722 l 364 722 l 270 238 q 273 108 252 149 q 357 67 295 67 l 344 0 q 174 63 228 0 q 145 238 122 124 "},"ǒ":{"x_min":59,"x_max":784.5625,"ha":836,"o":"m 356 47 q 523 126 457 47 q 620 360 590 206 q 634 486 634 431 q 615 594 634 551 q 478 673 579 673 q 311 594 378 673 q 214 360 244 515 q 201 235 201 290 q 221 126 201 170 q 356 47 257 47 m 343 -20 q 111 83 186 -20 q 59 261 59 156 q 69 360 59 307 q 218 637 102 533 q 491 741 333 741 q 724 637 649 741 q 776 460 776 565 q 766 360 776 413 q 617 84 733 188 q 343 -20 501 -20 m 461 856 l 351 1111 l 430 1111 l 533 934 l 705 1111 l 784 1111 l 575 856 l 461 856 "},"⥯":{"x_min":162.46875,"x_max":1000.546875,"ha":1163,"o":"m 670 1038 l 1000 703 l 1000 695 l 772 826 l 772 0 l 662 0 l 662 1038 l 670 1038 m 492 -32 l 162 302 l 162 310 l 391 179 l 391 1006 l 501 1006 l 501 -32 l 492 -32 "},"⠛":{"x_min":193,"x_max":824,"ha":1017,"o":"m 193 984 q 224 1064 193 1031 q 304 1097 256 1097 q 384 1064 351 1097 q 417 984 417 1031 q 384 904 417 937 q 304 872 351 872 q 224 904 256 872 q 193 984 193 937 m 193 599 q 224 679 193 646 q 304 712 256 712 q 384 679 351 712 q 417 599 417 646 q 384 519 417 552 q 304 487 351 487 q 224 519 256 487 q 193 599 193 552 m 600 984 q 631 1064 600 1031 q 712 1097 663 1097 q 791 1064 758 1097 q 824 984 824 1031 q 791 904 824 937 q 712 872 758 872 q 631 904 663 872 q 600 984 600 937 m 600 599 q 631 679 600 646 q 712 712 663 712 q 791 679 758 712 q 824 599 824 646 q 791 519 824 552 q 712 487 758 487 q 631 519 663 487 q 600 599 600 552 "},"ӡ":{"x_min":-15.59375,"x_max":779.21875,"ha":784,"o":"m 374 286 l 309 286 l 323 355 l 604 648 l 246 648 l 222 523 l 150 523 l 189 721 l 779 721 l 767 662 l 453 334 l 506 329 q 680 228 627 310 q 708 16 733 146 q 564 -226 677 -142 q 274 -311 453 -311 q 124 -291 195 -311 q -15 -233 51 -272 l 27 -14 l 103 -14 q 136 -179 88 -123 q 292 -236 185 -236 q 469 -168 396 -236 q 564 15 541 -101 q 542 218 590 148 q 374 286 493 286 "},"ḽ":{"x_min":-162.078125,"x_max":387.90625,"ha":444,"o":"m 196 72 l 314 72 l 301 0 l 58 0 l 249 984 l 129 984 l 143 1056 l 387 1056 l 196 72 m 47 -79 l 161 -79 l 270 -333 l 191 -333 l 88 -157 l -83 -333 l -162 -333 l 47 -79 "},"ī":{"x_min":74.59375,"x_max":499.125,"ha":444,"o":"m 93 1035 l 499 1035 l 480 935 l 74 935 l 93 1035 m 238 72 l 356 72 l 342 0 l 99 0 l 225 649 l 106 649 l 120 722 l 364 722 l 238 72 "},"∐":{"x_min":36,"x_max":1068,"ha":1105,"o":"m 1068 -267 l 36 -267 l 36 -217 l 166 -217 l 166 949 l 36 949 l 36 999 l 440 999 l 440 949 l 310 949 l 310 -217 l 794 -217 l 794 949 l 664 949 l 664 999 l 1068 999 l 1068 949 l 938 949 l 938 -217 l 1068 -217 l 1068 -267 "},"̢":{"x_min":-542,"x_max":-116.640625,"ha":0,"o":"m -505 86 l -379 86 l -410 -71 q -406 -199 -427 -159 q -323 -241 -385 -241 q -233 -211 -267 -241 q -181 -116 -198 -180 l -116 -116 l -145 -264 q -238 -297 -191 -286 q -334 -309 -285 -309 q -503 -245 -450 -309 q -535 -70 -557 -182 l -505 86 "},"⣬":{"x_min":193,"x_max":824,"ha":1017,"o":"m 193 215 q 224 295 193 262 q 304 328 256 328 q 384 295 351 328 q 417 215 417 262 q 384 135 417 168 q 304 103 351 103 q 224 135 256 103 q 193 215 193 168 m 600 983 q 631 1063 600 1030 q 712 1096 663 1096 q 791 1063 758 1096 q 824 983 824 1030 q 791 903 824 936 q 712 871 758 871 q 631 903 663 871 q 600 983 600 936 m 600 215 q 631 295 600 262 q 712 328 663 328 q 791 295 758 328 q 824 215 824 262 q 791 135 824 168 q 712 103 758 103 q 631 135 663 103 q 600 215 600 168 m 193 -169 q 224 -89 193 -122 q 304 -57 256 -57 q 384 -89 351 -57 q 417 -169 417 -122 q 384 -249 417 -216 q 304 -282 351 -282 q 224 -249 256 -282 q 193 -169 193 -216 m 600 -169 q 631 -89 600 -122 q 712 -57 663 -57 q 791 -89 758 -57 q 824 -169 824 -122 q 791 -249 824 -216 q 712 -282 758 -282 q 631 -249 663 -282 q 600 -169 600 -216 "},"ӹ":{"x_min":94.796875,"x_max":1033.796875,"ha":1131,"o":"m 94 648 l 109 721 l 352 721 l 292 409 q 467 483 382 483 q 653 424 615 483 q 692 298 692 365 q 684 229 692 266 q 583 47 662 114 q 366 -20 504 -20 q 180 41 235 -20 q 126 173 126 103 q 130 215 126 194 l 213 648 l 94 648 m 249 154 q 271 84 249 122 q 371 47 293 47 q 503 100 449 47 q 576 244 556 149 q 582 302 582 269 q 557 374 582 335 q 457 414 532 414 q 329 373 382 414 q 268 283 276 332 l 253 210 q 249 154 249 185 m 769 0 l 909 721 l 1033 721 l 907 72 l 1025 72 l 1012 0 l 769 0 m 520 1064 q 571 1040 552 1064 q 583 984 589 1017 q 550 927 577 949 q 488 905 523 905 q 437 927 454 905 q 425 984 418 949 q 460 1040 431 1017 q 520 1064 488 1064 m 784 1064 q 835 1040 816 1064 q 847 984 854 1017 q 814 927 841 949 q 753 905 787 905 q 701 927 719 905 q 689 984 683 949 q 724 1040 696 1017 q 784 1064 752 1064 "},"ʲ":{"x_min":-35.9375,"x_max":360.875,"ha":367,"o":"m 273 953 q 264 983 261 966 q 284 1014 267 1001 q 321 1027 301 1027 q 351 1014 340 1027 q 360 983 363 1001 q 341 953 356 966 q 304 941 324 941 q 273 953 284 941 m 251 817 l 178 817 l 185 858 l 336 858 l 250 415 q 190 317 238 352 q 70 281 142 281 q 14 287 40 281 q -35 306 -12 293 l -19 390 l 20 390 q 30 336 16 353 q 80 319 45 319 q 141 342 118 319 q 172 414 163 365 l 251 817 "},"⤛":{"x_min":79,"x_max":1088.8125,"ha":1163,"o":"m 709 394 l 862 243 l 784 165 l 554 394 l 79 394 l 79 504 l 554 504 l 784 732 l 862 654 l 709 504 l 780 504 l 1011 732 l 1088 654 l 884 452 l 884 445 l 1088 243 l 1011 165 l 780 394 l 709 394 "},"ˣ":{"x_min":2.71875,"x_max":480.828125,"ha":493,"o":"m 55 453 l 2 453 l 202 647 l 101 816 l 46 816 l 54 857 l 170 857 l 264 699 l 427 857 l 480 857 l 284 666 l 387 493 l 447 493 l 438 453 l 319 453 l 223 613 l 55 453 "},"ŏ":{"x_min":59,"x_max":776.421875,"ha":836,"o":"m 347 1091 l 412 1091 q 442 1013 412 1037 q 540 989 472 989 q 648 1013 608 989 q 707 1091 688 1037 l 772 1091 q 683 944 746 993 q 522 896 620 896 q 379 944 423 896 q 347 1091 335 993 m 356 47 q 523 126 457 47 q 620 360 590 206 q 634 486 634 431 q 615 594 634 551 q 478 673 579 673 q 311 594 378 673 q 214 360 244 515 q 201 235 201 290 q 221 126 201 170 q 356 47 257 47 m 343 -20 q 111 83 186 -20 q 59 261 59 156 q 69 360 59 307 q 218 637 102 533 q 491 741 333 741 q 724 637 649 741 q 776 460 776 565 q 766 360 776 413 q 617 84 733 188 q 343 -20 501 -20 "},"ý":{"x_min":-51.53125,"x_max":798.90625,"ha":785,"o":"m 798 715 q 613 121 731 326 q 301 -268 440 -178 q 77 -309 240 -309 q 13 -303 45 -309 q -51 -287 -18 -298 l -24 -150 l 39 -150 q 38 -171 38 -160 q 50 -215 38 -199 q 111 -239 67 -239 q 334 -135 230 -239 l 164 648 l 82 648 l 96 721 l 282 721 l 442 5 q 578 235 552 168 q 680 642 663 446 l 598 642 l 613 715 l 798 715 m 628 1111 l 762 1111 l 482 856 l 402 856 l 628 1111 "},"╝":{"x_min":-13.546875,"x_max":581,"ha":837,"o":"m -13 453 l -13 570 l 255 570 l 255 1351 l 364 1351 l 364 453 l -13 453 m -13 220 l -13 337 l 472 337 l 472 1352 l 581 1352 l 581 220 l -13 220 "},"∇":{"x_min":34.59375,"x_max":926.375,"ha":970,"o":"m 729 902 l 161 902 l 445 163 l 729 902 m 34 1013 l 926 1013 l 539 0 l 422 0 l 34 1013 "},"꜒":{"x_min":54.9375,"x_max":630.703125,"ha":685,"o":"m 147 0 l 54 0 l 235 928 l 630 928 l 613 836 l 309 836 l 147 0 "},"ⱽ":{"x_min":38.65625,"x_max":699.875,"ha":631,"o":"m 200 980 l 303 544 l 577 980 l 505 980 l 512 1021 l 699 1021 l 692 980 l 630 980 l 300 453 l 226 453 l 102 980 l 38 980 l 46 1021 l 278 1021 l 271 980 l 200 980 "},"Ί":{"x_min":100.375,"x_max":802.28125,"ha":781,"o":"m 490 72 l 619 72 l 605 0 l 210 0 l 223 72 l 352 72 l 521 940 l 392 940 l 406 1013 l 802 1013 l 788 940 l 659 940 l 490 72 m 325 1112 l 460 1112 l 179 856 l 100 856 l 325 1112 "},"ӛ":{"x_min":60.59375,"x_max":762.875,"ha":822,"o":"m 423 1064 q 474 1040 455 1064 q 486 984 493 1017 q 453 927 480 949 q 391 905 426 905 q 340 927 358 905 q 328 984 322 949 q 363 1040 335 1017 q 423 1064 391 1064 m 687 1064 q 738 1040 719 1064 q 750 984 756 1017 q 717 927 743 949 q 656 905 690 905 q 604 927 621 905 q 592 984 585 949 q 627 1040 598 1017 q 687 1064 655 1064 m 71 374 l 609 374 l 610 379 q 598 599 638 524 q 450 673 558 673 q 307 630 368 673 q 209 502 246 587 l 109 502 q 253 681 162 621 q 476 741 345 741 q 710 636 634 741 q 752 360 786 532 q 604 84 719 189 q 337 -20 490 -20 q 105 81 173 -20 q 71 374 37 181 m 204 302 q 221 111 184 175 q 349 47 257 47 q 498 111 436 47 q 595 302 560 176 l 204 302 "},"⤻":{"x_min":70.421875,"x_max":1087,"ha":1164,"o":"m 934 548 l 680 617 l 685 624 l 1083 624 l 1087 620 l 1087 222 l 1080 216 l 1011 471 q 877 366 950 409 q 717 299 804 323 q 541 276 631 276 q 364 299 450 276 q 204 366 277 323 q 70 471 131 409 l 147 548 q 260 461 199 497 q 393 406 321 426 q 541 386 465 386 q 688 406 617 386 q 821 461 760 426 q 934 548 882 497 "},"╄":{"x_min":-13.8125,"x_max":850,"ha":837,"o":"m 363 -419 l 363 278 l 309 278 l 309 336 l -13 336 l -13 453 l 309 453 l 309 1352 l 526 1352 l 526 511 l 850 511 l 850 278 l 472 278 l 472 -419 l 363 -419 "},"ἒ":{"x_min":31.734375,"x_max":692.046875,"ha":745,"o":"m 560 1110 l 686 855 l 607 855 l 426 1110 l 560 1110 m 315 1152 q 381 1115 361 1152 q 388 1061 393 1091 l 386 1050 q 242 846 370 940 q 237 842 238 844 l 190 863 q 272 971 254 914 q 220 997 239 973 q 207 1061 200 1023 q 258 1135 216 1109 q 315 1152 285 1152 m 692 685 l 665 551 l 591 534 q 548 626 591 595 q 442 657 506 657 q 326 623 379 657 q 263 543 272 589 q 302 449 251 483 q 443 414 352 414 l 475 414 l 462 343 l 399 343 q 241 299 308 343 q 158 181 172 255 q 196 81 147 124 q 321 38 246 38 q 464 74 400 38 q 548 179 528 110 l 618 162 l 591 22 q 439 -13 515 -1 q 312 -26 364 -26 q 96 27 178 -26 q 35 182 15 81 q 131 341 55 289 q 274 381 171 368 l 179 435 q 146 549 129 463 q 238 683 163 637 q 446 729 313 729 q 551 718 483 729 q 692 685 620 706 "}," ":{"x_min":0,"x_max":0,"ha":347},"⥿":{"x_min":162,"x_max":1002,"ha":1164,"o":"m 1002 319 q 932 150 1002 220 q 764 81 862 81 q 596 150 666 81 q 582 166 588 158 q 567 150 575 158 q 399 81 497 81 q 231 150 301 81 q 162 319 162 220 l 272 319 q 309 228 272 265 q 399 191 346 191 q 489 228 452 191 q 527 319 527 265 l 527 794 l 637 794 l 637 319 q 674 228 637 265 q 764 191 711 191 q 854 228 817 191 q 892 319 892 265 l 1002 319 "},"⢣":{"x_min":193,"x_max":824,"ha":1017,"o":"m 193 983 q 224 1063 193 1030 q 304 1096 256 1096 q 384 1063 351 1096 q 417 983 417 1030 q 384 903 417 936 q 304 871 351 871 q 224 903 256 871 q 193 983 193 936 m 193 599 q 224 679 193 646 q 304 712 256 712 q 384 679 351 712 q 417 599 417 646 q 384 519 417 552 q 304 487 351 487 q 224 519 256 487 q 193 599 193 552 m 600 215 q 631 295 600 262 q 712 328 663 328 q 791 295 758 328 q 824 215 824 262 q 791 135 824 168 q 712 103 758 103 q 631 135 663 103 q 600 215 600 168 m 600 -169 q 631 -89 600 -122 q 712 -57 663 -57 q 791 -89 758 -57 q 824 -169 824 -122 q 791 -249 824 -216 q 712 -282 758 -282 q 631 -249 663 -282 q 600 -169 600 -216 "},"‴":{"x_min":2.71875,"x_max":713.4375,"ha":722,"o":"m 206 760 l 372 1013 l 509 1013 l 265 760 l 206 760 m 2 760 l 168 1013 l 306 1013 l 61 760 l 2 760 m 409 760 l 575 1013 l 713 1013 l 468 760 l 409 760 "},"ἑ":{"x_min":32.21875,"x_max":692.046875,"ha":745,"o":"m 474 1153 q 524 1135 504 1153 q 546 1061 556 1109 q 508 996 539 1022 q 445 973 480 973 q 486 863 445 915 l 432 843 q 428 847 431 844 q 364 1051 336 941 l 366 1061 q 393 1115 372 1091 q 474 1153 428 1153 m 692 685 l 665 551 l 591 534 q 548 626 591 595 q 443 657 506 657 q 327 623 380 657 q 263 543 272 589 q 302 449 252 483 q 443 414 353 414 l 476 414 l 462 343 l 400 343 q 241 299 309 343 q 158 181 173 255 q 197 81 147 124 q 322 38 246 38 q 464 74 400 38 q 549 179 528 110 l 618 162 l 591 22 q 439 -13 515 -1 q 312 -26 364 -26 q 97 27 179 -26 q 36 182 16 81 q 132 341 56 289 q 275 381 172 368 l 179 435 q 146 549 129 463 q 238 683 163 637 q 446 729 313 729 q 551 718 483 729 q 692 685 620 706 "},"ᴝ":{"x_min":151.234375,"x_max":1028.78125,"ha":1023,"o":"m 239 426 l 284 659 l 933 659 l 956 777 l 1028 777 l 981 534 l 853 534 q 946 444 918 499 q 958 317 973 389 q 856 140 935 196 q 631 84 777 84 l 245 84 l 223 -28 l 151 -28 l 197 209 l 617 209 q 803 241 748 209 q 874 356 858 274 q 836 489 891 443 q 660 534 781 534 l 332 534 l 311 426 l 239 426 "},"Ь":{"x_min":-21.859375,"x_max":853,"ha":936,"o":"m 258 72 l 437 72 q 600 124 533 72 q 689 293 667 177 q 697 361 697 330 q 665 460 697 424 q 524 513 620 513 l 344 513 l 258 72 m 845 295 q 423 0 787 0 l -21 0 l -8 72 l 120 72 l 289 940 l 160 940 l 174 1013 l 570 1013 l 555 940 l 427 940 l 360 596 l 509 596 q 815 487 743 596 q 853 367 853 441 q 845 295 853 333 "},"ƽ":{"x_min":-15.59375,"x_max":773.796875,"ha":784,"o":"m 387 356 l 508 341 q 682 240 630 322 q 708 16 735 158 q 564 -226 677 -142 q 274 -311 453 -311 q 124 -291 195 -311 q -15 -233 51 -272 l 27 -14 l 103 -14 q 136 -179 88 -123 q 292 -236 185 -236 q 469 -168 396 -236 q 564 15 541 -101 q 542 218 590 149 q 374 287 493 287 l 162 287 l 233 650 l 113 650 l 127 721 l 773 721 l 738 540 l 667 540 l 686 637 l 356 637 l 301 356 l 387 356 "},"↢":{"x_min":52,"x_max":1089.8125,"ha":1164,"o":"m 781 504 l 1012 732 l 1089 654 l 885 452 l 885 445 l 1089 243 l 1012 165 l 781 394 l 211 394 l 342 165 l 334 165 l 52 445 l 52 452 l 334 732 l 342 732 l 211 504 l 781 504 "},"̅":{"x_min":-694,"x_max":0,"ha":0,"o":"m 0 1049 l 0 995 l -694 995 l -694 1049 l 0 1049 "},"̸":{"x_min":-1165.09375,"x_max":28.484375,"ha":0,"o":"m -1121 -38 l -1165 8 l -16 1051 l 28 1003 l -1121 -38 "},"ᾯ":{"x_min":134.640625,"x_max":1280.53125,"ha":1347,"o":"m 342 1152 q 392 1134 372 1152 q 414 1060 424 1108 q 376 995 407 1021 q 313 972 348 972 q 355 863 313 914 l 300 842 q 296 846 299 844 q 232 1050 204 940 l 234 1061 q 261 1114 240 1091 q 342 1152 296 1152 m 363 1231 l 331 1268 q 307 1289 317 1284 q 284 1295 297 1295 q 234 1267 256 1295 q 199 1190 212 1241 l 134 1190 q 197 1331 153 1281 q 303 1381 241 1381 q 349 1371 329 1381 q 390 1339 369 1362 l 421 1302 q 444 1281 433 1286 q 468 1276 454 1276 q 519 1303 498 1276 q 553 1381 541 1330 l 618 1381 q 555 1239 599 1289 q 449 1190 511 1190 q 403 1199 424 1190 q 363 1231 384 1209 m 876 111 l 1104 111 l 1122 203 l 1202 203 l 1162 0 l 760 0 l 785 123 q 999 276 915 170 q 1113 539 1082 381 q 1079 843 1149 728 q 858 959 1008 959 q 592 843 707 959 q 440 539 477 728 q 451 275 409 381 q 605 123 493 170 l 581 0 l 181 0 l 221 203 l 300 203 l 282 111 l 508 111 q 319 289 378 170 q 287 554 259 409 q 363 746 307 657 q 508 904 420 835 q 680 999 587 966 q 872 1032 774 1032 q 1050 999 970 1032 q 1185 904 1130 967 q 1268 745 1246 835 q 1271 554 1290 656 q 1136 289 1243 409 q 876 111 1030 170 m 744 -277 l 694 -288 q 595 -171 567 -315 l 612 -83 l 713 -83 l 694 -180 q 719 -234 682 -243 l 755 -225 l 744 -277 "},"⢈":{"x_min":600,"x_max":824,"ha":1017,"o":"m 600 983 q 631 1063 600 1030 q 712 1096 663 1096 q 791 1063 758 1096 q 824 983 824 1030 q 791 903 824 936 q 712 871 758 871 q 631 903 663 871 q 600 983 600 936 m 600 -169 q 631 -89 600 -122 q 712 -57 663 -57 q 791 -89 758 -57 q 824 -169 824 -122 q 791 -249 824 -216 q 712 -282 758 -282 q 631 -249 663 -282 q 600 -169 600 -216 "},"¤":{"x_min":70.59375,"x_max":816.765625,"ha":884,"o":"m 611 668 l 753 808 l 816 745 l 675 603 q 718 521 704 562 q 732 435 732 479 q 718 348 732 388 q 673 269 704 308 l 814 129 l 748 65 l 609 204 q 530 160 570 174 q 443 146 490 146 q 357 159 399 146 q 273 201 314 173 l 135 62 l 70 126 l 209 266 q 167 350 181 308 q 154 435 154 391 q 168 522 154 482 q 212 602 182 563 l 71 742 l 136 806 l 276 665 q 355 709 314 695 q 443 724 396 724 q 529 710 488 724 q 611 668 570 696 m 626 436 q 573 564 626 512 q 443 617 520 617 q 314 564 367 617 q 261 436 261 512 q 313 305 261 358 q 443 253 366 253 q 572 306 519 253 q 626 436 626 359 "},"p":{"x_min":60.03125,"x_max":857,"ha":890,"o":"m 318 396 l 304 324 q 294 228 294 271 q 315 125 294 166 q 447 58 352 58 q 606 134 542 58 q 700 360 670 211 q 713 483 713 429 q 694 586 713 545 q 564 663 660 663 q 406 594 469 663 q 318 396 343 525 m 242 648 l 122 648 l 136 721 l 381 721 l 359 607 q 472 708 409 676 q 618 741 535 741 q 814 635 751 741 q 857 469 857 566 q 846 360 857 418 q 708 85 812 191 q 471 -20 604 -20 q 337 12 387 -20 q 263 112 286 44 l 184 -289 l 60 -289 l 242 648 "},"Ἤ":{"x_min":81.375,"x_max":1631.671875,"ha":1610,"o":"m 455 1111 l 590 1111 l 309 856 l 230 856 l 455 1111 m 206 1152 q 272 1114 252 1152 q 279 1061 284 1091 l 277 1050 q 133 846 261 940 q 128 842 129 843 l 81 862 q 163 970 145 914 q 111 997 130 973 q 99 1061 91 1023 q 149 1135 107 1108 q 206 1152 176 1152 m 377 0 l 390 72 l 519 72 l 688 940 l 559 940 l 573 1013 l 969 1013 l 954 940 l 826 940 l 758 590 l 1283 590 l 1350 940 l 1222 940 l 1236 1013 l 1631 1013 l 1617 940 l 1488 940 l 1319 72 l 1448 72 l 1435 0 l 1039 0 l 1053 72 l 1182 72 l 1266 507 l 741 507 l 657 72 l 786 72 l 772 0 l 377 0 "},"⢺":{"x_min":193,"x_max":824,"ha":1017,"o":"m 193 599 q 224 679 193 646 q 304 712 256 712 q 384 679 351 712 q 417 599 417 646 q 384 519 417 552 q 304 487 351 487 q 224 519 256 487 q 193 599 193 552 m 600 983 q 631 1063 600 1030 q 712 1096 663 1096 q 791 1063 758 1096 q 824 983 824 1030 q 791 903 824 936 q 712 871 758 871 q 631 903 663 871 q 600 983 600 936 m 600 599 q 631 679 600 646 q 712 712 663 712 q 791 679 758 712 q 824 599 824 646 q 791 519 824 552 q 712 487 758 487 q 631 519 663 487 q 600 599 600 552 m 600 215 q 631 295 600 262 q 712 328 663 328 q 791 295 758 328 q 824 215 824 262 q 791 135 824 168 q 712 103 758 103 q 631 135 663 103 q 600 215 600 168 m 600 -169 q 631 -89 600 -122 q 712 -57 663 -57 q 791 -89 758 -57 q 824 -169 824 -122 q 791 -249 824 -216 q 712 -282 758 -282 q 631 -249 663 -282 q 600 -169 600 -216 "},"►":{"x_min":4,"x_max":1063.984375,"ha":1068,"o":"m 4 14 l 4 707 l 1063 361 l 4 14 "},"Ӭ":{"x_min":31.59375,"x_max":993,"ha":1063,"o":"m 842 671 q 582 958 842 958 q 359 897 446 958 q 222 710 271 837 l 145 710 l 190 943 q 585 1031 421 1031 q 917 885 809 1031 q 993 638 993 784 q 979 505 993 575 q 753 113 932 263 q 392 -20 593 -20 q 139 53 231 -20 q 31 268 48 126 l 156 268 q 406 53 180 53 q 670 163 568 53 q 816 470 772 273 l 327 470 l 344 553 l 832 553 q 842 671 842 617 m 490 1278 q 541 1254 523 1278 q 554 1199 560 1230 q 520 1143 547 1165 q 459 1120 493 1120 q 407 1143 426 1120 q 396 1199 389 1165 q 430 1254 402 1230 q 490 1278 458 1278 m 755 1278 q 805 1254 787 1278 q 818 1199 824 1230 q 784 1143 811 1165 q 724 1120 757 1120 q 671 1143 690 1120 q 660 1199 653 1165 q 694 1254 666 1230 q 755 1278 722 1278 "},"῭":{"x_min":266.046875,"x_max":691.21875,"ha":694,"o":"m 362 1065 q 413 1041 394 1065 q 425 985 432 1018 q 392 928 419 950 q 330 906 365 906 q 279 928 297 906 q 267 985 261 950 q 302 1041 273 1018 q 362 1065 330 1065 m 626 1065 q 677 1041 658 1065 q 689 985 695 1018 q 656 928 682 950 q 595 906 629 906 q 543 928 560 906 q 531 985 524 950 q 566 1041 537 1018 q 626 1065 594 1065 m 448 1384 l 575 1129 l 495 1129 l 315 1384 l 448 1384 "},"ђ":{"x_min":53.28125,"x_max":748.421875,"ha":866,"o":"m 53 648 l 67 721 l 207 721 l 258 983 l 139 983 l 152 1055 l 397 1055 l 332 721 l 661 721 l 647 648 l 318 648 l 270 403 q 544 551 369 551 q 715 470 661 551 q 748 350 748 420 q 557 -95 748 76 q 267 -309 414 -223 l 239 -247 q 470 -51 378 -166 q 591 209 563 64 q 606 330 606 285 q 597 401 606 376 q 475 459 578 459 q 314 395 372 459 q 233 211 256 332 l 192 0 l 67 0 l 193 648 l 53 648 "},"ϕ":{"x_min":37.453125,"x_max":898.40625,"ha":947,"o":"m 470 50 q 645 126 592 64 q 742 360 712 206 q 736 593 772 515 q 590 670 708 657 l 470 50 m 404 -289 l 278 -289 l 331 -11 q 89 78 153 -11 q 47 360 14 184 q 196 641 81 535 q 478 731 294 731 l 540 1055 l 665 1055 l 604 731 q 846 641 782 731 q 888 360 921 535 q 738 78 854 184 q 457 -11 640 -11 l 404 -289 m 345 50 l 465 670 q 290 593 343 657 q 193 360 223 515 q 200 126 163 206 q 345 50 227 64 "},"y":{"x_min":-51.53125,"x_max":798.90625,"ha":785,"o":"m 798 715 q 613 121 731 326 q 301 -268 440 -178 q 77 -309 240 -309 q 13 -303 45 -309 q -51 -287 -18 -298 l -24 -150 l 39 -150 q 38 -171 38 -160 q 50 -215 38 -199 q 111 -239 67 -239 q 334 -135 230 -239 l 164 648 l 82 648 l 96 721 l 282 721 l 442 5 q 578 235 552 168 q 680 642 663 446 l 598 642 l 613 715 l 798 715 "},"ⱨ":{"x_min":67.53125,"x_max":878.578125,"ha":896,"o":"m 555 195 l 598 419 q 612 536 612 489 q 601 600 612 577 q 496 649 578 649 q 351 585 409 649 q 270 401 294 523 l 192 0 l 67 0 l 258 984 l 139 984 l 152 1056 l 397 1056 l 307 593 q 418 703 356 666 q 554 741 481 741 q 716 672 672 741 q 743 561 743 631 q 731 458 743 516 l 665 120 q 664 106 664 113 q 703 72 664 72 q 762 92 744 72 q 803 161 781 112 l 878 161 q 839 57 873 122 q 825 -38 825 0 q 825 -140 825 -76 q 769 -243 825 -216 q 615 -289 713 -271 l 615 -241 q 699 -205 665 -234 q 733 -113 733 -177 q 759 -39 733 -69 q 785 5 785 -9 q 781 20 785 18 q 653 -20 724 -20 q 547 116 547 -20 q 555 195 547 153 "},"‗":{"x_min":0,"x_max":694,"ha":694,"o":"m 694 -274 l 694 -328 l 0 -328 l 0 -274 l 694 -274 m 694 -111 l 694 -165 l 0 -165 l 0 -111 l 694 -111 "},"Ⴌ":{"x_min":-23.53125,"x_max":983.90625,"ha":1046,"o":"m 793 1177 q 850 1171 824 1177 q 893 1152 875 1165 q 921 1120 911 1140 q 931 1072 931 1100 q 929 1052 931 1062 q 926 1030 928 1042 l 920 1001 l 983 1001 l 968 928 l 752 928 l 774 1035 q 777 1056 777 1046 q 758 1096 777 1085 q 707 1108 739 1108 l 462 1108 l 378 711 l 664 711 q 824 671 769 711 q 879 543 879 632 q 876 502 879 524 q 868 455 873 479 l 785 69 l 872 69 l 858 0 l 521 0 l 535 69 l 622 69 l 708 481 q 715 539 715 512 q 687 612 715 587 q 594 638 659 638 l 363 638 l 242 69 l 328 69 l 314 0 l -23 0 l -9 69 l 77 69 l 297 1108 l 211 1108 l 226 1177 l 793 1177 "},"ḓ":{"x_min":-0.484375,"x_max":834.78125,"ha":890,"o":"m 834 1056 l 629 0 l 505 0 l 526 112 q 413 12 476 44 q 267 -20 351 -20 q 70 85 134 -20 q 28 252 28 155 q 39 360 28 303 q 177 635 72 530 q 415 741 281 741 q 549 708 499 741 q 623 608 599 676 l 695 984 l 577 984 l 592 1056 l 834 1056 m 568 324 l 581 396 q 592 491 592 449 q 570 594 592 553 q 439 663 534 663 q 278 586 342 663 q 185 360 214 510 q 172 239 172 292 q 191 134 172 176 q 321 58 224 58 q 479 126 416 58 q 568 324 542 194 m 209 -79 l 323 -79 l 432 -334 l 353 -334 l 250 -157 l 78 -334 l 0 -334 l 209 -79 "},"⡗":{"x_min":193,"x_max":824,"ha":1017,"o":"m 193 983 q 224 1063 193 1030 q 304 1096 256 1096 q 384 1063 351 1096 q 417 983 417 1030 q 384 903 417 936 q 304 871 351 871 q 224 903 256 871 q 193 983 193 936 m 193 599 q 224 679 193 646 q 304 712 256 712 q 384 679 351 712 q 417 599 417 646 q 384 519 417 552 q 304 487 351 487 q 224 519 256 487 q 193 599 193 552 m 193 215 q 224 295 193 262 q 304 328 256 328 q 384 295 351 328 q 417 215 417 262 q 384 135 417 168 q 304 103 351 103 q 224 135 256 103 q 193 215 193 168 m 600 599 q 631 679 600 646 q 712 712 663 712 q 791 679 758 712 q 824 599 824 646 q 791 519 824 552 q 712 487 758 487 q 631 519 663 487 q 600 599 600 552 m 193 -169 q 224 -89 193 -122 q 304 -57 256 -57 q 384 -89 351 -57 q 417 -169 417 -122 q 384 -249 417 -216 q 304 -282 351 -282 q 224 -249 256 -282 q 193 -169 193 -216 "},"ƅ":{"x_min":-59.671875,"x_max":800.78125,"ha":889,"o":"m 248 324 q 259 126 222 194 q 390 58 295 58 q 550 134 486 58 q 643 360 614 211 q 638 586 672 510 q 507 663 604 663 q 349 594 413 663 q 261 396 286 525 l 248 324 m 389 1055 l 303 608 q 415 708 352 676 q 562 741 478 741 q 758 635 695 741 q 789 360 822 530 q 651 85 756 191 q 414 -20 547 -20 q 280 12 330 -20 q 206 112 229 44 l 185 0 l -59 0 l -46 72 l 73 72 l 208 763 l 88 763 l 105 848 l 389 1055 "},"ë":{"x_min":59,"x_max":759,"ha":821,"o":"m 203 278 q 201 228 201 251 q 224 122 201 164 q 370 47 263 47 q 488 71 449 47 q 573 169 557 113 l 664 169 q 536 22 637 82 q 326 -20 466 -20 q 111 83 187 -20 q 59 261 59 156 q 69 360 59 307 q 216 636 102 531 q 494 741 331 741 q 759 552 759 741 q 620 346 759 414 q 203 278 478 278 m 551 424 q 627 555 627 469 q 473 673 627 673 q 319 605 382 673 q 217 353 256 537 q 551 424 435 353 m 425 1064 q 477 1040 458 1064 q 489 984 495 1017 q 456 927 482 949 q 394 905 429 905 q 343 927 360 905 q 331 984 324 949 q 366 1040 337 1017 q 425 1064 394 1064 m 690 1064 q 740 1040 721 1064 q 753 984 759 1017 q 719 927 746 949 q 658 905 692 905 q 606 927 624 905 q 595 984 588 949 q 629 1040 601 1017 q 690 1064 657 1064 "},"б":{"x_min":68,"x_max":852.53125,"ha":848,"o":"m 68 268 q 74 360 68 311 l 91 480 q 143 699 109 609 q 191 811 176 788 q 400 987 263 927 q 557 1026 442 1005 q 685 1047 671 1046 q 733 1061 699 1049 q 780 1092 767 1074 l 852 1092 q 769 984 832 1045 q 640 911 706 923 q 372 855 421 873 q 254 769 324 837 q 170 560 201 716 q 293 687 222 635 q 497 741 365 741 q 729 637 654 741 q 782 459 782 565 q 771 360 782 413 q 622 84 737 188 q 349 -20 507 -20 q 120 79 192 -20 q 68 268 68 151 m 206 235 q 362 47 206 47 q 626 360 564 47 q 639 487 639 432 q 483 673 639 673 q 220 360 280 673 q 206 235 206 290 "},"Ẏ":{"x_min":68.5,"x_max":1027.421875,"ha":917,"o":"m 552 1256 q 613 1280 581 1280 q 663 1256 644 1280 q 676 1201 682 1232 q 642 1145 670 1167 q 581 1122 615 1122 q 529 1145 547 1122 q 518 1201 511 1167 q 552 1256 524 1232 m 164 0 l 177 72 l 307 72 l 378 436 l 163 940 l 68 940 l 82 1013 l 459 1013 l 444 940 l 326 940 l 500 530 l 832 940 l 718 940 l 733 1013 l 1027 1013 l 1013 940 l 917 940 l 518 449 l 444 72 l 573 72 l 560 0 l 164 0 "},"⇈":{"x_min":-6.546875,"x_max":1170.53125,"ha":1164,"o":"m 222 0 l 222 873 l -6 742 l -6 750 l 273 1033 l 280 1033 l 560 750 l 560 742 l 332 873 l 332 0 l 222 0 m 832 0 l 832 873 l 603 742 l 603 750 l 883 1033 l 890 1033 l 1170 750 l 1170 742 l 942 873 l 942 0 l 832 0 "},"ṝ":{"x_min":50.078125,"x_max":732.109375,"ha":664,"o":"m 303 1035 l 709 1035 l 690 935 l 284 935 l 303 1035 m 86 -130 q 146 -107 114 -107 q 198 -130 179 -107 q 210 -186 216 -153 q 177 -243 203 -221 q 115 -266 150 -266 q 63 -243 81 -266 q 51 -186 45 -221 q 86 -130 58 -153 m 732 722 l 696 542 l 624 542 q 627 567 627 556 q 610 622 627 602 q 538 649 589 649 q 384 585 446 649 q 300 401 323 521 l 222 0 l 97 0 l 223 650 l 104 650 l 117 721 l 361 721 l 337 593 q 453 704 388 668 q 600 741 517 741 q 663 736 631 741 q 732 722 696 731 "},"ӌ":{"x_min":103.765625,"x_max":922.984375,"ha":926,"o":"m 782 0 l 592 0 q 495 -96 524 0 l 465 -192 l 395 -192 l 446 72 l 559 72 l 604 305 l 274 305 q 184 341 217 305 q 171 418 161 366 l 216 649 l 103 649 l 118 721 l 467 721 l 453 649 l 341 649 l 316 521 q 308 412 301 443 q 357 389 314 389 l 620 389 l 671 649 l 558 649 l 573 721 l 922 721 l 908 649 l 796 649 l 684 72 l 796 72 l 782 0 "},"☻":{"x_min":115,"x_max":1130,"ha":1245,"o":"m 115 506 q 263 866 115 717 q 622 1015 412 1015 q 981 866 833 1015 q 1130 506 1130 717 q 981 147 1130 295 q 622 0 833 0 q 263 147 412 0 q 115 506 115 295 m 383 502 l 337 502 q 618 212 337 212 q 908 504 908 212 l 860 504 q 622 293 795 293 q 383 502 467 293 m 915 698 q 826 795 915 795 q 728 695 728 795 q 819 602 728 602 q 915 698 915 602 m 520 700 q 430 795 520 795 q 332 695 332 795 q 424 602 332 602 q 520 700 520 602 "},"‐":{"x_min":50.859375,"x_max":418.4375,"ha":469,"o":"m 71 426 l 418 426 l 398 320 l 50 320 l 71 426 "},"":{"x_min":-11,"x_max":889,"ha":930,"o":"m 771 344 q 707 200 751 264 q 602 92 663 136 q 468 23 541 47 q 319 0 395 0 q 200 16 260 0 q 94 63 141 32 q 18 139 47 94 q -11 243 -11 184 q -4 296 -11 272 l -4 296 q 35 383 7 342 q 100 457 62 425 q 182 513 138 490 q 270 545 226 536 l 291 471 q 249 436 266 456 q 219 394 232 417 q 197 344 206 371 q 180 287 188 317 q 171 223 171 249 q 184 169 171 191 q 220 134 197 147 q 273 116 242 121 q 338 111 303 111 q 418 124 381 111 q 487 167 455 137 q 545 247 519 198 q 590 368 570 296 q 599 415 595 392 q 603 455 603 437 q 590 522 603 494 q 555 568 577 551 q 504 593 533 585 q 445 602 476 602 l 384 602 l 412 709 l 470 709 q 529 719 496 709 q 595 756 563 730 q 655 824 627 782 q 700 928 683 866 l 700 928 q 706 959 704 944 q 708 987 708 974 q 676 1064 708 1036 q 577 1093 644 1093 q 499 1089 538 1093 q 426 1071 460 1086 q 365 1024 392 1055 q 325 937 338 992 q 326 919 322 926 q 340 909 331 913 q 361 903 349 905 q 388 902 374 902 q 397 902 392 902 q 419 904 403 902 l 346 743 q 290 758 316 746 q 245 789 264 770 q 215 835 226 808 q 205 893 205 861 q 210 937 205 914 q 264 1053 226 1003 q 354 1136 302 1103 q 469 1186 407 1169 q 599 1203 532 1203 q 704 1190 652 1203 q 797 1152 756 1178 q 863 1086 838 1126 q 889 991 889 1046 q 881 930 889 961 q 836 823 865 868 q 769 748 806 779 q 691 697 732 716 q 611 664 650 677 q 678 635 647 652 q 734 593 710 619 q 771 531 757 567 q 785 445 785 494 q 781 396 785 421 q 771 344 778 372 "},"ⅷ":{"x_min":51.890625,"x_max":2048,"ha":2117,"o":"m 364 0 l 272 0 l 133 649 l 51 649 l 65 722 l 251 722 l 374 152 q 504 306 452 220 q 651 649 612 486 l 568 649 l 582 722 l 769 722 q 601 285 695 442 q 364 0 520 149 m 1892 945 q 1925 999 1898 976 q 1984 1023 1952 1023 q 2033 999 2015 1023 q 2048 960 2048 982 q 2045 945 2048 953 q 2013 891 2039 913 q 1954 869 1986 869 q 1904 891 1922 869 q 1890 930 1890 908 q 1892 945 1890 937 m 1881 72 l 1999 72 l 1986 0 l 1743 0 l 1869 649 l 1749 649 l 1763 722 l 2008 722 l 1881 72 m 1447 945 q 1480 999 1453 976 q 1539 1023 1507 1023 q 1589 999 1571 1023 q 1604 960 1604 982 q 1601 945 1604 953 q 1568 891 1595 913 q 1510 869 1542 869 q 1459 891 1478 869 q 1446 930 1446 908 q 1447 945 1446 937 m 1437 72 l 1555 72 l 1542 0 l 1298 0 l 1424 649 l 1304 649 l 1319 722 l 1563 722 l 1437 72 m 1003 945 q 1036 999 1009 976 q 1095 1023 1063 1023 q 1144 999 1126 1023 q 1159 960 1159 982 q 1156 945 1159 953 q 1124 891 1150 913 q 1065 869 1097 869 q 1015 891 1033 869 q 1002 930 1002 908 q 1003 945 1002 937 m 993 72 l 1110 72 l 1097 0 l 854 0 l 980 649 l 860 649 l 875 722 l 1119 722 l 993 72 "},"⥩":{"x_min":47,"x_max":1116,"ha":1163,"o":"m 47 360 l 47 369 l 1084 369 l 1084 259 l 258 259 l 388 30 l 381 30 l 47 360 m 834 407 l 904 530 l 79 530 l 79 640 l 1116 640 l 1116 631 l 888 407 l 834 407 "},"ʋ":{"x_min":106.46875,"x_max":779.90625,"ha":844,"o":"m 535 672 l 611 672 q 750 540 706 628 q 773 345 794 452 q 717 205 758 270 q 611 88 674 138 q 484 19 553 43 q 343 -3 416 -3 q 174 63 233 -3 q 145 237 122 119 l 225 648 l 106 648 l 120 721 l 364 721 l 271 237 q 273 108 253 148 q 358 66 295 66 q 535 155 442 66 q 636 356 611 227 q 629 530 657 460 q 526 631 600 599 l 535 672 "},"┼":{"x_min":-13,"x_max":850,"ha":837,"o":"m 473 337 l 473 -419 l 364 -419 l 364 337 l -13 337 l -13 454 l 364 454 l 364 1352 l 473 1352 l 473 454 l 850 454 l 850 337 l 473 337 "},"ц":{"x_min":94.546875,"x_max":892.578125,"ha":969,"o":"m 94 648 l 108 721 l 346 721 l 265 300 q 252 187 252 230 q 262 120 252 143 q 369 72 285 72 q 512 135 454 72 q 593 320 569 198 l 671 721 l 795 721 l 679 120 q 678 106 678 113 q 718 72 678 72 q 776 92 758 72 q 817 161 795 112 l 892 161 q 853 58 887 122 q 839 -38 839 0 q 839 -140 839 -76 q 783 -243 839 -216 q 630 -289 727 -271 l 630 -241 q 713 -205 679 -234 q 747 -113 747 -177 q 773 -39 747 -69 q 799 5 799 -9 q 795 20 799 18 q 667 -20 738 -20 q 556 127 571 -20 q 310 -20 456 -20 q 147 48 192 -20 q 121 145 121 89 q 132 262 121 202 l 207 648 l 94 648 "},"ⴒ":{"x_min":63.234375,"x_max":887.46875,"ha":896,"o":"m 708 544 q 678 642 742 642 l 437 616 l 240 58 l 482 87 q 584 194 557 100 l 708 544 m 727 190 q 556 36 670 48 l 215 0 l 200 -103 q 318 -217 184 -217 l 480 -217 l 467 -305 l 313 -305 q 65 -110 37 -305 l 83 17 l 296 621 l 216 621 l 223 673 l 314 673 l 326 710 l 470 710 l 455 673 l 760 710 q 877 619 922 727 l 727 190 "},"⡐":{"x_min":193,"x_max":824,"ha":1017,"o":"m 600 599 q 631 679 600 646 q 712 712 663 712 q 791 679 758 712 q 824 599 824 646 q 791 519 824 552 q 712 487 758 487 q 631 519 663 487 q 600 599 600 552 m 193 -169 q 224 -89 193 -122 q 304 -57 256 -57 q 384 -89 351 -57 q 417 -169 417 -122 q 384 -249 417 -216 q 304 -282 351 -282 q 224 -249 256 -282 q 193 -169 193 -216 "},"w":{"x_min":77.984375,"x_max":1160.34375,"ha":1189,"o":"m 811 158 q 922 291 901 255 q 1070 648 996 427 l 965 648 l 979 721 l 1160 721 l 1146 648 l 1145 648 q 1010 274 1076 396 q 807 0 913 101 l 703 0 l 629 539 l 346 0 l 246 0 l 159 648 l 77 648 l 92 721 l 278 721 l 354 158 l 649 721 l 736 721 l 811 158 "},"о":{"x_min":59,"x_max":776.421875,"ha":836,"o":"m 356 47 q 523 126 457 47 q 620 360 590 206 q 634 486 634 431 q 615 594 634 551 q 478 673 579 673 q 311 594 378 673 q 214 360 244 515 q 201 235 201 290 q 221 126 201 170 q 356 47 257 47 m 343 -20 q 111 83 186 -20 q 59 261 59 156 q 69 360 59 307 q 218 637 102 533 q 491 741 333 741 q 724 637 649 741 q 776 460 776 565 q 766 360 776 413 q 617 84 733 188 q 343 -20 501 -20 "},"⊥":{"x_min":147,"x_max":1159,"ha":1306,"o":"m 147 0 l 147 110 l 598 110 l 598 956 l 708 956 l 708 110 l 1159 110 l 1159 0 l 147 0 "},"Д":{"x_min":-49.890625,"x_max":1150.046875,"ha":1129,"o":"m 484 929 l 446 732 q 270 110 364 310 q 260 79 256 87 q 288 72 266 72 l 701 72 l 867 929 l 484 929 m 872 -217 l 872 -76 q 812 0 872 0 l 155 0 q 58 -96 88 0 q 22 -217 22 -216 l -49 -217 l 6 72 l 72 72 q 257 297 177 72 q 314 509 279 360 q 362 732 349 658 l 403 940 l 274 940 l 288 1013 l 1150 1013 l 1136 940 l 1007 940 l 838 72 l 995 72 l 939 -217 l 872 -217 "},"⊄":{"x_min":147,"x_max":1016,"ha":1163,"o":"m 582 109 l 1016 109 l 1016 0 l 582 0 q 516 4 548 0 l 447 -183 l 344 -145 l 410 35 q 364 58 386 45 q 205 217 263 116 q 147 435 147 317 q 205 654 147 553 q 364 812 263 754 q 582 871 464 871 l 713 871 l 780 1054 l 883 1016 l 831 871 l 1016 871 l 1016 762 l 791 762 l 554 110 q 582 109 568 109 m 447 138 l 674 762 l 582 762 q 419 717 494 762 q 300 598 344 673 q 256 435 256 523 q 300 272 256 347 q 419 153 344 195 q 447 138 433 144 "},"↙":{"x_min":205,"x_max":976.078125,"ha":1164,"o":"m 898 844 l 976 766 l 358 149 l 612 79 l 607 73 l 209 73 l 205 77 l 205 475 l 211 480 l 280 226 l 898 844 "},"⠦":{"x_min":193,"x_max":824,"ha":1017,"o":"m 193 599 q 224 679 193 646 q 304 712 256 712 q 384 679 351 712 q 417 599 417 646 q 384 519 417 552 q 304 487 351 487 q 224 519 256 487 q 193 599 193 552 m 193 215 q 224 295 193 262 q 304 328 256 328 q 384 295 351 328 q 417 215 417 262 q 384 135 417 168 q 304 103 351 103 q 224 135 256 103 q 193 215 193 168 m 600 215 q 631 295 600 262 q 712 328 663 328 q 791 295 758 328 q 824 215 824 262 q 791 135 824 168 q 712 103 758 103 q 631 135 663 103 q 600 215 600 168 "},"Ӂ":{"x_min":-82.3125,"x_max":1589.375,"ha":1560,"o":"m 722 1289 l 787 1289 q 824 1234 791 1252 q 919 1216 856 1216 q 1021 1234 981 1216 q 1081 1290 1061 1252 l 1145 1290 q 1053 1168 1116 1210 q 902 1126 990 1126 q 767 1167 812 1126 q 722 1289 722 1209 m 680 1013 l 1076 1013 l 1061 940 l 932 940 l 849 510 l 1348 940 l 1238 940 l 1253 1013 l 1589 1013 l 1575 940 l 1461 940 l 1072 609 l 1345 72 l 1459 72 l 1445 0 l 1050 0 l 1063 72 l 1176 72 l 958 511 l 828 400 l 764 72 l 892 72 l 879 0 l 483 0 l 497 72 l 626 72 l 690 400 l 602 511 l 214 72 l 326 72 l 313 0 l -82 0 l -68 72 l 44 72 l 526 609 l 266 940 l 153 940 l 167 1013 l 503 1013 l 489 940 l 379 940 l 711 510 l 795 940 l 666 940 l 680 1013 "},"Ḁ":{"x_min":-105.796875,"x_max":932.484375,"ha":1003,"o":"m 251 368 l 623 368 l 531 849 l 251 368 m -105 0 l -92 72 l -3 72 l 540 1014 l 654 1014 l 833 72 l 932 72 l 918 0 l 550 0 l 564 72 l 676 72 l 635 295 l 209 295 l 81 72 l 192 72 l 179 0 l -105 0 m 407 -188 q 398 -144 413 -162 q 356 -126 383 -126 q 308 -144 329 -126 q 281 -188 286 -162 q 290 -233 276 -215 q 332 -252 305 -252 q 380 -233 358 -252 q 407 -188 402 -215 m 489 -189 q 427 -292 478 -250 q 316 -335 377 -335 q 221 -292 254 -335 q 199 -189 187 -250 q 261 -87 210 -129 q 372 -45 311 -45 q 467 -87 434 -45 q 489 -189 501 -129 "},"◜":{"x_min":4,"x_max":534,"ha":538,"o":"m 4 361 q 269 819 4 666 q 534 896 401 896 l 534 816 q 309 750 421 816 q 83 361 83 620 l 4 361 "},"◎":{"x_min":76,"x_max":1136,"ha":1212,"o":"m 528 495 q 451 361 451 450 q 528 227 451 272 q 605 205 567 205 q 683 227 645 205 q 761 361 761 272 q 683 495 761 450 q 605 518 645 518 q 528 495 567 518 m 487 155 q 368 361 368 223 q 487 567 368 499 q 605 602 546 602 q 724 567 665 602 q 844 361 844 499 q 724 155 844 223 q 605 121 665 121 q 487 155 546 121 m 381 751 q 155 361 155 621 q 381 -28 155 101 q 605 -94 493 -94 q 830 -28 718 -94 q 1057 361 1057 101 q 830 751 1057 621 q 605 817 718 817 q 381 751 493 817 m 341 -97 q 76 361 76 56 q 341 820 76 666 q 605 897 473 897 q 870 820 738 897 q 1136 361 1136 666 q 870 -97 1136 56 q 605 -174 738 -174 q 341 -97 473 -174 "},"Ĵ":{"x_min":-233.296875,"x_max":631.375,"ha":557,"o":"m 390 1288 l 509 1288 l 631 1110 l 552 1110 l 436 1218 l 277 1110 l 198 1110 l 390 1288 m -233 -242 l -202 -83 l -125 -83 q -112 -183 -136 -150 q -29 -216 -89 -216 q 92 -165 50 -216 q 163 33 134 -114 l 339 940 l 182 940 l 196 1013 l 620 1013 l 606 940 l 477 940 l 299 28 q 185 -214 267 -139 q -45 -289 103 -289 q -141 -277 -93 -289 q -233 -242 -188 -265 "},"Ҕ":{"x_min":-21.015625,"x_max":1004.375,"ha":1015,"o":"m 305 306 l 259 72 l 421 72 l 407 0 l -21 0 l -6 72 l 122 72 l 290 940 l 161 940 l 175 1013 l 1004 1013 l 960 787 l 877 787 l 904 929 l 425 929 l 339 484 q 575 604 396 579 q 863 521 777 634 q 897 313 922 444 l 840 15 q 725 -226 807 -151 q 497 -301 644 -301 q 401 -289 448 -301 q 308 -254 353 -277 l 339 -95 l 417 -95 q 429 -195 405 -162 q 512 -228 453 -228 q 635 -177 593 -228 q 705 21 676 -126 l 762 314 q 739 472 786 436 q 539 511 669 527 q 388 439 461 501 q 305 306 319 381 "},"⥥":{"x_min":162.46875,"x_max":1000.546875,"ha":1163,"o":"m 492 -32 l 162 302 l 162 310 l 391 179 l 391 1006 l 501 1006 l 501 -32 l 492 -32 m 670 -32 l 662 -32 l 662 1006 l 772 1006 l 772 179 l 1000 310 l 1000 302 l 670 -32 "},"г":{"x_min":100,"x_max":683,"ha":702,"o":"m 100 144 q 192 319 100 242 q 342 404 249 368 l 420 434 q 552 577 552 483 q 531 641 552 608 q 446 674 510 674 q 141 504 282 674 l 108 545 q 198 643 145 600 q 280 699 252 685 q 465 741 359 741 q 627 690 572 741 q 683 577 683 640 q 620 423 683 491 q 452 317 557 355 q 314 261 348 279 q 230 141 230 216 q 249 84 230 110 q 346 46 278 46 q 607 178 482 46 l 638 210 l 672 168 q 318 -20 526 -20 q 157 30 214 -20 q 100 144 100 81 "},"⡦":{"x_min":193,"x_max":824,"ha":1017,"o":"m 193 599 q 224 679 193 646 q 304 712 256 712 q 384 679 351 712 q 417 599 417 646 q 384 519 417 552 q 304 487 351 487 q 224 519 256 487 q 193 599 193 552 m 193 215 q 224 295 193 262 q 304 328 256 328 q 384 295 351 328 q 417 215 417 262 q 384 135 417 168 q 304 103 351 103 q 224 135 256 103 q 193 215 193 168 m 600 215 q 631 295 600 262 q 712 328 663 328 q 791 295 758 328 q 824 215 824 262 q 791 135 824 168 q 712 103 758 103 q 631 135 663 103 q 600 215 600 168 m 193 -169 q 224 -89 193 -122 q 304 -57 256 -57 q 384 -89 351 -57 q 417 -169 417 -122 q 384 -249 417 -216 q 304 -282 351 -282 q 224 -249 256 -282 q 193 -169 193 -216 "},"Ŀ":{"x_min":-21.015625,"x_max":878.796875,"ha":932,"o":"m 695 573 q 734 637 703 611 q 804 664 765 664 q 862 637 841 664 q 876 573 884 610 q 837 509 869 535 q 769 483 806 483 q 709 508 730 483 q 695 573 688 534 m -21 0 l -7 72 l 121 72 l 290 940 l 161 940 l 175 1013 l 571 1013 l 556 940 l 427 940 l 261 83 l 724 83 l 756 253 l 840 253 l 791 0 l -21 0 "},"ᾙ":{"x_min":86.859375,"x_max":1399.4375,"ha":1378,"o":"m 203 1152 q 253 1134 233 1152 q 275 1060 285 1108 q 237 995 268 1021 q 174 972 209 972 q 216 863 174 914 l 161 842 q 157 846 160 844 q 93 1050 65 940 l 95 1061 q 122 1114 101 1090 q 203 1152 157 1152 m 144 0 l 158 72 l 287 72 l 456 940 l 327 940 l 341 1013 l 736 1013 l 722 940 l 593 940 l 525 590 l 1050 590 l 1118 940 l 989 940 l 1004 1013 l 1399 1013 l 1385 940 l 1256 940 l 1087 72 l 1216 72 l 1202 0 l 807 0 l 820 72 l 950 72 l 1034 507 l 509 507 l 424 72 l 553 72 l 540 0 l 144 0 m 741 -277 l 690 -288 q 592 -171 563 -315 l 609 -83 l 710 -83 l 691 -180 q 715 -234 679 -243 l 751 -225 l 741 -277 "},"⡳":{"x_min":193,"x_max":824,"ha":1017,"o":"m 193 983 q 224 1063 193 1030 q 304 1096 256 1096 q 384 1063 351 1096 q 417 983 417 1030 q 384 903 417 936 q 304 871 351 871 q 224 903 256 871 q 193 983 193 936 m 193 599 q 224 679 193 646 q 304 712 256 712 q 384 679 351 712 q 417 599 417 646 q 384 519 417 552 q 304 487 351 487 q 224 519 256 487 q 193 599 193 552 m 600 599 q 631 679 600 646 q 712 712 663 712 q 791 679 758 712 q 824 599 824 646 q 791 519 824 552 q 712 487 758 487 q 631 519 663 487 q 600 599 600 552 m 600 215 q 631 295 600 262 q 712 328 663 328 q 791 295 758 328 q 824 215 824 262 q 791 135 824 168 q 712 103 758 103 q 631 135 663 103 q 600 215 600 168 m 193 -169 q 224 -89 193 -122 q 304 -57 256 -57 q 384 -89 351 -57 q 417 -169 417 -122 q 384 -249 417 -216 q 304 -282 351 -282 q 224 -249 256 -282 q 193 -169 193 -216 "},"∦":{"x_min":120.515625,"x_max":760.484375,"ha":881,"o":"m 267 411 l 267 1149 l 377 1149 l 377 521 l 504 648 l 504 1149 l 614 1149 l 614 758 l 682 827 l 760 749 l 614 602 l 614 -136 l 504 -136 l 504 492 l 377 364 l 377 -136 l 267 -136 l 267 255 l 198 186 l 120 264 l 267 411 "},"ʟ":{"x_min":-12.203125,"x_max":698.515625,"ha":897,"o":"m -12 0 l 1 72 l 130 72 l 242 649 l 113 649 l 127 722 l 522 722 l 509 649 l 380 649 l 270 83 l 582 83 l 615 253 l 698 253 l 649 0 l -12 0 "},"Ǟ":{"x_min":-105.796875,"x_max":932.484375,"ha":1003,"o":"m 491 1496 l 897 1496 l 878 1396 l 472 1396 l 491 1496 m 251 367 l 623 367 l 531 848 l 251 367 m -105 0 l -92 72 l -3 72 l 540 1013 l 654 1013 l 833 72 l 932 72 l 918 0 l 550 0 l 564 72 l 676 72 l 635 294 l 209 294 l 81 72 l 192 72 l 179 0 l -105 0 m 509 1278 q 560 1254 541 1278 q 573 1199 579 1230 q 539 1143 566 1165 q 478 1120 512 1120 q 426 1143 444 1120 q 415 1199 408 1165 q 448 1254 421 1230 q 509 1278 477 1278 m 773 1278 q 823 1254 805 1278 q 836 1199 842 1230 q 802 1143 830 1165 q 742 1120 775 1120 q 690 1143 708 1120 q 678 1199 672 1165 q 712 1254 684 1230 q 773 1278 741 1278 "},"𝛯":{"x_min":-21.015625,"x_max":990.8125,"ha":977,"o":"m 735 128 l 754 225 l 837 225 l 794 0 l -21 0 l 22 225 l 105 225 l 86 128 l 735 128 m 882 885 l 234 885 l 215 787 l 132 787 l 175 1013 l 990 1013 l 947 787 l 863 787 l 882 885 m 325 507 l 301 380 l 217 380 l 282 716 l 366 716 l 341 590 l 660 590 l 684 716 l 768 716 l 703 380 l 619 380 l 644 507 l 325 507 "},"Җ":{"x_min":-81.734375,"x_max":1589.953125,"ha":1560,"o":"m 1337 -218 l 1337 -84 q 1282 0 1337 0 l 1050 0 l 1065 72 l 1177 72 l 959 511 l 829 400 l 765 72 l 894 72 l 879 0 l 484 0 l 498 72 l 627 72 l 691 400 l 603 511 l 215 72 l 327 72 l 313 0 l -81 0 l -67 72 l 45 72 l 527 609 l 268 940 l 154 940 l 167 1013 l 504 1013 l 490 940 l 380 940 l 712 511 l 796 940 l 667 940 l 681 1013 l 1076 1013 l 1063 940 l 934 940 l 850 511 l 1349 940 l 1240 940 l 1253 1013 l 1589 1013 l 1576 940 l 1462 940 l 1073 609 l 1347 72 l 1460 72 l 1404 -218 l 1337 -218 "},"€":{"x_min":-31.5,"x_max":839.953125,"ha":884,"o":"m 726 268 q 577 54 669 128 q 367 -20 484 -20 q 167 83 239 -20 q 96 365 96 186 l -31 365 l 12 436 l 104 436 q 108 462 105 446 q 114 504 112 495 q 123 544 119 527 q 131 576 127 560 l 9 576 l 53 647 l 152 647 q 330 928 218 826 q 571 1031 442 1031 q 701 1010 638 1031 q 839 942 764 989 l 795 710 l 723 710 q 694 898 733 832 q 572 964 654 964 q 408 883 479 964 q 292 647 336 802 l 634 647 l 588 576 l 274 576 q 268 550 272 566 q 258 504 260 516 q 252 475 256 498 q 245 436 249 452 l 500 436 l 454 365 l 237 365 q 262 128 222 209 q 394 47 302 47 q 535 103 473 47 q 635 268 597 160 l 726 268 "},"⤍":{"x_min":79,"x_max":1112,"ha":1164,"o":"m 79 394 l 79 504 l 504 504 l 504 394 l 79 394 m 592 394 l 592 504 l 952 504 l 821 732 l 829 732 l 1112 452 l 1112 445 l 829 165 l 821 165 l 952 394 l 592 394 "},"Ἀ":{"x_min":-105.796875,"x_max":932.484375,"ha":1003,"o":"m 374 1152 q 440 1114 420 1152 q 446 1061 452 1091 l 444 1050 q 301 846 429 940 q 295 842 297 844 l 248 863 q 330 970 313 914 q 279 997 298 973 q 266 1061 259 1023 q 317 1135 275 1108 q 374 1152 343 1152 m 251 367 l 623 367 l 531 848 l 251 367 m -105 0 l -92 72 l -3 72 l 540 1013 l 654 1013 l 833 72 l 932 72 l 918 0 l 550 0 l 564 72 l 676 72 l 635 294 l 209 294 l 81 72 l 192 72 l 179 0 l -105 0 "},"С":{"x_min":64.421875,"x_max":1036.078125,"ha":1063,"o":"m 932 268 q 740 53 860 126 q 459 -20 621 -20 q 282 13 360 -20 q 151 113 204 47 q 72 286 90 189 q 77 505 54 383 q 288 886 123 741 q 675 1031 452 1031 q 847 1009 758 1031 q 1036 943 937 987 l 991 710 l 914 710 q 850 897 914 837 q 650 958 786 958 q 382 843 488 958 q 233 505 276 728 q 250 167 189 282 q 473 53 311 53 q 670 106 587 53 q 808 268 754 160 l 932 268 "},"⨍":{"x_min":32,"x_max":690,"ha":723,"o":"m 211 -178 q 288 288 288 -178 l 288 377 l 119 377 l 119 492 l 304 492 q 360 901 304 770 q 565 1052 426 1052 q 655 1023 620 1052 q 690 950 690 994 q 668 892 690 914 q 609 871 646 871 q 561 884 580 871 q 534 920 542 897 q 527 955 530 931 q 513 980 524 980 q 436 559 436 980 l 436 492 l 609 492 l 609 377 l 421 377 q 421 353 421 364 q 356 -111 421 28 q 155 -252 290 -252 q 66 -223 101 -252 q 32 -151 32 -195 q 54 -92 32 -113 q 119 -70 77 -70 q 157 -80 141 -70 q 184 -109 173 -90 q 194 -149 190 -121 q 211 -178 198 -178 "},"└":{"x_min":363,"x_max":849.75,"ha":836,"o":"m 363 337 l 363 1352 l 472 1352 l 472 454 l 849 454 l 849 337 l 363 337 "},"◓":{"x_min":76,"x_max":1136,"ha":1212,"o":"m 146 94 q 76 359 76 217 q 146 624 76 501 q 340 818 217 747 q 606 890 463 890 q 871 818 748 890 q 1065 624 994 747 q 1136 359 1136 501 q 1065 94 1136 217 q 871 -99 994 -28 q 606 -171 748 -171 q 340 -99 463 -171 q 146 94 217 -28 m 1057 361 q 830 750 1057 620 q 605 816 719 816 q 381 750 493 816 q 155 361 155 620 l 1057 361 "},"Ӓ":{"x_min":-81.375,"x_max":956.890625,"ha":1052,"o":"m 533 1278 q 584 1254 566 1278 q 597 1199 603 1230 q 563 1143 590 1165 q 502 1120 536 1120 q 450 1143 469 1120 q 439 1199 432 1165 q 473 1254 445 1230 q 533 1278 501 1278 m 798 1278 q 848 1254 830 1278 q 861 1199 867 1230 q 827 1143 854 1165 q 767 1120 800 1120 q 714 1143 733 1120 q 703 1199 696 1165 q 737 1254 709 1230 q 798 1278 765 1278 m 276 367 l 647 367 l 555 848 l 276 367 m -81 0 l -67 72 l 21 72 l 564 1013 l 678 1013 l 857 72 l 956 72 l 943 0 l 575 0 l 588 72 l 701 72 l 659 294 l 233 294 l 105 72 l 217 72 l 203 0 l -81 0 "},"◭":{"x_min":4.34375,"x_max":1064.328125,"ha":1068,"o":"m 534 -94 l 948 -94 l 534 737 l 534 -94 m 4 -171 l 534 892 l 1064 -171 l 4 -171 "},"ᵄ":{"x_min":43.6875,"x_max":482,"ha":536,"o":"m 172 729 l 154 644 l 255 644 q 347 666 313 644 q 391 735 381 688 q 394 758 394 748 q 377 802 394 784 q 303 827 353 827 q 218 799 254 827 q 172 729 182 772 m 67 603 l 113 817 l 43 817 l 52 857 l 200 857 l 191 813 q 260 854 223 840 q 343 868 297 868 q 455 832 418 868 q 482 766 482 805 q 478 735 482 751 q 406 637 465 672 q 255 603 348 603 l 145 603 l 139 575 q 137 551 137 562 q 155 504 137 522 q 238 479 181 479 q 316 498 284 479 q 364 555 348 517 l 404 555 l 386 472 q 301 450 342 457 q 224 442 261 442 q 90 483 130 442 q 62 559 62 512 q 67 603 62 580 "},"⣶":{"x_min":193,"x_max":824,"ha":1017,"o":"m 193 599 q 224 679 193 646 q 304 712 256 712 q 384 679 351 712 q 417 599 417 646 q 384 519 417 552 q 304 487 351 487 q 224 519 256 487 q 193 599 193 552 m 193 215 q 224 295 193 262 q 304 328 256 328 q 384 295 351 328 q 417 215 417 262 q 384 135 417 168 q 304 103 351 103 q 224 135 256 103 q 193 215 193 168 m 600 599 q 631 679 600 646 q 712 712 663 712 q 791 679 758 712 q 824 599 824 646 q 791 519 824 552 q 712 487 758 487 q 631 519 663 487 q 600 599 600 552 m 600 215 q 631 295 600 262 q 712 328 663 328 q 791 295 758 328 q 824 215 824 262 q 791 135 824 168 q 712 103 758 103 q 631 135 663 103 q 600 215 600 168 m 193 -169 q 224 -89 193 -122 q 304 -57 256 -57 q 384 -89 351 -57 q 417 -169 417 -122 q 384 -249 417 -216 q 304 -282 351 -282 q 224 -249 256 -282 q 193 -169 193 -216 m 600 -169 q 631 -89 600 -122 q 712 -57 663 -57 q 791 -89 758 -57 q 824 -169 824 -122 q 791 -249 824 -216 q 712 -282 758 -282 q 631 -249 663 -282 q 600 -169 600 -216 "},"Ὕ":{"x_min":86.859375,"x_max":1560.171875,"ha":1450,"o":"m 203 1152 q 253 1134 233 1152 q 275 1060 285 1108 q 237 995 268 1021 q 174 972 209 972 q 216 862 174 914 l 161 842 q 157 846 160 843 q 93 1050 65 940 l 95 1061 q 122 1114 101 1091 q 203 1152 157 1152 m 483 1111 l 618 1111 l 338 856 l 258 856 l 483 1111 m 696 0 l 710 72 l 839 72 l 911 436 l 696 940 l 601 940 l 615 1013 l 991 1013 l 977 940 l 859 940 l 1033 530 l 1365 940 l 1251 940 l 1265 1013 l 1560 1013 l 1545 940 l 1450 940 l 1050 449 l 976 72 l 1106 72 l 1092 0 l 696 0 "},"ẳ":{"x_min":46,"x_max":740.25,"ha":828,"o":"m 503 112 q 267 -20 413 -20 q 88 60 148 -20 q 46 199 46 117 q 53 272 46 233 q 266 635 99 512 q 579 741 408 741 q 734 721 694 741 l 608 72 l 715 72 l 701 0 l 481 0 l 503 112 m 178 203 q 318 58 178 58 q 461 126 403 58 q 545 324 519 194 l 608 652 l 608 652 q 553 672 608 672 q 322 570 423 672 q 186 281 222 467 q 178 203 178 238 m 315 1090 l 380 1090 q 410 1013 380 1037 q 508 989 440 989 q 616 1013 576 989 q 675 1091 656 1037 l 740 1091 q 651 944 714 993 q 490 896 588 896 q 347 944 391 896 q 315 1090 303 993 m 591 1445 q 730 1372 715 1445 q 730 1332 734 1354 q 694 1261 723 1299 q 597 1174 650 1201 l 586 1121 l 486 1121 l 501 1197 q 604 1254 581 1233 q 631 1299 626 1273 q 605 1357 639 1340 q 560 1366 588 1366 q 451 1342 510 1366 l 468 1431 q 567 1445 500 1445 q 591 1445 580 1445 "},"♣":{"x_min":155,"x_max":1089.65625,"ha":1245,"o":"m 623 1012 q 837 857 768 1012 q 847 784 847 822 q 766 596 847 705 l 725 556 l 728 556 q 835 575 778 575 l 848 575 q 1074 438 1009 575 q 1089 352 1089 393 q 948 143 1089 213 q 873 131 921 135 q 640 317 708 131 l 638 317 l 638 310 q 694 4 638 78 l 694 0 l 552 0 l 548 4 q 606 316 606 90 l 606 319 l 603 319 q 370 131 536 131 q 171 267 241 131 q 155 352 155 313 q 321 566 155 510 q 400 575 366 575 l 407 575 q 517 556 465 575 l 520 556 l 520 558 q 443 653 463 606 q 403 782 403 727 l 403 792 q 548 999 403 928 q 623 1012 596 1012 "},"ᴹ":{"x_min":-13.5625,"x_max":913.5,"ha":896,"o":"m -13 453 l -4 493 l 75 493 l 182 979 l 96 979 l 105 1020 l 291 1020 l 427 616 l 739 1020 l 913 1020 l 904 979 l 819 979 l 713 493 l 794 493 l 786 453 l 536 453 l 545 493 l 626 493 l 722 931 l 417 536 l 356 536 l 224 931 l 128 493 l 210 493 l 201 453 l -13 453 "},"¶":{"x_min":156.109375,"x_max":905.359375,"ha":884,"o":"m 540 1014 l 905 1014 l 891 941 l 811 941 l 602 -133 l 530 -133 l 738 941 l 581 941 l 373 -133 l 301 -133 l 412 446 q 203 522 268 446 q 162 724 138 598 q 291 934 187 854 q 540 1014 394 1014 "},"Ụ":{"x_min":151.234375,"x_max":1208.5,"ha":1171,"o":"m 280 940 l 151 940 l 165 1013 l 561 1013 l 547 940 l 417 940 l 316 416 q 326 145 278 222 q 531 69 375 69 q 764 145 686 69 q 880 416 842 222 l 981 940 l 852 940 l 866 1013 l 1208 1013 l 1194 940 l 1065 940 l 960 402 q 808 75 916 171 q 488 -20 701 -20 q 203 76 275 -20 q 176 402 131 172 l 280 940 m 449 -130 q 509 -107 477 -107 q 561 -130 542 -107 q 573 -186 579 -153 q 540 -243 566 -221 q 478 -266 513 -266 q 426 -243 444 -266 q 415 -186 408 -221 q 449 -130 421 -153 "},"­":{"x_min":50.859375,"x_max":418.4375,"ha":469,"o":"m 71 426 l 418 426 l 398 320 l 50 320 l 71 426 "},"ḳ":{"x_min":56.96875,"x_max":761.578125,"ha":842,"o":"m 457 450 l 657 72 l 761 72 l 748 0 l 547 0 l 351 368 l 235 277 l 181 0 l 56 0 l 248 984 l 128 984 l 141 1056 l 386 1056 l 252 368 l 611 649 l 507 649 l 521 722 l 724 722 l 710 649 l 457 450 m 248 -130 q 308 -107 276 -107 q 360 -130 341 -107 q 372 -186 378 -153 q 339 -243 365 -221 q 277 -266 311 -266 q 225 -243 242 -266 q 213 -186 206 -221 q 248 -130 219 -153 "},"ѫ":{"x_min":39.109375,"x_max":1289.375,"ha":1278,"o":"m 141 -20 q 65 8 107 -20 q 46 148 24 36 l 108 160 q 151 63 108 63 q 220 111 192 63 l 316 278 q 442 396 363 358 q 606 434 522 434 l 409 662 l 421 721 l 1137 721 l 1125 662 l 839 434 q 989 396 923 434 q 1069 278 1054 358 l 1100 111 q 1153 63 1110 63 q 1229 160 1197 63 l 1289 148 q 1214 8 1266 36 q 1127 -20 1162 -20 q 1007 18 1031 -20 q 970 122 983 56 l 950 227 q 890 330 935 311 q 786 350 845 350 l 769 350 l 701 0 l 576 0 l 644 350 l 627 350 q 515 330 568 350 q 415 227 463 311 l 354 122 q 277 18 317 56 q 141 -20 238 -20 m 605 648 l 765 461 l 999 648 l 605 648 "},"Ѝ":{"x_min":-21.015625,"x_max":1233.59375,"ha":1211,"o":"m -21 0 l -7 72 l 121 72 l 290 940 l 161 940 l 175 1013 l 571 1013 l 556 940 l 427 940 l 306 314 l 930 825 l 952 940 l 823 940 l 838 1013 l 1233 1013 l 1219 940 l 1090 940 l 921 72 l 1050 72 l 1036 0 l 641 0 l 655 72 l 784 72 l 906 698 l 281 186 l 259 72 l 387 72 l 374 0 l -21 0 m 735 1288 l 824 1109 l 745 1109 l 602 1288 l 735 1288 "},"̯":{"x_min":-577.109375,"x_max":-149.921875,"ha":0,"o":"m -152 -301 l -217 -301 q -247 -223 -217 -247 q -345 -199 -277 -199 q -453 -223 -413 -199 q -512 -301 -493 -247 l -577 -301 q -488 -154 -551 -203 q -326 -106 -425 -106 q -184 -154 -228 -106 q -152 -301 -140 -203 "},"⬌":{"x_min":52,"x_max":1113,"ha":1165,"o":"m 376 630 l 788 630 l 788 733 l 829 733 l 1113 453 l 1113 446 l 829 166 l 788 166 l 788 270 l 376 270 l 376 166 l 334 166 l 52 446 l 52 453 l 334 733 l 376 733 l 376 630 "},"ᶹ":{"x_min":110.546875,"x_max":534.484375,"ha":645,"o":"m 380 829 l 427 829 q 516 755 488 805 q 530 647 543 707 q 495 568 521 604 q 427 503 468 530 q 348 465 391 478 q 259 452 305 452 q 153 488 190 452 q 134 587 120 519 l 185 816 l 110 816 l 119 857 l 273 857 l 213 587 q 215 514 202 537 q 268 491 229 491 q 380 540 322 491 q 444 653 428 581 q 439 750 457 711 q 375 806 421 789 l 380 829 "},"ǲ":{"x_min":-21.015625,"x_max":1852.078125,"ha":1845,"o":"m 1666 661 q 1811 721 1740 661 l 1852 721 l 1841 662 l 1348 148 q 1374 140 1354 146 q 1420 118 1397 133 l 1454 97 q 1563 59 1517 59 q 1757 160 1652 59 l 1740 78 q 1536 -35 1624 -35 q 1407 12 1483 -35 q 1285 59 1332 59 q 1140 0 1211 59 l 1099 0 l 1110 58 l 1604 572 q 1577 580 1597 574 q 1531 603 1554 588 l 1498 623 q 1388 662 1434 662 q 1194 560 1299 662 l 1211 642 q 1415 756 1327 756 q 1544 708 1468 756 q 1666 661 1619 661 m 259 72 l 385 72 q 710 184 582 72 q 878 507 837 297 q 835 828 919 717 q 554 940 752 940 l 427 940 l 259 72 m -21 0 l -7 72 l 121 72 l 290 940 l 161 940 l 175 1013 l 578 1013 q 960 879 840 1013 q 1034 507 1081 745 q 815 134 988 268 q 381 0 642 0 l -21 0 "},"⤆":{"x_min":52.015625,"x_max":1085,"ha":1164,"o":"m 975 716 l 1085 716 l 1085 183 l 975 183 l 975 276 l 281 276 l 342 166 l 334 166 l 52 446 l 52 452 l 334 732 l 342 732 l 281 623 l 975 623 l 975 716 m 975 386 l 975 513 l 221 513 l 186 449 l 221 386 l 975 386 "},"Ƨ":{"x_min":64.390625,"x_max":905.375,"ha":951,"o":"m 748 48 q 562 -2 652 14 q 389 -20 472 -20 q 123 54 202 -20 q 71 276 43 129 q 164 449 92 384 q 381 554 235 512 l 514 591 q 708 673 657 632 q 772 787 758 714 q 741 914 788 870 q 586 958 693 958 q 394 910 463 958 q 292 756 324 862 l 216 756 l 257 970 q 445 1016 358 1000 q 603 1031 533 1031 q 846 959 769 1031 q 899 759 924 888 q 804 579 876 645 q 579 469 732 513 l 437 429 q 260 352 306 391 q 200 239 214 313 q 237 100 183 148 q 411 53 290 53 q 615 108 541 53 q 715 279 689 163 l 793 279 l 748 48 "},"У":{"x_min":40.015625,"x_max":1087.78125,"ha":1004,"o":"m 391 76 q 207 -20 297 -20 q 132 -8 179 -20 q 40 26 86 3 l 62 139 l 139 139 q 160 86 135 120 q 223 53 185 53 q 322 103 280 53 l 387 187 l 210 940 l 102 940 l 116 1013 l 518 1013 l 503 940 l 384 940 l 515 384 l 871 940 l 741 940 l 755 1013 l 1087 1013 l 1073 940 l 959 940 l 442 137 q 391 76 423 106 "},"ᾢ":{"x_min":45.421875,"x_max":1077.984375,"ha":1133,"o":"m 733 1109 l 859 855 l 780 855 l 600 1109 l 733 1109 m 488 1152 q 554 1114 535 1152 q 561 1060 566 1090 l 559 1050 q 415 846 543 940 q 410 842 411 844 l 363 863 q 445 970 427 914 q 394 997 413 973 q 381 1060 373 1022 q 432 1134 389 1108 q 488 1152 458 1152 m 518 131 q 300 -3 408 -3 q 183 21 237 -3 q 100 89 143 39 q 48 205 64 132 q 59 345 39 245 q 150 589 88 500 q 331 720 206 667 l 407 720 l 400 680 q 268 579 326 648 q 200 357 236 541 q 198 156 174 228 q 314 66 226 66 q 399 107 360 66 q 480 253 465 177 l 527 498 l 652 498 l 604 253 q 628 107 590 177 q 698 66 651 66 q 849 156 785 66 q 925 357 900 228 q 944 579 961 541 q 851 680 911 648 l 859 721 l 935 721 q 1064 589 1039 667 q 1062 346 1092 501 q 1017 206 1043 247 q 920 90 973 133 q 811 21 858 39 q 684 -3 747 -3 q 518 131 579 -3 m 567 -277 l 516 -288 q 418 -171 389 -315 l 435 -83 l 536 -83 l 517 -180 q 541 -234 505 -243 l 577 -225 l 567 -277 "},"ү":{"x_min":82.0625,"x_max":807.015625,"ha":793,"o":"m 82 649 l 96 722 l 283 722 l 404 148 q 694 649 585 388 l 596 649 l 610 722 l 807 722 q 419 34 661 335 l 356 -288 l 231 -288 l 295 34 l 164 649 l 82 649 "},"Ί":{"x_min":100.375,"x_max":802.28125,"ha":781,"o":"m 490 72 l 619 72 l 605 0 l 210 0 l 223 72 l 352 72 l 521 940 l 392 940 l 406 1013 l 802 1013 l 788 940 l 659 940 l 490 72 m 325 1112 l 460 1112 l 179 856 l 100 856 l 325 1112 "},"⇑":{"x_min":298.125,"x_max":864.859375,"ha":1163,"o":"m 298 742 l 298 750 l 578 1033 l 584 1033 l 864 750 l 864 742 l 755 803 l 755 0 l 645 0 l 645 863 l 581 898 l 518 863 l 518 0 l 408 0 l 408 803 l 298 742 "},"┅":{"x_min":-13,"x_max":850,"ha":837,"o":"m 641 278 l 641 511 l 850 511 l 850 278 l 641 278 m 318 278 l 318 511 l 519 511 l 519 278 l 318 278 m -13 278 l -13 511 l 196 511 l 196 278 l -13 278 "},"︄":{"x_min":0,"x_max":0,"ha":0},"⅓":{"x_min":64.421875,"x_max":1281.296875,"ha":1346,"o":"m 923 542 q 1023 569 976 560 q 1110 578 1070 578 q 1247 541 1204 578 q 1278 437 1291 504 q 1226 354 1268 388 q 1116 309 1184 320 q 1228 258 1195 298 q 1249 150 1262 217 q 1166 31 1233 72 q 988 -10 1099 -10 q 894 0 939 -10 q 807 27 849 8 l 829 143 l 876 143 q 898 66 870 92 q 988 40 926 40 q 1092 69 1052 40 q 1144 155 1133 99 q 1128 250 1156 218 q 1031 283 1099 283 l 995 283 l 1005 333 l 1023 333 q 1127 358 1089 333 q 1175 433 1165 383 q 1162 503 1184 479 q 1087 528 1139 528 q 998 506 1032 528 q 951 441 964 484 l 904 441 l 923 542 m 1043 1031 l 1145 1031 l 301 -19 l 200 -19 l 1043 1031 m 64 453 l 75 510 l 191 510 l 275 940 l 125 868 l 137 932 l 317 1019 l 386 1019 l 287 510 l 404 510 l 394 453 l 64 453 "},"Ģ":{"x_min":64.25,"x_max":1051.0625,"ha":1109,"o":"m 457 -278 q 532 -212 508 -250 q 556 -119 556 -174 l 556 -105 l 660 -105 q 620 -224 660 -174 q 500 -311 580 -274 l 457 -278 m 929 710 q 865 897 929 836 q 668 958 802 958 q 385 845 493 958 q 232 505 277 732 q 256 167 189 282 q 494 53 322 53 q 644 71 571 53 q 789 128 718 90 l 840 390 l 649 390 l 663 463 l 992 463 l 918 84 q 708 6 817 32 q 480 -20 599 -20 q 141 123 251 -20 q 77 505 31 267 q 290 888 124 745 q 690 1031 456 1031 q 866 1010 777 1031 q 1051 949 954 990 l 1004 710 l 929 710 "},"ᾇ":{"x_min":58.25,"x_max":909.984375,"ha":938,"o":"m 553 1152 q 603 1134 583 1152 q 625 1060 635 1108 q 587 995 618 1021 q 524 972 560 972 q 566 862 524 914 l 511 842 q 507 846 510 843 q 443 1050 415 940 l 445 1060 q 472 1114 451 1090 q 553 1152 507 1152 m 574 1231 l 543 1268 q 518 1289 528 1284 q 495 1295 508 1295 q 445 1267 467 1295 q 410 1190 423 1241 l 345 1190 q 408 1331 364 1281 q 514 1381 452 1381 q 560 1371 540 1381 q 601 1339 580 1362 l 632 1302 q 656 1281 645 1286 q 680 1276 666 1276 q 731 1303 709 1276 q 764 1382 752 1330 l 829 1382 q 766 1239 810 1289 q 661 1190 722 1190 q 614 1199 635 1190 q 574 1231 595 1209 m 564 177 l 521 102 q 417 7 489 44 q 296 -17 371 -17 q 100 86 162 -17 q 69 362 36 192 q 206 637 101 528 q 473 740 306 740 q 638 694 589 740 q 684 566 684 654 l 684 541 l 726 616 q 841 724 764 688 l 909 724 l 901 683 q 798 599 832 662 l 695 406 l 695 199 q 724 81 695 93 q 852 115 757 64 l 836 33 q 602 36 684 -46 q 564 129 564 74 l 564 177 m 557 310 l 557 510 q 464 669 557 669 q 311 586 387 669 q 218 363 249 518 q 224 140 189 216 q 353 58 261 58 q 521 228 432 58 l 557 310 m 380 -277 l 330 -288 q 231 -171 203 -315 l 248 -83 l 349 -83 l 330 -180 q 355 -234 318 -243 l 391 -225 l 380 -277 "},"⣂":{"x_min":193,"x_max":824,"ha":1017,"o":"m 193 599 q 224 679 193 646 q 304 712 256 712 q 384 679 351 712 q 417 599 417 646 q 384 519 417 552 q 304 487 351 487 q 224 519 256 487 q 193 599 193 552 m 193 -169 q 224 -89 193 -122 q 304 -57 256 -57 q 384 -89 351 -57 q 417 -169 417 -122 q 384 -249 417 -216 q 304 -282 351 -282 q 224 -249 256 -282 q 193 -169 193 -216 m 600 -169 q 631 -89 600 -122 q 712 -57 663 -57 q 791 -89 758 -57 q 824 -169 824 -122 q 791 -249 824 -216 q 712 -282 758 -282 q 631 -249 663 -282 q 600 -169 600 -216 "},"⡞":{"x_min":193,"x_max":824,"ha":1017,"o":"m 193 599 q 224 679 193 646 q 304 712 256 712 q 384 679 351 712 q 417 599 417 646 q 384 519 417 552 q 304 487 351 487 q 224 519 256 487 q 193 599 193 552 m 193 215 q 224 295 193 262 q 304 328 256 328 q 384 295 351 328 q 417 215 417 262 q 384 135 417 168 q 304 103 351 103 q 224 135 256 103 q 193 215 193 168 m 600 983 q 631 1063 600 1030 q 712 1096 663 1096 q 791 1063 758 1096 q 824 983 824 1030 q 791 903 824 936 q 712 871 758 871 q 631 903 663 871 q 600 983 600 936 m 600 599 q 631 679 600 646 q 712 712 663 712 q 791 679 758 712 q 824 599 824 646 q 791 519 824 552 q 712 487 758 487 q 631 519 663 487 q 600 599 600 552 m 193 -169 q 224 -89 193 -122 q 304 -57 256 -57 q 384 -89 351 -57 q 417 -169 417 -122 q 384 -249 417 -216 q 304 -282 351 -282 q 224 -249 256 -282 q 193 -169 193 -216 "},"ǌ":{"x_min":97.4375,"x_max":1303,"ha":1325,"o":"m 97 0 l 223 648 l 104 648 l 117 721 l 361 721 l 337 592 q 448 703 386 666 q 584 741 511 741 q 747 672 703 741 q 773 561 773 630 q 761 458 773 515 l 686 72 l 797 72 l 783 0 l 547 0 l 628 418 q 642 535 642 488 q 631 600 642 576 q 526 650 608 650 q 381 586 439 650 q 300 401 323 522 l 222 0 l 97 0 m 1148 944 q 1180 998 1153 975 q 1240 1022 1208 1022 q 1289 998 1271 1022 q 1303 959 1303 981 q 1301 944 1303 952 q 1268 890 1294 912 q 1210 868 1242 868 q 1159 890 1178 868 q 1146 929 1146 907 q 1148 944 1146 936 m 1120 648 l 1002 648 l 1016 721 l 1259 721 l 1105 -70 q 1005 -245 1084 -182 q 810 -309 926 -309 q 719 -297 762 -309 q 639 -264 677 -286 l 669 -116 l 734 -116 q 732 -147 732 -132 q 748 -211 732 -189 q 827 -241 771 -241 q 926 -200 889 -241 q 981 -70 963 -158 l 1120 648 "},"⁵":{"x_min":21.015625,"x_max":538.46875,"ha":557,"o":"m 538 1010 l 524 949 l 210 949 l 172 790 q 233 810 200 803 q 306 817 267 817 q 468 766 415 817 q 500 630 520 717 q 402 492 479 542 q 209 443 326 443 q 115 452 162 443 q 21 481 67 462 l 46 589 l 98 589 q 120 508 89 537 q 218 480 151 480 q 338 519 290 480 q 404 630 386 557 q 391 741 421 702 q 289 780 362 780 q 214 767 248 780 q 149 731 180 756 l 110 731 l 177 1010 l 538 1010 "},"ჶ":{"x_min":52,"x_max":1187,"ha":1244,"o":"m 1004 373 q 1027 473 1020 431 q 1035 545 1035 515 q 1025 603 1035 582 q 999 635 1016 624 q 958 648 982 645 q 908 652 935 652 q 855 648 883 652 q 801 632 827 645 q 754 592 776 619 q 717 516 732 564 l 635 222 q 628 183 628 200 q 641 137 628 155 q 674 108 653 119 q 720 92 694 97 q 774 88 746 88 q 840 98 809 88 q 899 140 871 109 q 952 226 927 171 q 1004 373 978 282 m 280 0 q 186 10 228 0 q 114 46 144 21 q 68 109 84 70 q 52 205 52 149 q 58 280 52 240 q 78 369 64 320 q 150 539 106 469 q 247 653 193 609 q 363 717 301 697 q 490 738 424 738 q 521 734 502 738 q 560 724 539 731 q 602 708 580 717 q 643 686 623 698 l 654 686 q 693 801 675 756 q 736 873 712 846 q 792 914 760 900 q 871 933 824 927 l 871 904 q 840 886 853 896 q 818 862 827 875 q 803 835 809 849 q 792 804 796 820 l 760 692 l 779 692 q 821 711 799 703 q 867 725 844 719 q 913 734 890 731 q 958 738 936 738 q 1051 726 1009 738 q 1124 688 1094 714 q 1170 623 1153 663 q 1187 527 1187 583 q 1181 458 1187 495 q 1163 378 1175 421 q 1090 198 1132 270 q 996 82 1048 126 q 883 19 944 38 q 750 0 821 0 q 666 9 708 0 q 594 39 624 19 l 582 39 l 547 -86 q 435 -256 515 -199 q 219 -313 356 -313 l 239 -244 l 296 -244 q 335 -228 315 -244 q 372 -186 354 -212 q 405 -126 390 -159 q 429 -58 419 -93 l 592 513 q 600 563 600 542 q 586 611 600 593 q 552 638 573 629 q 509 649 532 647 q 468 652 487 652 q 404 641 434 652 q 344 600 373 631 q 288 514 314 569 q 235 369 261 458 q 210 264 217 308 q 203 188 203 220 q 210 135 203 156 q 231 103 217 114 q 264 87 245 91 q 308 83 284 83 l 280 0 "},"á":{"x_min":47,"x_max":755.484375,"ha":828,"o":"m 504 112 q 268 -20 414 -20 q 89 60 149 -20 q 47 199 47 117 q 54 272 47 233 q 267 635 100 512 q 580 741 409 741 q 735 721 695 741 l 609 72 l 716 72 l 702 0 l 483 0 l 504 112 m 179 203 q 319 58 179 58 q 462 126 404 58 q 546 324 520 194 l 609 652 l 609 652 q 554 672 609 672 q 323 570 424 672 q 187 281 223 467 q 179 203 179 238 m 620 1111 l 755 1111 l 474 856 l 395 856 l 620 1111 "},"⠂":{"x_min":193,"x_max":417,"ha":1017,"o":"m 193 599 q 224 679 193 646 q 304 712 256 712 q 384 679 351 712 q 417 599 417 646 q 384 519 417 552 q 304 487 351 487 q 224 519 256 487 q 193 599 193 552 "},"𝜓":{"x_min":178.359375,"x_max":1099.984375,"ha":1089,"o":"m 509 -289 l 384 -289 l 440 -5 q 322 19 377 -5 q 240 88 282 37 q 187 205 200 136 q 201 356 180 246 q 219 579 230 506 q 178 681 208 655 l 186 721 l 254 721 q 341 589 322 651 q 339 356 367 501 q 337 155 314 228 q 453 66 366 66 l 581 721 l 706 721 l 579 66 q 729 155 664 66 q 804 356 779 228 q 893 589 835 511 q 1031 721 944 657 l 1099 721 l 1091 681 q 1011 579 1053 656 q 942 356 972 508 q 897 205 921 246 q 800 88 857 136 q 691 19 738 37 q 565 -5 627 -5 l 509 -289 "},"⇥":{"x_min":79.8125,"x_max":1085,"ha":1164,"o":"m 79 505 l 859 505 l 728 733 l 735 733 l 975 496 l 975 716 l 1085 716 l 1085 183 l 975 183 l 975 403 l 735 166 l 728 166 l 859 395 l 79 395 l 79 505 "},"K":{"x_min":-21.015625,"x_max":1104.734375,"ha":1038,"o":"m -21 0 l -7 72 l 121 72 l 290 940 l 161 940 l 175 1013 l 571 1013 l 556 940 l 427 940 l 353 557 l 863 940 l 754 940 l 768 1013 l 1104 1013 l 1090 940 l 976 940 l 467 558 l 859 72 l 974 72 l 960 0 l 725 0 l 339 481 l 259 72 l 387 72 l 374 0 l -21 0 "},"Y":{"x_min":68.5,"x_max":1027.421875,"ha":917,"o":"m 164 0 l 177 72 l 307 72 l 378 436 l 163 940 l 68 940 l 82 1013 l 459 1013 l 444 940 l 326 940 l 500 530 l 832 940 l 718 940 l 733 1013 l 1027 1013 l 1013 940 l 917 940 l 518 449 l 444 72 l 573 72 l 560 0 l 164 0 "},"E":{"x_min":-21.015625,"x_max":990.8125,"ha":1014,"o":"m -21 0 l -7 72 l 121 72 l 290 940 l 161 940 l 175 1013 l 990 1013 l 947 787 l 863 787 l 891 929 l 425 929 l 360 590 l 691 590 l 716 716 l 799 716 l 734 380 l 651 380 l 675 507 l 343 507 l 261 83 l 737 83 l 764 225 l 848 225 l 804 0 l -21 0 "},"Ƥ":{"x_min":-93.59375,"x_max":935.078125,"ha":935,"o":"m 304 1013 l 654 1013 q 880 936 806 1013 q 928 728 954 858 q 799 520 903 597 q 543 443 695 443 l 331 443 l 259 72 l 415 72 l 402 0 l -21 0 l -7 72 l 121 72 l 290 940 q 78 880 136 940 q -6 692 18 818 l -93 692 l -48 925 q 158 1001 27 975 q 304 1013 238 1013 m 345 516 l 524 516 q 689 570 625 516 q 772 728 752 625 q 750 886 792 832 q 606 940 708 940 l 427 940 l 345 516 "},"Ï":{"x_min":-21.015625,"x_max":624.71875,"ha":549,"o":"m 259 72 l 387 72 l 374 0 l -21 0 l -7 72 l 121 72 l 290 940 l 161 940 l 175 1013 l 571 1013 l 556 940 l 427 940 l 259 72 m 295 1278 q 346 1254 328 1278 q 359 1199 365 1230 q 325 1143 352 1165 q 264 1120 298 1120 q 212 1143 231 1120 q 201 1199 194 1165 q 235 1254 207 1230 q 295 1278 263 1278 m 560 1278 q 610 1254 592 1278 q 623 1199 629 1230 q 589 1143 616 1165 q 528 1120 562 1120 q 476 1143 495 1120 q 465 1199 458 1165 q 499 1254 471 1230 q 560 1278 527 1278 "},"𝜅":{"x_min":-12.203125,"x_max":891.109375,"ha":911,"o":"m 472 721 l 458 648 l 351 648 l 296 368 l 655 649 l 551 649 l 564 722 l 891 722 l 877 649 l 754 649 l 501 450 l 701 72 l 804 72 l 791 0 l 436 0 l 449 72 l 552 72 l 394 368 l 278 276 l 238 72 l 351 72 l 337 0 l -12 0 l 1 72 l 113 72 l 226 650 l 107 650 l 120 721 l 472 721 "},"ῶ":{"x_min":45.421875,"x_max":1077.984375,"ha":1133,"o":"m 518 131 q 300 -3 408 -3 q 183 21 237 -3 q 100 89 143 39 q 48 205 64 132 q 59 345 39 245 q 150 589 88 500 q 331 720 206 667 l 407 720 l 400 680 q 268 579 326 648 q 200 357 236 541 q 198 156 174 228 q 314 66 226 66 q 399 107 360 66 q 480 253 465 177 l 527 498 l 652 498 l 604 253 q 628 107 590 177 q 698 66 651 66 q 849 156 785 66 q 925 357 900 228 q 944 579 961 541 q 851 680 911 648 l 859 721 l 935 721 q 1064 589 1039 667 q 1062 346 1092 501 q 1017 206 1043 247 q 920 90 973 133 q 811 21 858 39 q 684 -3 747 -3 q 518 131 579 -3 m 692 865 l 661 902 q 636 923 646 918 q 613 929 626 929 q 563 901 585 929 q 528 824 541 875 l 463 824 q 526 965 482 915 q 632 1015 571 1015 q 678 1005 658 1015 q 719 973 698 996 l 750 936 q 773 915 762 920 q 798 910 783 910 q 849 937 827 910 q 882 1015 870 964 l 948 1015 q 885 873 929 923 q 779 824 840 824 q 733 833 753 824 q 692 865 713 842 "},"ȴ":{"x_min":111.21875,"x_max":611.34375,"ha":695,"o":"m 282 111 q 410 47 316 47 q 531 119 517 47 q 472 203 548 203 q 282 111 350 203 m 266 361 q 256 181 246 253 q 498 277 370 277 q 605 115 636 277 q 395 -20 579 -20 q 228 28 291 -20 q 207 -51 218 6 l 188 -148 l 111 -148 l 130 -51 q 172 71 146 17 l 162 84 q 141 361 110 200 l 263 984 l 143 984 l 157 1056 l 402 1056 l 266 361 "},"Ɖ":{"x_min":-14.234375,"x_max":1054.078125,"ha":1121,"o":"m 264 72 l 391 72 q 717 184 589 72 q 886 507 845 297 q 842 828 927 717 q 560 940 758 940 l 433 940 l 362 573 l 590 573 l 573 488 l 345 488 l 264 72 m -14 0 l 0 72 l 128 72 l 209 488 l 73 488 l 90 573 l 225 573 l 297 940 l 168 940 l 182 1013 l 585 1013 q 967 879 847 1013 q 1040 507 1087 745 q 822 134 994 268 q 388 0 649 0 l -14 0 "},"⢯":{"x_min":193,"x_max":824,"ha":1017,"o":"m 193 983 q 224 1063 193 1030 q 304 1096 256 1096 q 384 1063 351 1096 q 417 983 417 1030 q 384 903 417 936 q 304 871 351 871 q 224 903 256 871 q 193 983 193 936 m 193 599 q 224 679 193 646 q 304 712 256 712 q 384 679 351 712 q 417 599 417 646 q 384 519 417 552 q 304 487 351 487 q 224 519 256 487 q 193 599 193 552 m 193 215 q 224 295 193 262 q 304 328 256 328 q 384 295 351 328 q 417 215 417 262 q 384 135 417 168 q 304 103 351 103 q 224 135 256 103 q 193 215 193 168 m 600 983 q 631 1063 600 1030 q 712 1096 663 1096 q 791 1063 758 1096 q 824 983 824 1030 q 791 903 824 936 q 712 871 758 871 q 631 903 663 871 q 600 983 600 936 m 600 215 q 631 295 600 262 q 712 328 663 328 q 791 295 758 328 q 824 215 824 262 q 791 135 824 168 q 712 103 758 103 q 631 135 663 103 q 600 215 600 168 m 600 -169 q 631 -89 600 -122 q 712 -57 663 -57 q 791 -89 758 -57 q 824 -169 824 -122 q 791 -249 824 -216 q 712 -282 758 -282 q 631 -249 663 -282 q 600 -169 600 -216 "},"K":{"x_min":-21.015625,"x_max":1104.734375,"ha":1038,"o":"m -21 0 l -7 72 l 121 72 l 290 940 l 161 940 l 175 1013 l 571 1013 l 556 940 l 427 940 l 353 557 l 863 940 l 754 940 l 768 1013 l 1104 1013 l 1090 940 l 976 940 l 467 558 l 859 72 l 974 72 l 960 0 l 725 0 l 339 481 l 259 72 l 387 72 l 374 0 l -21 0 "},"┞":{"x_min":309,"x_max":849.484375,"ha":836,"o":"m 363 -418 l 363 337 l 309 337 l 309 1352 l 526 1352 l 526 454 l 849 454 l 849 337 l 472 337 l 472 -418 l 363 -418 "},"ϋ":{"x_min":106.46875,"x_max":789.078125,"ha":844,"o":"m 410 1064 q 462 1040 443 1064 q 474 984 480 1017 q 441 927 467 949 q 379 905 414 905 q 328 927 345 905 q 316 984 309 949 q 351 1040 322 1017 q 410 1064 379 1064 m 675 1064 q 726 1040 707 1064 q 738 984 744 1017 q 705 927 731 949 q 644 905 678 905 q 592 927 609 905 q 580 984 573 949 q 615 1040 586 1017 q 675 1064 642 1064 m 570 721 l 646 721 q 775 588 750 667 q 773 345 803 500 q 717 205 758 270 q 611 88 674 137 q 484 19 553 43 q 343 -3 416 -3 q 174 63 233 -3 q 145 237 122 119 l 225 648 l 106 648 l 120 721 l 364 721 l 271 237 q 273 108 253 148 q 358 66 295 66 q 535 155 442 66 q 636 356 611 227 q 655 579 672 539 q 562 680 622 648 l 570 721 "},"⥗":{"x_min":79.8125,"x_max":1085,"ha":1164,"o":"m 975 505 l 975 716 l 1085 716 l 1085 183 l 975 183 l 975 403 l 735 166 l 728 166 l 859 395 l 79 395 l 79 505 l 975 505 "},"ἶ":{"x_min":107.15625,"x_max":610.359375,"ha":545,"o":"m 337 1153 q 402 1115 383 1153 q 409 1062 415 1091 l 407 1051 q 263 847 391 941 q 258 843 259 844 l 211 863 q 293 971 276 915 q 242 998 261 974 q 229 1062 221 1024 q 280 1136 238 1109 q 337 1153 306 1153 m 354 1232 l 323 1269 q 299 1290 309 1285 q 276 1296 288 1296 q 225 1268 247 1296 q 191 1191 204 1242 l 126 1191 q 189 1332 145 1282 q 295 1382 233 1382 q 341 1372 320 1382 q 381 1340 360 1363 l 413 1303 q 436 1282 425 1287 q 460 1277 446 1277 q 511 1304 489 1277 q 545 1382 533 1331 l 610 1382 q 547 1240 591 1290 q 441 1191 503 1191 q 395 1200 415 1191 q 354 1232 375 1209 m 137 197 l 226 649 l 107 649 l 121 722 l 365 722 l 263 197 q 290 79 244 102 q 419 112 325 62 l 403 30 q 169 34 249 -48 q 137 197 116 88 "},"𝜄":{"x_min":107.15625,"x_max":419.109375,"ha":545,"o":"m 137 197 l 226 649 l 107 649 l 121 722 l 365 722 l 263 197 q 290 79 244 102 q 419 112 325 62 l 403 30 q 169 34 249 -48 q 137 197 116 88 "},"ⅰ":{"x_min":70.84375,"x_max":375,"ha":444,"o":"m 219 945 q 252 999 225 976 q 311 1023 279 1023 q 360 999 342 1023 q 375 960 375 982 q 372 945 375 953 q 340 891 366 913 q 281 869 313 869 q 231 891 249 869 q 218 930 218 908 q 219 945 218 937 m 209 72 l 326 72 l 313 0 l 70 0 l 196 649 l 76 649 l 91 722 l 335 722 l 209 72 "},"b":{"x_min":59.984375,"x_max":801,"ha":890,"o":"m 250 984 l 130 984 l 144 1056 l 389 1056 l 302 608 q 415 708 352 676 q 562 741 478 741 q 758 635 695 741 q 801 469 801 566 q 789 360 801 418 q 651 85 756 191 q 414 -20 547 -20 q 280 12 330 -20 q 206 112 229 44 l 184 0 l 59 0 l 250 984 m 247 324 q 237 228 237 271 q 258 125 237 166 q 390 58 295 58 q 550 134 486 58 q 643 360 614 211 q 657 483 657 429 q 638 586 657 545 q 507 663 604 663 q 349 594 412 663 q 261 396 286 525 l 247 324 "},"𝑇":{"x_min":65.78125,"x_max":1011.15625,"ha":926,"o":"m 166 0 l 180 72 l 309 72 l 477 932 l 179 932 l 149 773 l 65 773 l 111 1013 l 1011 1013 l 965 773 l 881 773 l 912 932 l 614 932 l 446 72 l 576 72 l 562 0 l 166 0 "},"⢨":{"x_min":600,"x_max":824,"ha":1017,"o":"m 600 983 q 631 1063 600 1030 q 712 1096 663 1096 q 791 1063 758 1096 q 824 983 824 1030 q 791 903 824 936 q 712 871 758 871 q 631 903 663 871 q 600 983 600 936 m 600 215 q 631 295 600 262 q 712 328 663 328 q 791 295 758 328 q 824 215 824 262 q 791 135 824 168 q 712 103 758 103 q 631 135 663 103 q 600 215 600 168 m 600 -169 q 631 -89 600 -122 q 712 -57 663 -57 q 791 -89 758 -57 q 824 -169 824 -122 q 791 -249 824 -216 q 712 -282 758 -282 q 631 -249 663 -282 q 600 -169 600 -216 "},"≕":{"x_min":147,"x_max":1288,"ha":1435,"o":"m 1107 574 q 1133 638 1107 612 q 1197 665 1159 665 q 1261 638 1235 665 q 1288 574 1288 611 q 1261 510 1288 536 q 1197 484 1235 484 q 1133 509 1159 484 q 1107 574 1107 535 m 1107 297 q 1133 361 1107 335 q 1197 388 1159 388 q 1261 361 1235 388 q 1288 297 1288 334 q 1261 233 1288 259 q 1197 207 1235 207 q 1133 232 1159 207 q 1107 297 1107 258 m 147 629 l 1016 629 l 1016 520 l 147 520 l 147 629 m 147 352 l 1016 352 l 1016 243 l 147 243 l 147 352 "},"ﬂ":{"x_min":-86.125,"x_max":893.828125,"ha":926,"o":"m 217 649 l 98 649 l 112 722 l 231 722 l 244 787 q 365 989 271 923 q 624 1056 459 1056 l 893 1056 l 702 72 l 821 72 l 807 0 l 564 0 l 754 984 l 609 984 q 444 940 498 984 q 370 789 390 896 l 356 722 l 556 722 l 542 649 l 342 649 l 208 -44 q 109 -227 184 -165 q -86 -289 35 -289 l -77 -222 q 27 -184 -6 -222 q 83 -44 63 -143 l 217 649 "},"ɢ":{"x_min":59.125,"x_max":752.828125,"ha":755,"o":"m 345 -22 l 345 -22 m 364 38 l 364 38 m 645 492 q 609 630 645 598 q 480 674 562 674 q 315 591 392 674 q 207 347 239 511 q 222 104 175 183 q 424 37 263 37 q 518 57 465 37 q 565 77 556 72 l 602 272 l 468 272 l 478 324 l 708 324 l 655 51 q 508 -5 585 13 q 349 -25 432 -25 q 111 78 188 -25 q 69 355 36 182 q 219 631 103 528 q 500 735 337 735 q 623 720 557 735 q 752 676 685 705 l 716 492 l 645 492 "},"Ʈ":{"x_min":93.59375,"x_max":1039.640625,"ha":926,"o":"m 757 -242 q 651 -277 703 -265 q 550 -289 598 -289 q 348 -214 401 -289 q 329 28 296 -139 l 505 932 l 207 932 l 177 773 l 93 773 l 140 1013 l 1039 1013 l 992 773 l 909 773 l 939 932 l 642 932 l 467 33 q 461 -165 439 -112 q 563 -216 481 -216 q 659 -182 623 -216 q 710 -83 695 -150 l 788 -83 l 757 -242 "},"Ὢ":{"x_min":78.671875,"x_max":1503.96875,"ha":1571,"o":"m 448 1109 l 575 855 l 495 855 l 315 1109 l 448 1109 m 204 1152 q 269 1114 250 1152 q 276 1061 282 1091 l 274 1050 q 130 846 259 940 q 125 842 126 844 l 78 863 q 160 971 143 914 q 109 997 128 974 q 96 1061 88 1023 q 147 1135 105 1108 q 204 1152 173 1152 m 1099 111 l 1327 111 l 1346 203 l 1425 203 l 1385 0 l 984 0 l 1008 123 q 1222 276 1139 170 q 1336 539 1306 381 q 1302 843 1373 728 q 1081 959 1232 959 q 815 843 931 959 q 663 539 700 728 q 675 275 633 381 q 829 123 716 170 l 804 0 l 404 0 l 444 203 l 524 203 l 505 111 l 732 111 q 542 289 602 170 q 511 554 482 409 q 587 746 531 657 q 731 904 643 835 q 904 999 811 966 q 1095 1032 997 1032 q 1273 999 1194 1032 q 1408 904 1353 967 q 1492 745 1470 835 q 1494 554 1514 656 q 1360 289 1466 409 q 1099 111 1253 170 "},"↽":{"x_min":47,"x_max":1084,"ha":1163,"o":"m 47 495 l 47 504 l 1084 504 l 1084 394 l 257 394 l 388 165 l 381 165 l 47 495 "},"Ḡ":{"x_min":64.265625,"x_max":1051.0625,"ha":1109,"o":"m 929 710 q 865 897 929 836 q 668 958 802 958 q 385 845 493 958 q 233 505 277 732 q 256 167 189 282 q 494 53 322 53 q 645 71 571 53 q 789 128 718 90 l 840 390 l 649 390 l 663 463 l 992 463 l 918 84 q 708 6 817 32 q 480 -20 599 -20 q 141 123 251 -20 q 77 505 31 267 q 290 888 124 745 q 690 1031 457 1031 q 866 1010 777 1031 q 1051 949 954 990 l 1004 710 l 929 710 m 526 1288 l 932 1288 l 913 1188 l 507 1188 l 526 1288 "},"⤕":{"x_min":74.1875,"x_max":1112,"ha":1164,"o":"m 611 716 l 721 716 l 721 505 l 952 505 l 821 733 l 828 733 l 1112 453 l 1112 446 l 828 166 l 821 166 l 952 395 l 721 395 l 721 183 l 611 183 l 611 395 l 552 395 l 552 183 l 442 183 l 442 395 l 382 395 l 151 166 l 74 244 l 279 446 l 279 453 l 74 655 l 151 733 l 382 505 l 442 505 l 442 716 l 552 716 l 552 505 l 611 505 l 611 716 "},"‬":{"x_min":0,"x_max":0,"ha":0},"ȭ":{"x_min":59,"x_max":806.9375,"ha":836,"o":"m 356 47 q 523 126 457 47 q 620 360 590 206 q 634 486 634 431 q 615 594 634 551 q 478 673 579 673 q 311 594 378 673 q 214 360 244 515 q 201 235 201 290 q 221 126 201 170 q 356 47 257 47 m 343 -20 q 111 83 186 -20 q 59 261 59 156 q 69 360 59 307 q 218 637 102 533 q 491 741 333 741 q 724 637 649 741 q 776 460 776 565 q 766 360 776 413 q 617 84 733 188 q 343 -20 501 -20 m 547 929 l 516 966 q 491 987 501 982 q 468 993 481 993 q 418 965 440 993 q 383 888 396 939 l 318 888 q 381 1029 337 979 q 487 1079 425 1079 q 533 1069 513 1079 q 574 1037 553 1060 l 605 1000 q 628 979 617 984 q 653 974 638 974 q 703 1001 682 974 q 737 1079 725 1028 l 802 1079 q 739 937 783 987 q 634 888 695 888 q 587 897 608 888 q 547 929 568 907 m 401 1249 l 806 1249 l 787 1149 l 382 1149 l 401 1249 "},"Ŋ":{"x_min":65.359375,"x_max":1117,"ha":1171,"o":"m 555 -122 q 654 -216 555 -216 q 776 -165 734 -216 q 847 33 818 -115 l 956 598 q 977 766 977 699 q 959 870 977 834 q 790 944 922 944 q 569 856 658 944 q 449 602 481 769 l 346 73 l 475 73 l 461 0 l 65 0 l 79 73 l 209 73 l 377 940 l 257 940 l 272 1013 l 529 1013 l 502 876 q 847 1033 634 1033 q 1080 933 1018 1033 q 1117 792 1117 874 q 1100 625 1117 709 l 984 27 q 870 -214 952 -139 q 639 -289 788 -289 q 451 -242 541 -289 l 482 -83 l 558 -83 q 555 -122 555 -104 "},"Ⅹ":{"x_min":-89.515625,"x_max":1034.890625,"ha":989,"o":"m 446 433 l 128 72 l 259 72 l 245 0 l -89 0 l -75 72 l 40 72 l 415 497 l 205 940 l 96 940 l 111 1013 l 512 1013 l 498 940 l 379 940 l 533 614 l 819 940 l 689 940 l 703 1013 l 1034 1013 l 1020 940 l 906 940 l 563 550 l 790 72 l 898 72 l 884 0 l 482 0 l 496 72 l 617 72 l 446 433 "},"𝐴":{"x_min":-105.796875,"x_max":932.484375,"ha":1003,"o":"m 251 367 l 623 367 l 531 848 l 251 367 m -105 0 l -92 72 l -3 72 l 540 1013 l 654 1013 l 833 72 l 932 72 l 918 0 l 550 0 l 564 72 l 676 72 l 635 294 l 209 294 l 81 72 l 192 72 l 179 0 l -105 0 "},"Ẋ":{"x_min":-89.515625,"x_max":1034.890625,"ha":989,"o":"m 605 1256 q 665 1280 634 1280 q 716 1256 697 1280 q 729 1201 735 1232 q 695 1145 722 1167 q 634 1122 668 1122 q 582 1145 600 1122 q 571 1201 564 1167 q 605 1256 577 1232 m 446 433 l 128 72 l 259 72 l 245 0 l -89 0 l -75 72 l 40 72 l 415 497 l 205 940 l 96 940 l 111 1013 l 512 1013 l 498 940 l 379 940 l 533 614 l 819 940 l 689 940 l 703 1013 l 1034 1013 l 1020 940 l 906 940 l 563 550 l 790 72 l 898 72 l 884 0 l 482 0 l 496 72 l 617 72 l 446 433 "},"ď":{"x_min":27,"x_max":1130.828125,"ha":889,"o":"m 833 1056 l 628 0 l 504 0 l 525 112 q 412 12 475 44 q 266 -20 350 -20 q 69 85 133 -20 q 27 252 27 155 q 38 360 27 303 q 176 635 71 530 q 414 741 280 741 q 548 708 498 741 q 622 608 598 676 l 694 984 l 576 984 l 591 1056 l 833 1056 m 567 324 l 580 396 q 591 491 591 449 q 569 594 591 553 q 438 663 533 663 q 277 586 341 663 q 184 360 213 510 q 171 239 171 292 q 190 134 171 176 q 320 58 223 58 q 478 126 415 58 q 567 324 541 194 m 995 1054 l 1130 1054 l 982 799 l 903 799 l 995 1054 "},"Ⴠ":{"x_min":97.328125,"x_max":1366.96875,"ha":1403,"o":"m 1352 638 l 1264 638 l 1170 195 q 1131 104 1158 141 q 1063 44 1103 67 q 973 10 1023 21 q 866 0 923 0 l 733 0 q 624 7 673 0 q 541 33 576 15 q 489 79 507 51 q 471 148 471 108 q 476 195 471 169 l 669 1107 l 449 1107 l 350 638 l 97 638 l 112 709 l 199 709 l 283 1107 l 196 1107 l 211 1178 l 935 1178 l 920 1107 l 833 1107 l 649 242 q 643 207 645 224 q 642 177 642 191 q 671 94 642 119 q 762 69 701 69 l 852 69 q 904 79 878 69 q 950 109 929 90 q 987 158 972 129 q 1010 222 1003 186 l 1099 638 l 1012 638 l 1027 709 l 1366 709 l 1352 638 "},"⟸":{"x_min":52,"x_max":1912,"ha":1991,"o":"m 342 166 l 334 166 l 52 446 l 52 452 l 334 732 l 342 732 l 281 623 l 1912 623 l 1912 513 l 221 513 l 186 449 l 221 386 l 1912 386 l 1912 276 l 281 276 l 342 166 "},"ṯ":{"x_min":16.125,"x_max":559.90625,"ha":558,"o":"m 185 648 l 75 648 l 90 721 l 199 721 l 243 944 l 368 944 l 325 721 l 559 721 l 545 648 l 311 648 l 222 190 q 212 105 212 136 q 216 72 212 83 q 277 47 229 47 q 354 75 325 47 q 395 169 382 104 l 490 169 q 408 25 465 70 q 253 -20 351 -20 q 109 28 145 -20 q 88 111 88 57 q 96 190 88 146 l 185 648 m 35 -105 l 440 -105 l 421 -205 l 16 -205 l 35 -105 "},"ŧ":{"x_min":44.609375,"x_max":559.90625,"ha":558,"o":"m 185 648 l 75 648 l 90 721 l 199 721 l 243 944 l 368 944 l 325 721 l 559 721 l 545 648 l 311 648 l 280 490 l 409 490 l 390 394 l 261 394 l 222 190 q 212 105 212 136 q 216 72 212 83 q 277 47 229 47 q 353 75 325 47 q 395 169 382 104 l 490 169 q 408 25 465 70 q 253 -20 351 -20 q 110 28 145 -20 q 88 111 88 57 q 96 190 88 145 l 136 394 l 44 394 l 63 490 l 155 490 l 185 648 "},"À":{"x_min":-105.796875,"x_max":932.484375,"ha":1003,"o":"m 251 367 l 623 367 l 531 848 l 251 367 m -105 0 l -92 72 l -3 72 l 540 1013 l 654 1013 l 833 72 l 932 72 l 918 0 l 550 0 l 564 72 l 676 72 l 635 294 l 209 294 l 81 72 l 192 72 l 179 0 l -105 0 m 587 1288 l 676 1109 l 597 1109 l 455 1288 l 587 1288 "},"Ώ":{"x_min":18.3125,"x_max":1117.40625,"ha":1184,"o":"m 713 111 l 941 111 l 959 203 l 1038 203 l 998 0 l 597 0 l 621 123 q 836 276 752 170 q 950 539 919 381 q 916 843 986 728 q 695 959 845 959 q 429 843 544 959 q 277 539 314 728 q 288 275 246 381 q 442 123 330 170 l 418 0 l 18 0 l 58 203 l 137 203 l 119 111 l 345 111 q 155 289 215 170 q 124 554 96 409 q 200 746 144 657 q 345 904 257 835 q 517 999 424 966 q 709 1032 611 1032 q 887 999 807 1032 q 1022 904 967 967 q 1105 745 1083 835 q 1108 554 1127 656 q 973 289 1080 409 q 713 111 867 170 m 325 1111 l 460 1111 l 179 856 l 100 856 l 325 1111 "},"┰":{"x_min":-13,"x_max":850,"ha":837,"o":"m 310 -418 l 310 337 l -13 337 l -13 454 l 850 454 l 850 337 l 527 337 l 527 -418 l 310 -418 "},"̟":{"x_min":-515.40625,"x_max":-172.25,"ha":0,"o":"m -384 -261 l -362 -149 l -262 -149 l -284 -261 l -172 -261 l -191 -361 l -303 -361 l -324 -472 l -425 -472 l -403 -361 l -515 -361 l -496 -261 l -384 -261 "},"'":{"x_min":136,"x_max":244,"ha":382,"o":"m 244 1014 l 244 637 l 136 637 l 136 1014 l 244 1014 "},"⢟":{"x_min":193,"x_max":824,"ha":1017,"o":"m 193 983 q 224 1063 193 1030 q 304 1096 256 1096 q 384 1063 351 1096 q 417 983 417 1030 q 384 903 417 936 q 304 871 351 871 q 224 903 256 871 q 193 983 193 936 m 193 599 q 224 679 193 646 q 304 712 256 712 q 384 679 351 712 q 417 599 417 646 q 384 519 417 552 q 304 487 351 487 q 224 519 256 487 q 193 599 193 552 m 193 215 q 224 295 193 262 q 304 328 256 328 q 384 295 351 328 q 417 215 417 262 q 384 135 417 168 q 304 103 351 103 q 224 135 256 103 q 193 215 193 168 m 600 983 q 631 1063 600 1030 q 712 1096 663 1096 q 791 1063 758 1096 q 824 983 824 1030 q 791 903 824 936 q 712 871 758 871 q 631 903 663 871 q 600 983 600 936 m 600 599 q 631 679 600 646 q 712 712 663 712 q 791 679 758 712 q 824 599 824 646 q 791 519 824 552 q 712 487 758 487 q 631 519 663 487 q 600 599 600 552 m 600 -169 q 631 -89 600 -122 q 712 -57 663 -57 q 791 -89 758 -57 q 824 -169 824 -122 q 791 -249 824 -216 q 712 -282 758 -282 q 631 -249 663 -282 q 600 -169 600 -216 "},"ჼ":{"x_min":144,"x_max":668.53125,"ha":518,"o":"m 432 666 q 445 740 445 709 q 380 810 445 810 q 250 666 290 810 q 238 592 238 623 q 301 525 238 525 q 356 535 335 525 q 392 565 378 546 q 415 610 407 584 q 432 666 424 636 m 525 666 q 286 474 470 474 q 144 588 144 474 q 147 624 144 605 q 156 666 150 644 l 256 1019 q 287 1080 265 1052 q 339 1128 308 1108 q 410 1160 370 1148 q 494 1171 449 1171 q 511 1167 501 1171 q 533 1160 522 1164 q 557 1153 545 1156 q 579 1150 568 1150 q 613 1156 591 1150 q 668 1173 635 1162 l 656 1129 q 602 1097 625 1109 q 558 1086 578 1086 q 516 1088 532 1086 q 490 1095 499 1091 q 474 1101 480 1098 q 463 1104 468 1104 q 427 1096 446 1104 q 393 1078 409 1089 q 366 1050 377 1066 q 349 1019 354 1035 l 301 846 l 309 846 q 395 859 358 859 q 503 832 468 859 q 539 748 539 806 q 525 666 539 715 "},"Ⴃ":{"x_min":67,"x_max":1209.546875,"ha":1207,"o":"m 940 466 q 955 596 955 536 q 942 683 955 645 q 904 749 930 722 q 835 790 877 776 q 732 804 792 804 l 619 804 q 383 720 478 804 q 255 473 289 637 l 243 420 q 230 339 234 377 q 226 270 226 302 q 239 179 226 218 q 281 116 252 141 q 355 80 310 91 q 464 68 401 68 l 576 68 q 712 93 653 68 q 813 165 770 119 q 884 276 855 211 q 929 420 912 341 l 940 466 m 1094 420 q 1029 246 1074 324 q 922 114 984 168 q 784 30 860 60 q 626 1 708 1 l 372 1 q 245 22 301 1 q 149 84 189 44 q 88 182 109 125 q 67 310 67 239 q 79 420 67 362 l 96 503 q 133 597 107 553 q 194 678 158 641 q 273 745 229 715 q 364 797 317 774 q 459 835 411 820 q 553 857 508 850 l 603 857 l 656 1107 l 406 1107 l 383 996 l 259 891 l 179 891 l 193 960 l 249 960 l 294 1177 l 1199 1177 l 1153 960 l 1209 960 l 1195 891 l 1131 891 l 1033 996 l 1056 1107 l 811 1107 l 758 857 l 807 857 q 882 837 845 851 q 954 801 919 823 q 1018 753 988 780 q 1070 693 1048 725 q 1105 625 1092 661 q 1118 551 1118 589 q 1116 527 1118 539 q 1112 503 1115 515 l 1094 420 "},"▩":{"x_min":126,"x_max":1186,"ha":1312,"o":"m 203 729 l 236 696 l 321 780 l 285 816 l 203 816 l 203 729 m 203 449 l 236 415 l 322 500 l 236 586 l 203 553 l 203 449 m 430 780 l 515 695 l 601 780 l 565 816 l 466 816 l 430 780 m 291 641 l 376 555 l 460 640 l 375 725 l 291 641 m 203 168 l 236 135 l 322 221 l 236 306 l 203 272 l 203 168 m 710 780 l 796 695 l 881 780 l 845 816 l 746 816 l 710 780 m 570 640 l 656 555 l 741 640 l 656 725 l 570 640 m 431 500 l 516 415 l 601 500 l 515 585 l 431 500 m 291 361 l 376 275 l 462 361 l 376 446 l 291 361 m 990 780 l 1075 696 l 1109 729 l 1109 816 l 1026 816 l 990 780 m 851 640 l 935 555 l 1020 641 l 936 725 l 851 640 m 710 500 l 794 415 l 880 500 l 796 585 l 710 500 m 571 361 l 656 276 l 740 361 l 656 445 l 571 361 m 431 220 l 515 136 l 601 221 l 517 306 l 431 220 m 291 80 l 376 -3 l 460 81 l 376 166 l 291 80 m 203 -94 l 285 -94 l 321 -58 l 236 25 l 203 -7 l 203 -94 m 990 500 l 1075 415 l 1109 449 l 1109 553 l 1075 586 l 990 500 m 849 361 l 935 275 l 1020 361 l 935 446 l 849 361 m 710 221 l 796 136 l 880 220 l 794 306 l 710 221 m 570 81 l 656 -4 l 741 81 l 656 166 l 570 81 m 430 -58 l 466 -94 l 566 -94 l 601 -58 l 515 26 l 430 -58 m 990 221 l 1075 135 l 1109 168 l 1109 272 l 1075 306 l 990 221 m 850 81 l 935 -3 l 1020 80 l 935 166 l 850 81 m 710 -58 l 745 -94 l 845 -94 l 881 -58 l 796 26 l 710 -58 m 990 -58 l 1026 -94 l 1109 -94 l 1109 -7 l 1075 25 l 990 -58 m 126 -171 l 126 893 l 1186 893 l 1186 -171 l 126 -171 "},"Ɠ":{"x_min":57.28125,"x_max":1368.25,"ha":1109,"o":"m 1181 1038 q 1056 958 1096 1038 q 1028 867 1039 921 l 997 710 l 921 710 l 922 713 q 785 940 922 894 q 661 958 733 958 q 378 845 486 958 q 226 505 270 732 q 367 71 156 145 q 488 53 420 53 q 782 128 641 53 l 833 390 l 642 390 l 656 463 l 985 463 l 911 84 q 474 -20 711 -20 q 134 123 245 -20 q 70 505 24 267 q 283 888 117 745 q 683 1031 450 1031 q 985 973 827 1031 q 1061 1065 1012 1026 q 1197 1106 1112 1106 q 1368 1061 1292 1106 l 1339 912 l 1275 912 q 1223 1032 1294 1011 q 1181 1038 1206 1038 "},"Ć":{"x_min":64.421875,"x_max":1036.078125,"ha":1063,"o":"m 932 268 q 740 53 860 126 q 459 -20 621 -20 q 282 13 360 -20 q 151 113 204 47 q 72 286 90 189 q 77 505 54 383 q 288 886 123 741 q 675 1031 452 1031 q 847 1009 758 1031 q 1036 943 937 987 l 991 710 l 914 710 q 850 897 914 837 q 650 958 786 958 q 382 843 488 958 q 233 505 276 728 q 250 167 189 282 q 473 53 311 53 q 670 106 587 53 q 808 268 754 160 l 932 268 m 768 1288 l 901 1288 l 688 1109 l 609 1109 l 768 1288 "},"ẓ":{"x_min":-13.5625,"x_max":738.53125,"ha":732,"o":"m 553 661 q 697 721 626 661 l 738 721 l 727 662 l 234 148 q 261 140 241 146 q 307 117 284 132 l 340 97 q 450 59 404 59 q 643 160 539 59 l 627 78 q 423 -35 511 -35 q 294 12 369 -35 q 171 59 219 59 q 27 0 98 59 l -13 0 l -2 58 l 491 571 q 463 580 483 574 q 417 603 440 588 l 384 623 q 274 662 320 662 q 81 560 185 662 l 97 642 q 301 756 213 756 q 430 708 355 756 q 553 661 505 661 m 193 -130 q 254 -107 221 -107 q 305 -130 286 -107 q 318 -186 324 -153 q 284 -243 311 -221 q 223 -266 257 -266 q 170 -243 188 -266 q 159 -186 152 -221 q 193 -130 165 -153 "},"ⴇ":{"x_min":81.375,"x_max":1352.265625,"ha":1334,"o":"m 566 132 l 739 622 l 425 571 l 255 92 l 566 132 m 960 0 l 1178 622 l 864 571 l 662 0 l 519 0 l 545 78 l 235 35 l 225 0 l 81 0 l 300 622 l 219 622 l 227 672 l 318 672 l 332 710 l 473 710 l 442 622 l 756 671 l 770 711 l 914 711 l 882 622 l 1198 672 l 1211 711 l 1352 711 l 1134 92 l 1213 92 l 1206 35 l 1116 35 l 1104 0 l 960 0 "},"⢍":{"x_min":193,"x_max":824,"ha":1017,"o":"m 193 983 q 224 1063 193 1030 q 304 1096 256 1096 q 384 1063 351 1096 q 417 983 417 1030 q 384 903 417 936 q 304 871 351 871 q 224 903 256 871 q 193 983 193 936 m 193 215 q 224 295 193 262 q 304 328 256 328 q 384 295 351 328 q 417 215 417 262 q 384 135 417 168 q 304 103 351 103 q 224 135 256 103 q 193 215 193 168 m 600 983 q 631 1063 600 1030 q 712 1096 663 1096 q 791 1063 758 1096 q 824 983 824 1030 q 791 903 824 936 q 712 871 758 871 q 631 903 663 871 q 600 983 600 936 m 600 -169 q 631 -89 600 -122 q 712 -57 663 -57 q 791 -89 758 -57 q 824 -169 824 -122 q 791 -249 824 -216 q 712 -282 758 -282 q 631 -249 663 -282 q 600 -169 600 -216 "},"↫":{"x_min":52,"x_max":1085,"ha":1164,"o":"m 827 217 l 717 217 l 717 394 l 211 394 l 342 165 l 334 165 l 52 445 l 52 452 l 334 732 l 342 732 l 211 504 l 717 504 l 717 578 q 770 708 717 654 q 900 762 824 762 q 1031 708 977 762 q 1085 578 1085 654 q 1031 447 1085 501 q 901 394 977 394 l 827 394 l 827 217 m 901 504 q 953 525 931 504 q 975 578 975 547 q 953 630 975 608 q 901 652 931 652 q 848 630 870 652 q 827 578 827 608 l 827 504 l 901 504 "},"Ͱ":{"x_min":-21.703125,"x_max":992.15625,"ha":1028,"o":"m 868 507 l 343 507 l 258 72 l 387 72 l 373 0 l -21 0 l -8 72 l 120 72 l 289 940 l 160 940 l 174 1013 l 570 1013 l 556 940 l 427 940 l 359 590 l 884 590 l 908 716 l 992 716 l 927 380 l 843 380 l 868 507 "},"Ğ":{"x_min":64.28125,"x_max":1051.0625,"ha":1109,"o":"m 929 710 q 865 897 929 836 q 668 958 802 958 q 385 845 493 958 q 233 505 277 732 q 256 167 189 282 q 495 53 322 53 q 645 71 571 53 q 789 128 718 90 l 840 390 l 649 390 l 663 463 l 992 463 l 918 84 q 708 6 817 32 q 480 -20 599 -20 q 141 123 251 -20 q 77 505 31 267 q 290 888 124 745 q 690 1031 457 1031 q 866 1010 777 1031 q 1051 949 954 990 l 1004 710 l 929 710 m 531 1289 l 596 1289 q 633 1234 600 1252 q 728 1216 665 1216 q 830 1234 790 1216 q 890 1290 870 1252 l 954 1290 q 862 1168 924 1210 q 711 1126 799 1126 q 576 1167 621 1126 q 531 1289 531 1209 "},"Ї":{"x_min":-21.015625,"x_max":655.234375,"ha":549,"o":"m 259 72 l 387 72 l 374 0 l -21 0 l -7 72 l 121 72 l 290 940 l 161 940 l 175 1013 l 571 1013 l 556 940 l 427 940 l 259 72 m 326 1278 q 377 1254 358 1278 q 389 1199 396 1230 q 356 1143 383 1165 q 295 1120 328 1120 q 243 1143 261 1120 q 231 1199 225 1165 q 265 1254 238 1230 q 326 1278 294 1278 m 590 1278 q 640 1254 622 1278 q 653 1199 659 1230 q 619 1143 646 1165 q 559 1120 592 1120 q 507 1143 525 1120 q 495 1199 488 1165 q 529 1254 501 1230 q 590 1278 558 1278 "},"Ź":{"x_min":-35.9375,"x_max":984.703125,"ha":965,"o":"m 733 1289 l 866 1289 l 653 1110 l 574 1110 l 733 1289 m -35 0 l -26 48 l 775 930 l 251 930 l 222 778 l 139 778 l 184 1013 l 984 1013 l 975 964 l 173 83 l 745 83 l 773 224 l 855 224 l 812 0 l -35 0 "},"Ꙑ":{"x_min":102.734375,"x_max":1556.078125,"ha":1534,"o":"m 1244 72 l 1372 72 l 1359 0 l 964 0 l 977 72 l 1106 72 l 1275 940 l 1146 940 l 1160 1013 l 1556 1013 l 1541 940 l 1412 940 l 1244 72 m 426 72 l 605 72 q 768 124 701 72 q 850 254 835 177 q 865 361 865 330 q 826 468 865 424 q 692 513 788 513 l 512 513 l 426 72 m 738 1013 l 723 940 l 595 940 l 528 596 l 677 596 q 983 487 896 596 q 1021 367 1021 441 q 1013 295 1021 333 q 591 0 955 0 l 146 0 l 159 72 l 288 72 l 455 929 l 213 929 l 186 787 l 102 787 l 146 1013 l 738 1013 "},"ʻ":{"x_min":108.5,"x_max":395.375,"ha":441,"o":"m 395 977 q 299 875 334 933 q 248 730 265 818 l 240 688 l 108 688 q 190 887 132 806 q 352 1031 248 969 l 395 977 "},"╒":{"x_min":363,"x_max":849.75,"ha":836,"o":"m 363 -419 l 363 570 l 849 570 l 849 453 l 472 453 l 472 337 l 849 337 l 849 220 l 472 220 l 472 -419 l 363 -419 "},"𝛽":{"x_min":-43.40625,"x_max":736.015625,"ha":803,"o":"m 154 87 q 301 47 201 47 q 476 107 404 47 q 568 271 547 167 q 545 474 596 413 q 377 538 495 538 l 312 538 l 326 611 l 360 611 q 516 659 446 611 q 594 807 573 700 q 581 906 602 853 q 483 994 546 994 q 278 722 330 994 l 154 87 m -43 -289 l 153 720 q 367 1042 208 1004 q 508 1063 453 1063 q 697 962 635 1063 q 733 816 746 884 q 655 663 714 720 q 508 580 598 607 q 684 488 628 562 q 711 273 739 415 q 574 55 684 131 q 284 -20 463 -20 q 136 -4 174 -20 l 81 -289 l -43 -289 "},"Ṁ":{"x_min":-21.015625,"x_max":1450.609375,"ha":1422,"o":"m 820 1256 q 880 1280 849 1280 q 931 1256 912 1280 q 944 1201 950 1232 q 910 1145 937 1167 q 849 1122 883 1122 q 797 1145 815 1122 q 786 1201 779 1167 q 820 1256 792 1232 m -21 0 l -7 72 l 121 72 l 290 940 l 153 940 l 168 1013 l 463 1013 l 678 292 l 1173 1013 l 1450 1013 l 1436 940 l 1301 940 l 1133 72 l 1262 72 l 1248 0 l 852 0 l 866 72 l 994 72 l 1147 854 l 662 149 l 566 149 l 357 854 l 204 72 l 333 72 l 320 0 l -21 0 "},"ɔ":{"x_min":32.203125,"x_max":724.609375,"ha":778,"o":"m 97 505 q 233 680 146 620 q 439 741 320 741 q 672 637 597 741 q 714 360 747 532 q 565 83 680 186 q 291 -20 449 -20 q 159 -3 223 -20 q 32 44 93 11 l 67 229 l 138 229 q 175 90 138 134 q 303 47 214 47 q 471 125 404 47 q 568 360 538 204 q 562 595 599 516 q 425 673 527 673 q 288 631 344 673 q 197 505 232 589 l 97 505 "},"ᵎ":{"x_min":32,"x_max":223.90625,"ha":243,"o":"m 129 330 q 109 299 126 312 q 72 287 91 287 q 40 299 52 287 q 32 321 32 309 q 32 330 32 325 q 53 360 36 347 q 90 373 70 373 q 122 360 110 373 q 131 338 131 351 q 129 330 131 334 m 136 819 l 61 819 l 70 860 l 223 860 l 144 496 l 219 496 l 211 455 l 57 455 l 136 819 "},"Ⴋ":{"x_min":38,"x_max":1215,"ha":1321,"o":"m 479 638 q 386 629 423 638 q 325 603 349 621 q 287 555 300 585 q 264 480 273 524 l 210 226 q 206 187 206 207 q 211 143 206 165 q 230 105 217 122 q 262 79 242 89 q 312 69 283 69 l 393 69 q 459 82 429 69 q 512 118 489 96 q 551 168 536 140 q 573 226 567 197 l 661 638 l 479 638 m 1038 501 q 1043 537 1042 521 q 1047 566 1045 553 q 1039 603 1047 589 q 1017 625 1032 617 q 978 635 1002 633 q 922 638 954 638 l 826 638 l 738 226 q 702 121 724 164 q 646 51 680 78 q 565 12 612 24 q 456 0 519 0 l 274 0 q 176 10 219 0 q 101 41 132 20 q 54 94 71 62 q 38 169 38 126 q 40 197 38 183 q 45 226 42 211 l 98 476 q 494 709 148 709 l 676 709 l 713 886 l 484 886 q 407 912 436 886 q 378 990 378 939 q 379 1010 378 1000 q 382 1031 380 1020 l 397 1107 l 313 1107 l 328 1178 l 664 1178 l 649 1107 l 562 1107 l 543 1020 q 541 1008 542 1014 q 541 999 541 1003 q 552 967 541 977 q 583 957 564 957 l 981 957 l 966 887 l 878 887 l 841 709 l 1065 709 q 1131 703 1103 709 q 1178 686 1159 698 q 1205 653 1196 674 q 1215 600 1215 632 q 1212 561 1215 582 q 1204 516 1209 541 l 1124 142 l 1213 142 l 1198 69 l 945 69 l 1038 501 "},"┐":{"x_min":-13.0625,"x_max":473,"ha":837,"o":"m 364 -418 l 364 337 l -13 337 l -13 454 l 473 454 l 473 -418 l 364 -418 "},"ʚ":{"x_min":29.4375,"x_max":796.515625,"ha":852,"o":"m 305 48 q 375 60 313 48 q 457 90 404 65 q 672 361 636 174 q 562 631 706 537 q 492 661 553 641 q 425 670 467 670 q 306 635 352 670 q 248 535 261 600 q 275 428 234 464 q 410 393 316 393 l 436 393 l 422 325 l 396 325 q 248 289 303 325 q 179 182 193 253 q 199 82 167 117 q 305 48 231 48 m 621 690 q 788 358 833 589 q 493 26 748 149 q 377 -11 449 5 q 271 -24 322 -24 q 76 27 139 -24 q 33 176 14 80 q 107 294 47 246 q 263 359 168 342 q 132 424 174 376 q 104 541 90 472 q 205 688 123 637 q 421 741 287 741 q 521 728 448 741 q 621 690 558 724 "},"↶":{"x_min":61,"x_max":1068,"ha":1164,"o":"m 1068 361 l 958 361 q 935 470 958 418 q 876 559 913 522 q 787 618 839 596 q 678 641 735 641 q 569 618 621 641 q 480 559 517 596 q 421 470 443 522 q 399 361 399 418 l 628 492 l 628 484 l 347 202 l 340 202 l 61 484 l 61 492 l 289 361 q 319 512 289 440 q 403 636 350 584 q 527 720 455 689 q 678 751 599 751 q 829 720 757 751 q 954 636 901 689 q 1037 512 1006 584 q 1068 361 1068 440 "},"ῖ":{"x_min":107.15625,"x_max":626.625,"ha":545,"o":"m 370 930 l 339 967 q 315 988 325 983 q 292 994 305 994 q 242 966 263 994 q 207 889 220 940 l 142 889 q 205 1030 161 980 q 311 1080 249 1080 q 357 1070 337 1080 q 398 1038 377 1061 l 429 1001 q 452 980 441 985 q 476 975 462 975 q 527 1002 505 975 q 561 1080 549 1029 l 626 1080 q 563 938 607 988 q 457 889 519 889 q 411 898 432 889 q 370 930 391 907 m 137 197 l 226 649 l 107 649 l 121 722 l 365 722 l 263 197 q 290 79 244 102 q 419 112 325 62 l 403 30 q 169 34 249 -48 q 137 197 116 88 "},".":{"x_min":123.421875,"x_max":313.203125,"ha":441,"o":"m 144 6 q 130 70 123 32 q 169 134 138 108 q 238 161 200 161 q 297 134 276 161 q 311 70 318 108 q 272 6 303 32 q 203 -20 240 -20 q 144 6 164 -20 "},"ǀ":{"x_min":51.546875,"x_max":358.078125,"ha":410,"o":"m 358 1013 l 161 0 l 51 0 l 248 1013 l 358 1013 "},"ꙇ":{"x_min":106.46875,"x_max":364.171875,"ha":545,"o":"m 145 238 l 225 649 l 106 649 l 120 722 l 364 722 l 270 238 q 273 108 252 149 q 357 67 295 67 l 344 0 q 174 63 228 0 q 145 238 122 124 "},"║":{"x_min":255,"x_max":581,"ha":837,"o":"m 255 -419 l 255 1352 l 364 1352 l 364 -419 l 255 -419 m 472 -419 l 472 1352 l 581 1352 l 581 -419 l 472 -419 "},"ʂ":{"x_min":15.8125,"x_max":694.078125,"ha":713,"o":"m 160 -3 l 147 -70 q 151 -199 130 -159 q 234 -241 172 -241 q 324 -211 289 -241 q 376 -116 359 -180 l 441 -116 l 411 -264 q 319 -297 365 -286 q 224 -309 272 -309 q 54 -245 108 -309 q 22 -70 0 -181 l 52 87 l 53 87 l 76 208 l 148 208 q 175 87 135 127 l 176 87 l 178 87 l 178 85 q 309 47 218 47 q 443 78 393 47 q 505 170 494 110 q 488 247 515 218 q 364 309 461 276 l 280 340 q 160 415 192 370 q 140 529 127 459 q 243 684 159 628 q 454 741 326 741 q 572 726 511 741 q 694 682 632 711 l 663 525 l 591 525 q 563 634 602 595 q 445 673 525 673 q 321 645 367 673 q 264 562 275 618 q 281 489 255 516 q 392 433 306 461 l 485 402 q 617 323 581 370 q 638 199 653 275 q 528 38 618 97 q 301 -20 439 -20 q 168 -5 231 -20 l 160 -3 "},"ԝ":{"x_min":77.984375,"x_max":1160.34375,"ha":1189,"o":"m 811 158 q 922 291 901 255 q 1070 648 996 427 l 965 648 l 979 721 l 1160 721 l 1146 648 l 1145 648 q 1010 274 1076 396 q 807 0 913 101 l 703 0 l 629 539 l 346 0 l 246 0 l 159 648 l 77 648 l 92 721 l 278 721 l 354 158 l 649 721 l 736 721 l 811 158 "},"⠘":{"x_min":600,"x_max":824,"ha":1017,"o":"m 600 984 q 631 1064 600 1031 q 712 1097 663 1097 q 791 1064 758 1097 q 824 984 824 1031 q 791 904 824 937 q 712 872 758 872 q 631 904 663 872 q 600 984 600 937 m 600 599 q 631 679 600 646 q 712 712 663 712 q 791 679 758 712 q 824 599 824 646 q 791 519 824 552 q 712 487 758 487 q 631 519 663 487 q 600 599 600 552 "},"à":{"x_min":47,"x_max":735.140625,"ha":828,"o":"m 504 112 q 268 -20 414 -20 q 89 60 149 -20 q 47 199 47 117 q 54 272 47 233 q 267 635 100 512 q 580 741 409 741 q 735 721 695 741 l 609 72 l 716 72 l 702 0 l 483 0 l 504 112 m 179 203 q 319 58 179 58 q 462 126 404 58 q 546 324 520 194 l 609 652 l 609 652 q 554 672 609 672 q 323 570 424 672 q 187 281 223 467 q 179 203 179 238 m 421 1109 l 547 855 l 468 855 l 288 1109 l 421 1109 "},"₀":{"x_min":17.046875,"x_max":518.703125,"ha":557,"o":"m 118 89 q 207 27 137 27 q 327 89 277 27 q 406 278 375 149 q 417 478 439 408 q 327 541 397 541 q 208 478 254 541 q 128 278 160 413 q 118 89 98 152 m 198 -10 q 43 65 88 -10 q 31 278 -2 144 q 145 502 71 432 q 336 578 225 578 q 492 502 447 578 q 503 278 538 426 q 390 65 471 141 q 198 -10 310 -10 "},"⡂":{"x_min":193,"x_max":417,"ha":1017,"o":"m 193 599 q 224 679 193 646 q 304 712 256 712 q 384 679 351 712 q 417 599 417 646 q 384 519 417 552 q 304 487 351 487 q 224 519 256 487 q 193 599 193 552 m 193 -169 q 224 -89 193 -122 q 304 -57 256 -57 q 384 -89 351 -57 q 417 -169 417 -122 q 384 -249 417 -216 q 304 -282 351 -282 q 224 -249 256 -282 q 193 -169 193 -216 "},"₴":{"x_min":35.9375,"x_max":1061.328125,"ha":1084,"o":"m 332 369 q 309 352 318 360 q 249 240 263 313 q 286 100 231 148 q 460 53 339 53 q 664 108 590 53 q 764 279 738 163 l 842 279 l 797 48 q 611 -2 701 14 q 438 -20 521 -20 q 171 54 251 -20 q 120 276 92 129 q 151 369 130 327 l 35 369 l 49 441 l 204 441 q 212 449 208 445 q 429 553 282 512 l 562 591 q 612 606 587 598 l 75 606 l 88 678 l 762 678 q 821 787 807 718 q 790 914 837 870 q 635 958 742 958 q 443 910 512 958 q 341 756 373 861 l 265 756 l 306 970 q 494 1016 407 1000 q 652 1031 581 1031 q 895 959 817 1031 q 948 759 973 888 q 922 678 939 715 l 1061 678 l 1047 606 l 879 606 q 853 578 867 591 q 627 469 780 512 l 526 441 l 1022 441 l 1008 369 l 332 369 "},"̛":{"x_min":-172.15625,"x_max":115,"ha":0,"o":"m -172 573 l -159 637 l -158 636 q -54 578 -86 578 q 0 600 -23 578 q 30 661 23 623 q 34 698 34 679 q 28 738 34 718 l 115 738 q 115 691 115 713 q 108 646 115 668 q 55 528 93 570 q -37 486 17 486 q -102 506 -71 486 q -172 573 -134 526 "},"𝜚":{"x_min":24.734375,"x_max":784.578125,"ha":817,"o":"m 317 -194 q 501 -154 414 -154 q 590 -184 562 -154 l 570 -289 l 506 -289 q 474 -237 506 -251 q 307 -261 415 -209 q 210 -293 243 -293 q 63 -229 131 -293 q 31 -63 8 -179 l 112 355 q 221 608 145 526 q 351 709 301 686 q 505 741 417 741 q 742 635 678 741 q 773 360 806 530 q 635 85 739 191 q 398 -20 531 -20 q 264 12 314 -20 q 190 112 213 44 l 156 -63 q 171 -167 143 -128 q 317 -194 219 -235 m 245 396 l 231 324 q 242 126 206 194 q 374 58 279 58 q 534 134 469 58 q 627 360 598 211 q 621 587 657 516 q 493 670 579 670 q 333 594 403 670 q 245 396 270 526 "},"╮":{"x_min":-13,"x_max":473,"ha":837,"o":"m 364 -419 l 364 167 q 332 294 364 252 q 241 337 302 337 l -13 337 l -13 454 l 242 454 q 418 363 356 454 q 473 167 473 281 l 473 -419 l 364 -419 "},"Ṕ":{"x_min":-21.015625,"x_max":935.078125,"ha":935,"o":"m 345 516 l 524 516 q 689 570 625 516 q 772 728 752 625 q 750 885 792 831 q 606 940 708 940 l 427 940 l 345 516 m -21 0 l -7 72 l 121 72 l 290 940 l 161 940 l 175 1013 l 654 1013 q 880 935 806 1013 q 928 728 954 858 q 799 520 903 597 q 543 443 695 443 l 331 443 l 259 72 l 415 72 l 402 0 l -21 0 m 702 1293 l 836 1293 l 623 1114 l 543 1114 l 702 1293 "},"̳":{"x_min":-694,"x_max":0,"ha":0,"o":"m 0 -274 l 0 -328 l -694 -328 l -694 -274 l 0 -274 m 0 -111 l 0 -165 l -694 -165 l -694 -111 l 0 -111 "},"ꜞ":{"x_min":208.875,"x_max":424.09375,"ha":351,"o":"m 309 980 q 332 1016 314 1001 q 376 1031 351 1031 q 413 1016 399 1031 q 423 980 427 1001 q 399 944 419 959 q 356 930 379 930 q 319 944 332 930 q 309 980 305 959 m 208 453 l 297 765 l 316 861 l 369 861 l 350 765 l 319 453 l 208 453 "},"⡫":{"x_min":193,"x_max":824,"ha":1017,"o":"m 193 983 q 224 1063 193 1030 q 304 1096 256 1096 q 384 1063 351 1096 q 417 983 417 1030 q 384 903 417 936 q 304 871 351 871 q 224 903 256 871 q 193 983 193 936 m 193 599 q 224 679 193 646 q 304 712 256 712 q 384 679 351 712 q 417 599 417 646 q 384 519 417 552 q 304 487 351 487 q 224 519 256 487 q 193 599 193 552 m 600 983 q 631 1063 600 1030 q 712 1096 663 1096 q 791 1063 758 1096 q 824 983 824 1030 q 791 903 824 936 q 712 871 758 871 q 631 903 663 871 q 600 983 600 936 m 600 215 q 631 295 600 262 q 712 328 663 328 q 791 295 758 328 q 824 215 824 262 q 791 135 824 168 q 712 103 758 103 q 631 135 663 103 q 600 215 600 168 m 193 -169 q 224 -89 193 -122 q 304 -57 256 -57 q 384 -89 351 -57 q 417 -169 417 -122 q 384 -249 417 -216 q 304 -282 351 -282 q 224 -249 256 -282 q 193 -169 193 -216 "},"e":{"x_min":59,"x_max":759,"ha":821,"o":"m 203 278 q 201 228 201 251 q 224 122 201 164 q 370 47 263 47 q 488 71 449 47 q 573 169 557 113 l 664 169 q 536 22 637 82 q 326 -20 466 -20 q 111 83 187 -20 q 59 261 59 156 q 69 360 59 307 q 216 636 102 531 q 494 741 331 741 q 759 552 759 741 q 620 346 759 414 q 203 278 478 278 m 551 424 q 627 555 627 469 q 473 673 627 673 q 319 605 382 673 q 217 353 256 537 q 551 424 435 353 "},"⊏":{"x_min":147,"x_max":1028.078125,"ha":1175,"o":"m 147 0 l 147 871 l 1028 871 l 1028 762 l 257 762 l 257 109 l 1028 109 l 1028 0 l 147 0 "},"𝚤":{"x_min":99.6875,"x_max":364.171875,"ha":444,"o":"m 238 72 l 356 72 l 342 0 l 99 0 l 225 649 l 106 649 l 120 722 l 364 722 l 238 72 "},"Ѓ":{"x_min":-21.703125,"x_max":959.609375,"ha":920,"o":"m 258 72 l 420 72 l 406 0 l -21 0 l -8 72 l 120 72 l 289 940 l 160 940 l 174 1013 l 959 1013 l 915 786 l 832 786 l 859 929 l 425 929 l 258 72 m 726 1289 l 859 1289 l 646 1109 l 567 1109 l 726 1289 "},"ò":{"x_min":59,"x_max":776.421875,"ha":836,"o":"m 356 47 q 523 126 457 47 q 620 360 590 206 q 634 486 634 431 q 615 594 634 551 q 478 673 579 673 q 311 594 378 673 q 214 360 244 515 q 201 235 201 290 q 221 126 201 170 q 356 47 257 47 m 343 -20 q 111 83 186 -20 q 59 261 59 156 q 69 360 59 307 q 218 637 102 533 q 491 741 333 741 q 724 637 649 741 q 776 460 776 565 q 766 360 776 413 q 617 84 733 188 q 343 -20 501 -20 m 452 1110 l 579 855 l 499 855 l 319 1110 l 452 1110 "},"⥘":{"x_min":298.453125,"x_max":848,"ha":1163,"o":"m 637 896 l 637 0 l 527 0 l 527 779 l 298 649 l 298 656 l 535 896 l 315 896 l 315 1006 l 848 1006 l 848 896 l 637 896 "},"ℎ":{"x_min":67.4375,"x_max":767.421875,"ha":895,"o":"m 67 0 l 258 984 l 139 984 l 152 1056 l 397 1056 l 307 593 q 418 703 356 666 q 554 741 481 741 q 716 672 673 741 q 743 562 743 631 q 731 458 743 516 l 656 72 l 767 72 l 753 0 l 517 0 l 598 419 q 612 536 612 489 q 601 600 612 577 q 496 649 578 649 q 351 585 409 649 q 270 401 293 522 l 192 0 l 67 0 "},"к":{"x_min":98.015625,"x_max":829.765625,"ha":829,"o":"m 98 0 l 224 648 l 104 648 l 119 721 l 363 721 l 300 397 q 339 429 302 397 q 389 475 376 461 l 559 648 q 704 741 648 741 q 829 716 759 741 l 806 602 l 726 602 q 677 655 726 655 q 603 606 651 655 l 437 435 q 382 384 418 415 l 412 375 q 526 337 490 354 q 597 235 586 301 l 618 111 q 670 63 626 63 q 746 160 714 63 l 806 148 q 712 -2 784 35 q 645 -20 679 -20 q 519 26 557 -20 q 488 122 499 56 l 474 213 q 396 312 462 291 l 321 331 l 282 303 l 222 0 l 98 0 "},"𝐻":{"x_min":-21.015625,"x_max":1233.59375,"ha":1211,"o":"m -21 0 l -7 72 l 121 72 l 290 940 l 161 940 l 175 1013 l 571 1013 l 556 940 l 427 940 l 360 590 l 885 590 l 952 940 l 823 940 l 838 1013 l 1233 1013 l 1219 940 l 1090 940 l 921 72 l 1050 72 l 1036 0 l 641 0 l 655 72 l 784 72 l 868 507 l 343 507 l 259 72 l 387 72 l 374 0 l -21 0 "},"￼":{"x_min":0,"x_max":0,"ha":0},"⠆":{"x_min":193,"x_max":417,"ha":1017,"o":"m 193 599 q 224 679 193 646 q 304 712 256 712 q 384 679 351 712 q 417 599 417 646 q 384 519 417 552 q 304 487 351 487 q 224 519 256 487 q 193 599 193 552 m 193 215 q 224 295 193 262 q 304 328 256 328 q 384 295 351 328 q 417 215 417 262 q 384 135 417 168 q 304 103 351 103 q 224 135 256 103 q 193 215 193 168 "},"┲":{"x_min":-13.8125,"x_max":849.484375,"ha":836,"o":"m 309 -419 l 309 336 l -13 336 l -13 453 l 309 453 l 309 511 l 849 511 l 849 278 l 526 278 l 526 -419 l 309 -419 "},"⁻":{"x_min":93,"x_max":640,"ha":733,"o":"m 93 728 l 640 728 l 640 666 l 93 666 l 93 728 "},"ṉ":{"x_min":97.4375,"x_max":797.40625,"ha":895,"o":"m 97 0 l 223 648 l 104 648 l 117 721 l 361 721 l 337 592 q 448 703 386 666 q 584 741 511 741 q 747 672 703 741 q 773 561 773 630 q 761 458 773 515 l 686 72 l 797 72 l 783 0 l 547 0 l 628 418 q 642 535 642 488 q 631 600 642 576 q 526 650 608 650 q 381 586 439 650 q 300 401 323 522 l 222 0 l 97 0 m 161 -105 l 566 -105 l 547 -205 l 142 -205 l 161 -105 "},"ᵒ":{"x_min":43,"x_max":495,"ha":534,"o":"m 145 523 q 231 479 168 479 q 335 523 294 479 q 396 654 377 567 q 405 724 405 694 q 392 785 405 761 q 307 830 370 830 q 202 785 244 830 q 141 654 160 741 q 133 584 133 615 q 145 523 133 547 m 394 500 q 222 442 321 442 q 75 500 123 442 q 43 599 43 540 q 49 654 43 624 q 143 809 70 751 q 315 868 215 868 q 462 809 415 868 q 495 710 495 769 q 488 654 495 684 q 394 500 467 558 "},"ˆ":{"x_min":236,"x_max":668.671875,"ha":694,"o":"m 445 1111 l 559 1111 l 668 856 l 590 856 l 486 1032 l 314 856 l 236 856 l 445 1111 "},"ū":{"x_min":94.546875,"x_max":796.5625,"ha":894,"o":"m 349 1035 l 755 1035 l 736 935 l 330 935 l 349 1035 m 671 721 l 796 721 l 670 72 l 788 72 l 774 0 l 532 0 l 556 127 q 445 17 507 55 q 310 -20 383 -20 q 147 48 190 -20 q 121 159 121 89 q 132 262 121 204 l 207 648 l 94 648 l 108 721 l 346 721 l 265 301 q 252 185 252 231 q 262 120 252 143 q 367 72 285 72 q 512 135 454 72 q 593 320 570 199 l 671 721 "},"𝑣":{"x_min":52.21875,"x_max":769.71875,"ha":785,"o":"m 364 0 l 273 0 l 134 649 l 52 649 l 65 722 l 252 722 l 374 152 q 504 306 452 220 q 651 649 613 486 l 568 649 l 583 722 l 769 722 q 602 285 695 442 q 364 0 520 149 "},"ꙗ":{"x_min":96.640625,"x_max":1122.140625,"ha":1215,"o":"m 565 203 q 704 58 565 58 q 848 126 790 58 q 932 324 907 194 l 996 652 q 941 672 996 672 q 709 570 810 672 q 573 281 609 467 q 565 203 565 237 m 890 112 q 655 -20 800 -20 q 475 60 536 -20 q 433 199 433 118 q 440 272 433 233 q 449 314 444 293 l 282 314 l 221 0 l 96 0 l 222 650 l 102 650 l 116 721 l 361 721 l 298 395 l 474 395 q 653 635 532 546 q 966 741 795 741 q 1122 721 1082 741 l 996 72 l 1103 72 l 1088 0 l 869 0 l 890 112 "},"◸":{"x_min":4,"x_max":1063.671875,"ha":1068,"o":"m 81 22 l 870 816 l 81 816 l 81 22 m 4 -170 l 4 893 l 1063 893 l 4 -170 "},"℧":{"x_min":71.421875,"x_max":1170.515625,"ha":1152,"o":"m 475 920 l 247 920 l 229 827 l 150 827 l 189 1031 l 591 1031 l 567 907 q 352 754 436 860 q 239 492 269 649 q 272 187 202 302 q 493 73 343 73 q 759 187 644 73 q 912 492 874 302 q 900 755 942 650 q 746 907 858 860 l 770 1031 l 1170 1031 l 1131 827 l 1051 827 l 1069 920 l 842 920 q 1032 741 973 860 q 1064 476 1092 622 q 988 285 1044 374 q 843 126 931 196 q 671 32 764 65 q 480 0 578 0 q 301 32 381 0 q 166 126 221 64 q 83 285 105 196 q 80 476 61 375 q 215 741 109 621 q 475 920 321 860 "},"Ν":{"x_min":-27.8125,"x_max":1255.296875,"ha":1215,"o":"m -27 0 l -14 72 l 122 72 l 290 940 l 154 940 l 168 1013 l 428 1013 l 880 213 l 1021 940 l 885 940 l 899 1013 l 1255 1013 l 1241 940 l 1104 940 l 918 -19 l 836 -19 l 354 833 l 205 72 l 341 72 l 328 0 l -27 0 "},"⟱":{"x_min":95.171875,"x_max":1068.8125,"ha":1164,"o":"m 1068 262 l 1068 254 l 585 -28 l 578 -28 l 95 254 l 95 262 l 222 218 l 222 1005 l 332 1005 l 332 180 l 425 148 l 425 1005 l 535 1005 l 535 110 l 582 94 l 629 110 l 629 1005 l 739 1005 l 739 148 l 832 180 l 832 1005 l 942 1005 l 942 218 l 1068 262 "},"ȝ":{"x_min":-52.21875,"x_max":691.265625,"ha":724,"o":"m 288 639 q 170 480 210 594 l 98 480 l 134 664 q 291 714 200 692 q 475 736 382 736 q 636 679 568 736 q 688 538 704 623 q 613 393 671 452 q 474 292 556 334 q 596 222 556 281 q 626 108 636 163 q 502 -85 602 -11 q 232 -215 401 -159 q -52 -294 63 -271 l -38 -226 q 193 -150 73 -197 q 402 -33 314 -103 q 483 90 469 20 q 461 198 496 159 q 292 216 408 258 l 141 161 l 154 229 l 305 287 q 462 390 391 320 q 541 525 527 454 q 513 633 554 596 q 413 670 472 670 q 288 639 341 670 "},"œ":{"x_min":59,"x_max":1311,"ha":1373,"o":"m 356 47 q 523 126 457 47 q 620 360 590 206 q 614 594 650 515 q 478 673 579 673 q 311 594 378 673 q 214 360 244 515 q 221 126 185 206 q 356 47 257 47 m 1102 424 q 1179 555 1179 469 q 1024 673 1179 673 q 870 605 933 673 q 768 353 807 537 q 1102 424 985 353 m 754 278 q 752 228 752 251 q 775 122 752 164 q 922 47 815 47 q 1039 71 1001 47 q 1125 169 1109 113 l 1216 169 q 1088 22 1189 82 q 878 -20 1018 -20 q 663 83 738 -20 q 645 111 653 97 q 617 83 631 97 q 343 -20 501 -20 q 111 83 186 -20 q 59 261 59 156 q 69 360 59 307 q 218 637 102 533 q 491 741 333 741 q 724 637 649 741 q 741 609 734 624 q 768 636 754 623 q 1045 741 882 741 q 1311 552 1311 741 q 1171 346 1311 414 q 754 278 1030 278 "},"Ὲ":{"x_min":139.03125,"x_max":1242.40625,"ha":1266,"o":"m 272 1110 l 398 855 l 319 855 l 139 1110 l 272 1110 m 230 0 l 244 72 l 373 72 l 541 940 l 413 940 l 427 1013 l 1242 1013 l 1199 787 l 1115 787 l 1142 929 l 677 929 l 611 590 l 943 590 l 967 716 l 1051 716 l 986 380 l 902 380 l 927 507 l 595 507 l 513 83 l 989 83 l 1016 225 l 1099 225 l 1056 0 l 230 0 "},"⇦":{"x_min":51.96875,"x_max":1085,"ha":1164,"o":"m 1017 561 l 308 561 l 308 607 l 148 449 l 308 290 l 308 337 l 1017 337 l 1017 561 m 1085 629 l 1085 269 l 376 269 l 376 165 l 334 165 l 51 445 l 51 452 l 334 732 l 376 732 l 376 629 l 1085 629 "},"Ɵ":{"x_min":64.59375,"x_max":1075.171875,"ha":1139,"o":"m 467 -20 q 284 13 364 -20 q 151 113 204 47 q 72 286 90 189 q 77 505 54 382 q 157 724 101 627 q 303 897 212 821 q 475 997 383 963 q 672 1031 567 1031 q 999 886 892 1031 q 1061 505 1107 742 q 981 286 1037 383 q 834 113 925 189 q 663 13 754 47 q 467 -20 571 -20 m 481 53 q 754 166 647 53 q 897 470 853 272 l 227 470 q 252 166 194 272 q 481 53 314 53 m 913 553 q 886 843 941 742 q 657 958 823 958 q 383 843 491 958 q 243 553 288 742 l 913 553 "},"ᵛ":{"x_min":-2.71875,"x_max":449.625,"ha":517,"o":"m 136 453 l 48 816 l -2 816 l 6 857 l 123 857 l 200 538 l 389 816 l 398 857 l 449 857 l 440 816 l 194 453 l 136 453 "},"𝛢":{"x_min":-105.796875,"x_max":932.484375,"ha":1003,"o":"m 251 367 l 623 367 l 531 848 l 251 367 m -105 0 l -92 72 l -3 72 l 540 1013 l 654 1013 l 833 72 l 932 72 l 918 0 l 550 0 l 564 72 l 676 72 l 635 294 l 209 294 l 81 72 l 192 72 l 179 0 l -105 0 "},"ș":{"x_min":15.09375,"x_max":664.859375,"ha":712,"o":"m 47 208 l 118 208 q 116 170 116 188 q 283 47 116 47 q 476 170 452 47 q 479 204 479 182 q 455 251 479 225 q 335 309 432 276 l 250 340 q 135 408 163 370 q 108 491 108 446 q 111 529 108 508 q 214 684 130 628 q 418 741 297 741 q 664 682 538 741 l 634 525 l 562 525 q 565 554 565 540 q 530 638 565 603 q 416 673 496 673 q 235 562 257 673 q 233 530 233 550 q 255 485 233 509 q 363 433 277 461 l 456 402 q 588 322 552 370 q 614 255 614 288 q 500 39 614 113 q 273 -20 410 -20 q 15 39 136 -20 l 47 208 m 209 -279 q 285 -213 261 -251 q 309 -120 309 -175 l 309 -106 l 413 -106 q 373 -225 413 -175 q 253 -312 333 -275 l 209 -279 "},"◺":{"x_min":4,"x_max":1063.671875,"ha":1068,"o":"m 81 -94 l 870 -94 l 81 699 l 81 -94 m 4 -171 l 4 892 l 1063 -171 l 4 -171 "},"ἱ":{"x_min":107.65625,"x_max":419.609375,"ha":545,"o":"m 334 1153 q 384 1135 364 1153 q 406 1061 416 1109 q 368 996 399 1022 q 305 973 340 973 q 347 863 305 915 l 292 843 q 288 847 291 844 q 224 1051 196 941 l 226 1061 q 253 1115 232 1091 q 334 1153 288 1153 m 138 197 l 227 649 l 107 649 l 121 722 l 366 722 l 263 197 q 290 79 245 102 q 419 112 326 62 l 404 30 q 170 34 250 -48 q 138 197 117 88 "},"Ѵ":{"x_min":99.328125,"x_max":1269.171875,"ha":1194,"o":"m 99 941 l 112 1014 l 481 1014 l 468 941 l 355 941 l 503 163 l 953 941 q 1115 1032 1004 1032 q 1188 1022 1157 1032 q 1269 987 1219 1012 l 1240 839 l 1175 839 q 1181 891 1181 864 q 1162 940 1181 918 q 1107 963 1143 963 q 1027 924 1051 963 l 493 0 l 376 0 l 200 941 l 99 941 "},"Ȫ":{"x_min":63.921875,"x_max":1074.5,"ha":1139,"o":"m 602 1496 l 1008 1496 l 989 1396 l 583 1396 l 602 1496 m 480 53 q 754 167 646 53 q 904 505 861 281 q 885 843 948 729 q 657 958 823 958 q 383 843 490 958 q 232 505 276 729 q 251 167 189 281 q 480 53 314 53 m 466 -20 q 283 13 363 -20 q 151 113 204 47 q 71 286 90 189 q 77 505 53 382 q 156 724 101 627 q 303 897 212 821 q 474 997 382 963 q 671 1031 566 1031 q 999 886 891 1031 q 1060 505 1106 741 q 980 286 1036 383 q 834 113 924 188 q 662 13 754 47 q 466 -20 570 -20 m 612 1278 q 663 1254 644 1278 q 676 1199 682 1230 q 642 1143 669 1165 q 581 1120 615 1120 q 529 1143 547 1120 q 518 1199 511 1165 q 552 1254 524 1230 q 612 1278 580 1278 m 876 1278 q 927 1254 908 1278 q 939 1199 946 1230 q 906 1143 933 1165 q 845 1120 878 1120 q 793 1143 811 1120 q 781 1199 775 1165 q 815 1254 788 1230 q 876 1278 844 1278 "},"𝑑":{"x_min":27,"x_max":833.78125,"ha":889,"o":"m 833 1056 l 628 0 l 504 0 l 525 112 q 412 12 475 44 q 266 -20 350 -20 q 69 85 133 -20 q 27 252 27 155 q 38 360 27 303 q 176 635 71 530 q 414 741 280 741 q 548 708 498 741 q 622 608 598 676 l 694 984 l 576 984 l 591 1056 l 833 1056 m 567 324 l 580 396 q 591 491 591 449 q 569 594 591 553 q 438 663 533 663 q 277 586 341 663 q 184 360 213 510 q 171 239 171 292 q 190 134 171 176 q 320 58 223 58 q 478 126 415 58 q 567 324 541 194 "},"ˈ":{"x_min":99.015625,"x_max":292.96875,"ha":392,"o":"m 99 713 l 165 1055 l 292 1055 l 226 713 l 99 713 "},"ɘ":{"x_min":57,"x_max":763.125,"ha":822,"o":"m 66 347 q 214 640 107 539 q 484 741 321 741 q 712 636 638 741 q 752 360 786 531 q 602 83 719 188 q 328 -20 486 -20 q 128 39 198 -20 q 57 218 57 99 l 156 218 q 202 90 156 133 q 328 47 246 47 q 505 121 436 47 q 603 341 575 195 l 604 347 l 66 347 m 227 419 l 618 419 q 595 609 632 544 q 472 673 558 673 q 318 609 379 673 q 227 419 256 545 "},"₈":{"x_min":16.171875,"x_max":537.203125,"ha":557,"o":"m 336 60 q 394 153 380 93 q 380 245 408 212 q 286 279 351 279 q 176 245 220 279 q 117 153 131 212 q 131 60 103 93 q 225 27 160 27 q 336 60 291 27 m 389 354 q 440 433 427 382 q 427 512 452 484 q 345 541 402 541 q 251 512 289 541 q 200 433 212 484 q 213 354 188 382 q 295 326 238 326 q 389 354 351 326 m 360 297 q 470 250 435 289 q 491 152 505 212 q 401 32 472 74 q 217 -10 330 -10 q 53 32 104 -10 q 21 152 2 74 q 87 250 35 212 q 220 297 140 289 q 124 350 163 307 q 107 433 95 382 q 189 539 124 500 q 354 578 255 578 q 501 539 454 578 q 533 433 549 500 q 476 350 518 374 q 360 297 414 316 "},"ạ":{"x_min":46,"x_max":734.140625,"ha":828,"o":"m 503 112 q 267 -20 413 -20 q 88 60 148 -20 q 46 199 46 117 q 53 272 46 233 q 266 635 99 512 q 579 741 408 741 q 734 721 694 741 l 608 72 l 715 72 l 701 0 l 482 0 l 503 112 m 178 203 q 318 58 178 58 q 461 126 403 58 q 545 324 519 194 l 608 652 l 608 652 q 553 672 608 672 q 322 570 423 672 q 186 281 222 467 q 178 203 178 238 m 220 -130 q 281 -107 248 -107 q 332 -130 313 -107 q 344 -186 350 -153 q 311 -243 338 -221 q 249 -266 284 -266 q 197 -243 215 -266 q 186 -186 179 -221 q 220 -130 192 -153 "},"⇖":{"x_min":205,"x_max":1059.5,"ha":1164,"o":"m 211 418 l 205 423 l 205 821 l 209 825 l 607 825 l 611 819 l 491 784 l 1059 216 l 982 138 l 371 749 l 301 728 l 281 658 l 891 48 l 814 -29 l 246 538 l 211 418 "},"д":{"x_min":59,"x_max":823,"ha":881,"o":"m 201 235 q 356 47 201 47 q 523 126 455 47 q 620 308 567 177 q 674 488 674 439 q 636 598 674 538 q 573 647 623 620 q 478 673 524 673 q 311 594 378 673 q 214 360 244 515 q 201 235 201 290 m 59 261 q 69 360 59 307 q 218 637 102 533 q 486 741 333 741 q 714 600 638 741 q 727 723 727 666 q 694 879 727 814 q 504 985 640 985 q 347 929 417 985 l 306 982 q 499 1056 389 1056 q 780 899 687 1056 q 823 700 823 827 q 748 290 823 500 q 617 83 702 161 q 344 -20 501 -20 q 111 83 186 -20 q 59 261 59 156 "},"ӥ":{"x_min":94.546875,"x_max":796.5625,"ha":894,"o":"m 671 721 l 796 721 l 670 72 l 788 72 l 774 0 l 532 0 l 556 127 q 445 17 507 55 q 310 -20 383 -20 q 147 48 190 -20 q 121 159 121 89 q 132 262 121 204 l 207 648 l 94 648 l 108 721 l 346 721 l 265 301 q 252 185 252 231 q 262 120 252 143 q 367 72 285 72 q 512 135 454 72 q 593 320 570 199 l 671 721 m 417 1064 q 469 1040 450 1064 q 481 984 487 1017 q 447 927 474 949 q 386 905 420 905 q 334 927 352 905 q 323 984 316 949 q 357 1040 329 1017 q 417 1064 385 1064 m 681 1064 q 732 1040 713 1064 q 745 984 751 1017 q 711 927 738 949 q 650 905 684 905 q 598 927 616 905 q 587 984 580 949 q 621 1040 593 1017 q 681 1064 649 1064 "},"ʛ":{"x_min":28.125,"x_max":1088.03125,"ha":908,"o":"m 685 492 l 614 492 q 578 630 614 598 q 449 674 531 674 q 284 591 361 674 q 176 347 208 511 q 191 104 145 187 q 393 37 232 37 q 487 57 434 37 q 535 77 525 72 l 571 272 l 437 272 l 447 324 l 677 324 l 624 51 q 477 -5 554 13 q 318 -25 401 -25 q 80 78 157 -25 q 38 355 5 182 q 188 631 72 528 q 469 735 306 735 q 592 720 530 735 l 603 717 l 623 818 q 723 992 644 929 q 917 1056 801 1056 q 1008 1045 966 1056 q 1088 1011 1050 1033 l 1058 863 l 995 863 q 980 958 1002 927 q 902 988 957 988 q 802 947 839 988 q 748 817 765 907 l 720 677 l 721 676 l 685 492 "},"┆":{"x_min":363,"x_max":472,"ha":836,"o":"m 363 -419 l 363 110 l 472 110 l 472 -419 l 363 -419 m 363 233 l 363 701 l 472 701 l 472 233 l 363 233 m 363 823 l 363 1352 l 472 1352 l 472 823 l 363 823 "},"𝜎":{"x_min":61.03125,"x_max":979.28125,"ha":948,"o":"m 358 47 q 525 126 459 47 q 622 360 592 206 q 615 587 649 501 q 478 661 584 661 q 311 587 374 661 q 217 360 245 507 q 223 126 187 205 q 358 47 259 47 m 491 721 q 979 721 767 721 l 965 648 l 716 648 q 768 360 804 544 q 619 84 735 188 q 345 -20 503 -20 q 113 84 188 -20 q 71 360 37 188 q 220 636 104 533 q 491 721 314 721 "},"Ḙ":{"x_min":-21.015625,"x_max":990.8125,"ha":1014,"o":"m -21 0 l -7 72 l 121 72 l 290 940 l 161 940 l 175 1013 l 990 1013 l 947 787 l 863 787 l 891 929 l 425 929 l 360 590 l 691 590 l 716 716 l 799 716 l 734 380 l 651 380 l 675 507 l 343 507 l 261 83 l 737 83 l 764 225 l 848 225 l 804 0 l -21 0 m 337 -79 l 451 -79 l 560 -334 l 482 -334 l 379 -157 l 206 -334 l 128 -334 l 337 -79 "},"⠴":{"x_min":193,"x_max":824,"ha":1017,"o":"m 193 215 q 224 295 193 262 q 304 328 256 328 q 384 295 351 328 q 417 215 417 262 q 384 135 417 168 q 304 103 351 103 q 224 135 256 103 q 193 215 193 168 m 600 599 q 631 679 600 646 q 712 712 663 712 q 791 679 758 712 q 824 599 824 646 q 791 519 824 552 q 712 487 758 487 q 631 519 663 487 q 600 599 600 552 m 600 215 q 631 295 600 262 q 712 328 663 328 q 791 295 758 328 q 824 215 824 262 q 791 135 824 168 q 712 103 758 103 q 631 135 663 103 q 600 215 600 168 "},"ʐ":{"x_min":15.59375,"x_max":920.953125,"ha":829,"o":"m 15 0 l 27 58 l 593 648 l 236 648 l 211 523 l 139 523 l 178 721 l 768 721 l 756 662 l 190 72 l 655 72 l 627 -70 q 630 -199 609 -159 q 714 -241 652 -241 q 803 -211 769 -241 q 856 -116 838 -180 l 920 -116 l 891 -264 q 798 -297 845 -286 q 703 -309 752 -309 q 533 -245 588 -309 q 501 -70 479 -183 l 515 0 l 15 0 "},"ὂ":{"x_min":59,"x_max":776.421875,"ha":836,"o":"m 591 1110 l 717 855 l 638 855 l 457 1110 l 591 1110 m 346 1152 q 412 1114 392 1152 q 419 1061 424 1091 l 417 1050 q 273 846 401 940 q 267 842 269 844 l 221 863 q 303 971 285 914 q 251 997 270 973 q 238 1061 231 1023 q 289 1135 247 1108 q 346 1152 316 1152 m 356 47 q 523 126 457 47 q 620 360 590 206 q 634 486 634 431 q 615 594 634 551 q 478 673 579 673 q 311 594 378 673 q 214 360 244 515 q 201 235 201 290 q 221 126 201 170 q 356 47 257 47 m 343 -20 q 111 83 186 -20 q 59 261 59 156 q 69 360 59 307 q 218 637 102 533 q 491 741 333 741 q 724 637 649 741 q 776 460 776 565 q 766 360 776 413 q 617 84 733 188 q 343 -20 501 -20 "},"↟":{"x_min":298.453125,"x_max":866,"ha":1164,"o":"m 637 0 l 527 0 l 527 704 l 298 573 l 298 580 l 527 811 l 527 873 l 299 742 l 299 750 l 578 1033 l 585 1033 l 866 750 l 866 742 l 637 873 l 637 811 l 866 580 l 866 573 l 637 704 l 637 0 "},"î":{"x_min":99.6875,"x_max":543.890625,"ha":444,"o":"m 238 72 l 356 72 l 342 0 l 99 0 l 225 649 l 106 649 l 120 722 l 364 722 l 238 72 m 320 1111 l 434 1111 l 543 856 l 465 856 l 362 1032 l 189 856 l 111 856 l 320 1111 "},"ύ":{"x_min":106.46875,"x_max":789.078125,"ha":844,"o":"m 592 1111 l 727 1111 l 446 856 l 366 856 l 592 1111 m 570 721 l 646 721 q 775 588 750 667 q 773 345 803 500 q 717 205 758 270 q 611 88 674 137 q 484 19 553 43 q 343 -3 416 -3 q 174 63 233 -3 q 145 237 122 119 l 225 648 l 106 648 l 120 721 l 364 721 l 271 237 q 273 108 253 148 q 358 66 295 66 q 535 155 442 66 q 636 356 611 227 q 655 579 672 539 q 562 680 622 648 l 570 721 "},"ϰ":{"x_min":-2.578125,"x_max":865.640625,"ha":866,"o":"m 547 485 q 634 597 575 535 q 863 716 836 806 q 849 656 870 692 q 712 516 808 587 l 640 455 q 524 171 534 276 q 549 88 518 115 q 584 68 573 68 q 648 87 625 68 q 684 154 671 107 l 748 154 l 721 16 q 651 0 685 5 q 584 -5 616 -5 q 501 26 543 -5 q 448 141 459 58 q 478 354 438 226 q 432 328 461 340 q 318 263 358 295 q 227 139 262 175 q -2 20 25 -70 q 12 79 -5 32 q 154 234 41 158 l 226 291 q 337 565 328 468 q 312 648 343 621 q 277 669 288 669 q 213 649 236 669 q 177 583 190 629 l 113 583 l 140 720 q 210 736 176 731 q 277 742 245 742 q 360 710 318 742 q 413 595 404 677 q 383 392 421 513 q 423 416 408 409 q 547 485 476 440 "},"ɓ":{"x_min":59.671875,"x_max":800.09375,"ha":889,"o":"m 302 608 q 415 708 351 675 q 561 741 478 741 q 758 635 694 741 q 788 360 821 530 q 651 85 755 191 q 413 -20 546 -20 q 280 11 330 -20 q 206 112 229 44 l 184 0 l 59 0 l 187 659 l 218 817 q 318 991 240 928 q 512 1055 396 1055 q 604 1044 564 1055 q 683 1010 646 1032 l 655 862 l 590 862 q 575 957 598 927 q 497 988 552 988 q 398 946 435 988 q 343 817 360 906 l 302 608 m 247 324 q 259 125 221 194 q 389 58 295 58 q 549 134 485 58 q 642 360 613 211 q 637 586 672 510 q 507 663 603 663 q 349 594 412 663 q 261 396 286 525 l 247 324 "},"ǫ":{"x_min":59,"x_max":776.421875,"ha":836,"o":"m 356 47 q 523 126 457 47 q 620 360 590 205 q 634 485 634 431 q 615 593 634 550 q 478 673 579 673 q 311 594 378 673 q 214 360 244 515 q 201 235 201 290 q 221 126 201 170 q 356 47 257 47 m 343 -20 q 111 83 186 -20 q 59 260 59 156 q 69 360 59 307 q 218 636 102 532 q 491 740 333 740 q 724 636 649 740 q 776 460 776 564 q 766 360 776 413 q 617 84 733 188 q 343 -20 501 -20 m 316 -11 l 380 -11 l 379 -12 q 298 -127 304 -95 q 311 -178 292 -159 q 368 -197 330 -197 q 406 -192 386 -197 q 449 -179 427 -188 l 431 -265 q 383 -274 406 -271 q 338 -278 360 -278 q 225 -247 261 -278 q 200 -162 189 -217 q 233 -93 206 -129 q 316 -11 261 -57 "},"𝛴":{"x_min":-41.375,"x_max":987.421875,"ha":982,"o":"m 660 552 l 202 128 l 731 128 l 750 225 l 834 225 l 790 0 l -41 0 l 507 507 l 155 1013 l 987 1013 l 944 788 l 860 788 l 887 930 l 416 930 l 660 552 "},"⢧":{"x_min":193,"x_max":824,"ha":1017,"o":"m 193 983 q 224 1063 193 1030 q 304 1096 256 1096 q 384 1063 351 1096 q 417 983 417 1030 q 384 903 417 936 q 304 871 351 871 q 224 903 256 871 q 193 983 193 936 m 193 599 q 224 679 193 646 q 304 712 256 712 q 384 679 351 712 q 417 599 417 646 q 384 519 417 552 q 304 487 351 487 q 224 519 256 487 q 193 599 193 552 m 193 215 q 224 295 193 262 q 304 328 256 328 q 384 295 351 328 q 417 215 417 262 q 384 135 417 168 q 304 103 351 103 q 224 135 256 103 q 193 215 193 168 m 600 215 q 631 295 600 262 q 712 328 663 328 q 791 295 758 328 q 824 215 824 262 q 791 135 824 168 q 712 103 758 103 q 631 135 663 103 q 600 215 600 168 m 600 -169 q 631 -89 600 -122 q 712 -57 663 -57 q 791 -89 758 -57 q 824 -169 824 -122 q 791 -249 824 -216 q 712 -282 758 -282 q 631 -249 663 -282 q 600 -169 600 -216 "},"⠗":{"x_min":193,"x_max":824,"ha":1017,"o":"m 193 984 q 224 1064 193 1031 q 304 1097 256 1097 q 384 1064 351 1097 q 417 984 417 1031 q 384 904 417 937 q 304 872 351 872 q 224 904 256 872 q 193 984 193 937 m 193 599 q 224 679 193 646 q 304 712 256 712 q 384 679 351 712 q 417 599 417 646 q 384 519 417 552 q 304 487 351 487 q 224 519 256 487 q 193 599 193 552 m 193 215 q 224 295 193 262 q 304 328 256 328 q 384 295 351 328 q 417 215 417 262 q 384 135 417 168 q 304 103 351 103 q 224 135 256 103 q 193 215 193 168 m 600 599 q 631 679 600 646 q 712 712 663 712 q 791 679 758 712 q 824 599 824 646 q 791 519 824 552 q 712 487 758 487 q 631 519 663 487 q 600 599 600 552 "},"":{"x_min":39,"x_max":1012,"ha":1123,"o":"m 756 1040 q 763 1081 763 1070 q 750 1101 763 1095 q 707 1108 737 1108 q 672 1104 687 1108 q 648 1091 658 1100 q 631 1068 638 1082 q 618 1032 624 1053 q 613 1008 615 1018 q 612 992 612 997 q 622 967 612 976 q 658 946 633 959 q 698 965 681 956 q 726 986 715 975 q 744 1011 737 997 q 756 1041 751 1024 l 756 1040 m 558 472 q 485 490 515 476 q 434 526 454 505 q 405 574 414 547 q 395 631 395 601 q 407 704 395 666 q 441 777 419 742 q 496 843 463 812 q 568 897 528 875 q 509 939 530 915 q 488 1003 488 963 q 489 1022 488 1013 q 492 1039 490 1030 q 527 1117 504 1086 q 580 1167 550 1149 q 647 1194 610 1186 q 721 1202 683 1202 q 786 1196 756 1202 q 837 1176 816 1190 q 871 1140 859 1162 q 883 1084 883 1117 q 883 1058 883 1070 q 878 1031 883 1045 q 861 987 872 1006 q 834 955 850 969 q 798 929 818 940 q 751 907 778 918 q 948 791 884 867 q 1012 603 1012 715 q 1007 540 1012 573 q 994 476 1002 507 q 949 356 978 415 q 880 244 920 297 q 791 146 840 191 q 685 69 741 101 q 565 18 628 36 q 434 0 501 0 q 254 26 329 0 q 131 100 180 52 q 61 212 83 147 q 39 353 39 276 q 44 429 39 388 q 59 507 49 470 q 102 637 78 578 q 156 748 125 697 q 228 846 188 800 q 320 937 268 892 q 272 932 294 932 q 227 940 248 932 q 188 965 206 948 l 225 1116 q 286 1052 250 1074 q 361 1030 322 1030 q 390 1033 375 1030 q 418 1041 405 1036 l 463 1041 l 448 960 q 409 925 429 951 q 369 863 388 899 q 333 783 350 826 q 300 696 315 739 q 274 614 285 653 q 255 545 262 575 q 231 429 240 483 q 223 332 223 375 q 280 164 223 217 q 449 111 337 111 q 580 138 523 111 q 682 218 637 165 q 760 350 727 271 q 822 531 794 429 l 822 531 q 832 607 832 570 q 821 681 832 644 q 787 753 810 719 q 730 813 765 786 q 648 858 695 841 q 588 819 614 840 q 543 774 562 797 q 515 729 525 752 q 506 687 506 707 q 526 641 506 663 q 591 606 547 619 l 558 472 "},"⥼":{"x_min":235,"x_max":947,"ha":1164,"o":"m 472 29 q 304 98 373 29 q 235 266 235 168 q 304 434 235 364 q 320 449 312 442 q 304 463 312 455 q 235 631 235 533 q 304 799 235 729 q 472 869 373 869 l 472 759 q 382 721 419 759 q 345 631 345 684 q 382 541 345 578 q 472 504 419 504 l 947 504 l 947 394 l 472 394 q 382 356 419 394 q 345 266 345 319 q 382 176 345 213 q 472 139 419 139 l 472 29 "},"‸":{"x_min":7.453125,"x_max":463.1875,"ha":471,"o":"m 463 -328 l 362 -328 l 236 -159 l 108 -328 l 7 -328 l 236 -41 l 463 -328 "},"↨":{"x_min":298.453125,"x_max":865.546875,"ha":1164,"o":"m 848 0 l 315 0 l 315 110 l 535 110 l 298 349 l 298 357 l 527 226 l 527 874 l 298 743 l 298 750 l 578 1033 l 585 1033 l 865 750 l 865 743 l 637 874 l 637 226 l 865 357 l 865 349 l 628 110 l 848 110 l 848 0 "},"Ξ":{"x_min":-21.015625,"x_max":990.8125,"ha":977,"o":"m 735 128 l 754 225 l 837 225 l 794 0 l -21 0 l 22 225 l 105 225 l 86 128 l 735 128 m 882 885 l 234 885 l 215 787 l 132 787 l 175 1013 l 990 1013 l 947 787 l 863 787 l 882 885 m 325 507 l 301 380 l 217 380 l 282 716 l 366 716 l 341 590 l 660 590 l 684 716 l 768 716 l 703 380 l 619 380 l 644 507 l 325 507 "},"⥏":{"x_min":527,"x_max":865.546875,"ha":1164,"o":"m 535 -32 l 527 -32 l 527 1037 l 535 1037 l 865 702 l 865 695 l 637 826 l 637 178 l 865 309 l 865 302 l 535 -32 "},"⡉":{"x_min":193,"x_max":824,"ha":1017,"o":"m 193 983 q 224 1063 193 1030 q 304 1096 256 1096 q 384 1063 351 1096 q 417 983 417 1030 q 384 903 417 936 q 304 871 351 871 q 224 903 256 871 q 193 983 193 936 m 600 983 q 631 1063 600 1030 q 712 1096 663 1096 q 791 1063 758 1096 q 824 983 824 1030 q 791 903 824 936 q 712 871 758 871 q 631 903 663 871 q 600 983 600 936 m 193 -169 q 224 -89 193 -122 q 304 -57 256 -57 q 384 -89 351 -57 q 417 -169 417 -122 q 384 -249 417 -216 q 304 -282 351 -282 q 224 -249 256 -282 q 193 -169 193 -216 "},"ŵ":{"x_min":77.984375,"x_max":1160.34375,"ha":1189,"o":"m 688 1111 l 802 1111 l 911 856 l 832 856 l 729 1032 l 557 856 l 478 856 l 688 1111 m 811 158 q 922 291 901 255 q 1070 648 996 427 l 965 648 l 979 721 l 1160 721 l 1146 648 l 1145 648 q 1010 274 1076 396 q 807 0 913 101 l 703 0 l 629 539 l 346 0 l 246 0 l 159 648 l 77 648 l 92 721 l 278 721 l 354 158 l 649 721 l 736 721 l 811 158 "},"𝑄":{"x_min":84,"x_max":1095,"ha":1139,"o":"m 503 -20 q 160 123 270 -20 q 84 371 84 222 q 97 505 84 433 q 177 724 121 627 q 323 897 233 821 q 495 997 402 963 q 691 1031 587 1031 q 1019 886 912 1031 q 1095 638 1095 785 q 1081 505 1095 576 q 913 167 1042 304 q 598 -8 785 31 q 674 -75 626 -53 q 797 -97 723 -97 l 966 -97 l 942 -223 l 862 -223 q 608 -167 683 -223 q 503 -20 535 -111 m 501 53 q 774 167 667 53 q 925 505 881 281 q 943 671 943 597 q 906 843 943 776 q 677 958 843 958 q 403 843 510 958 q 252 505 296 729 q 235 339 235 413 q 271 166 235 234 q 501 53 334 53 "}}}
